<svg xmlns="http://www.w3.org/2000/svg" xmlns:v="https://svgstorm.com"
viewBox = "0 0 512 512"
width="512"
height="512">
<g fill="None" fill-opacity="0.0" stroke="#000000" stroke-opacity="0.00" stroke-width="0.3"><path d="
M 0.00 512.00 
L 184.00 512.00
C 156.28 505.20 141.87 498.20 119.25 476.75 C 96.63 455.30 82.21 434.08 71.81 413.75 C 61.41 393.41 52.34 375.46 45.79 349.77 C 39.24 324.08 32.80 301.43 32.00 272.00 C 31.21 242.56 38.97 213.39 46.19 193.75 C 53.41 174.11 77.24 147.36 97.30 137.29 C 117.36 127.22 143.47 120.45 173.69 122.35 C 203.92 124.25 218.55 135.06 241.00 154.00
C 241.45 140.72 242.38 131.28 245.00 120.00
C 218.13 115.77 194.28 105.08 174.43 81.23 C 154.57 57.38 151.52 37.67 151.00 0.00
L 0.00 0.00
L 0.00 512.00 Z"/>
</g>
<g fill="None" fill-opacity="0.0" stroke="#000000" stroke-opacity="0.98" stroke-width="0.3"><path d="
M 184.00 512.00 
L 207.00 512.00
C 214.57 508.36 225.50 506.73 232.75 502.61 C 240.01 498.49 248.54 492.76 256.00 487.00
C 271.78 499.72 286.20 506.51 306.00 512.00
L 328.00 512.00
C 355.45 505.39 371.03 497.53 393.25 476.25 C 415.48 454.98 430.71 433.19 441.13 413.08 C 451.55 392.97 459.26 374.05 466.40 349.25 C 473.54 324.46 478.48 299.73 480.00 270.00 C 481.52 240.26 471.35 212.61 464.29 192.70 C 457.22 172.78 433.74 147.88 413.75 137.81 C 393.75 127.74 367.10 119.46 336.93 122.07 C 306.75 124.69 294.21 135.12 271.00 154.00
C 272.96 125.05 277.85 108.40 295.92 88.92 C 313.98 69.44 333.68 61.70 361.00 60.00
C 361.00 50.00 361.00 40.00 361.00 30.00
C 341.24 31.08 324.19 33.80 309.75 41.19 C 295.31 48.59 278.96 60.45 268.00 77.00
C 262.09 59.42 250.95 38.53 232.23 23.43 C 213.51 8.32 201.40 5.62 177.00 0.00
L 151.00 0.00
C 151.52 37.67 154.57 57.38 174.43 81.23 C 194.28 105.08 218.13 115.77 245.00 120.00
C 242.38 131.28 241.45 140.72 241.00 154.00
C 218.55 135.06 203.92 124.25 173.69 122.35 C 143.47 120.45 117.36 127.22 97.30 137.29 C 77.24 147.36 53.41 174.11 46.19 193.75 C 38.97 213.39 31.21 242.56 32.00 272.00 C 32.80 301.43 39.24 324.08 45.79 349.77 C 52.34 375.46 61.41 393.41 71.81 413.75 C 82.21 434.08 96.63 455.30 119.25 476.75 C 141.87 498.20 156.28 505.20 184.00 512.00
M 239.00 88.00 
C 213.45 83.78 187.32 57.10 183.00 32.00
C 207.87 36.39 234.64 62.37 239.00 88.00
M 241.00 203.00 
C 247.18 204.09 250.07 197.80 255.75 197.61 C 261.44 197.41 264.83 204.13 271.00 203.00
C 283.95 180.94 302.29 159.12 328.08 154.94 C 353.87 150.75 382.85 152.05 402.77 165.58 C 422.69 179.10 439.94 200.73 444.19 224.25 C 448.44 247.78 452.14 285.88 445.93 310.08 C 439.73 334.29 434.80 357.95 424.61 378.75 C 414.41 399.56 406.97 417.29 387.90 438.90 C 368.83 460.52 350.26 478.95 323.77 481.21 C 297.28 483.47 277.33 469.12 257.00 446.00
C 234.23 463.36 223.97 480.78 199.25 481.60 C 174.53 482.43 157.01 472.13 138.30 454.70 C 119.58 437.28 107.63 416.17 97.81 398.75 C 87.99 381.32 81.00 363.16 74.80 341.75 C 68.60 320.35 65.01 304.07 63.21 277.77 C 61.42 251.47 66.99 222.25 75.13 204.08 C 83.27 185.91 103.50 165.91 121.75 159.41 C 140.01 152.91 172.23 148.98 191.92 157.13 C 211.60 165.28 232.39 182.70 241.00 203.00 Z"/>
</g>
<g fill="None" fill-opacity="0.0" stroke="#000000" stroke-opacity="0.00" stroke-width="0.3"><path d="
M 328.00 512.00 
L 512.00 512.00
L 512.00 0.00
L 177.00 0.00
C 201.40 5.62 213.51 8.32 232.23 23.43 C 250.95 38.53 262.09 59.42 268.00 77.00
C 278.96 60.45 295.31 48.59 309.75 41.19 C 324.19 33.80 341.24 31.08 361.00 30.00
C 361.00 40.00 361.00 50.00 361.00 60.00
C 333.68 61.70 313.98 69.44 295.92 88.92 C 277.85 108.40 272.96 125.05 271.00 154.00
C 294.21 135.12 306.75 124.69 336.93 122.07 C 367.10 119.46 393.75 127.74 413.75 137.81 C 433.74 147.88 457.22 172.78 464.29 192.70 C 471.35 212.61 481.52 240.26 480.00 270.00 C 478.48 299.73 473.54 324.46 466.40 349.25 C 459.26 374.05 451.55 392.97 441.13 413.08 C 430.71 433.19 415.48 454.98 393.25 476.25 C 371.03 497.53 355.45 505.39 328.00 512.00 Z"/>
</g>
<g fill="None" fill-opacity="0.0" stroke="#000000" stroke-opacity="0.04" stroke-width="0.3"><path d="
M 239.00 88.00 
C 234.64 62.37 207.87 36.39 183.00 32.00
C 187.32 57.10 213.45 83.78 239.00 88.00 Z"/>
</g>
<g fill="None" fill-opacity="0.0" stroke="#000000" stroke-opacity="0.00" stroke-width="0.3"><path d="
M 241.00 203.00 
C 232.39 182.70 211.60 165.28 191.92 157.13 C 172.23 148.98 140.01 152.91 121.75 159.41 C 103.50 165.91 83.27 185.91 75.13 204.08 C 66.99 222.25 61.42 251.47 63.21 277.77 C 65.01 304.07 68.60 320.35 74.80 341.75 C 81.00 363.16 87.99 381.32 97.81 398.75 C 107.63 416.17 119.58 437.28 138.30 454.70 C 157.01 472.13 174.53 482.43 199.25 481.60 C 223.97 480.78 234.23 463.36 257.00 446.00
C 277.33 469.12 297.28 483.47 323.77 481.21 C 350.26 478.95 368.83 460.52 387.90 438.90 C 406.97 417.29 414.41 399.56 424.61 378.75 C 434.80 357.95 439.73 334.29 445.93 310.08 C 452.14 285.88 448.44 247.78 444.19 224.25 C 439.94 200.73 422.69 179.10 402.77 165.58 C 382.85 152.05 353.87 150.75 328.08 154.94 C 302.29 159.12 283.95 180.94 271.00 203.00
C 264.83 204.13 261.44 197.41 255.75 197.61 C 250.07 197.80 247.18 204.09 241.00 203.00
M 271.00 272.00 
C 271.00 282.00 271.00 292.00 271.00 302.00
C 281.00 302.00 291.00 302.00 301.00 302.00
C 301.00 312.00 301.00 322.00 301.00 332.00
C 291.00 332.00 281.00 332.00 271.00 332.00
C 271.00 342.00 271.00 352.00 271.00 362.00
C 261.00 362.00 251.00 362.00 241.00 362.00
C 241.00 352.00 241.00 342.00 241.00 332.00
C 231.00 332.00 221.00 332.00 211.00 332.00
C 211.00 322.00 211.00 312.00 211.00 302.00
C 221.00 302.00 231.00 302.00 241.00 302.00
C 241.00 292.00 241.00 282.00 241.00 272.00
C 251.00 272.00 261.00 272.00 271.00 272.00 Z"/>
</g>
<g fill="None" fill-opacity="0.0" stroke="#000000" stroke-opacity="1.00" stroke-width="0.3"><path d="
M 271.00 272.00 
C 261.00 272.00 251.00 272.00 241.00 272.00
C 241.00 282.00 241.00 292.00 241.00 302.00
C 231.00 302.00 221.00 302.00 211.00 302.00
C 211.00 312.00 211.00 322.00 211.00 332.00
C 221.00 332.00 231.00 332.00 241.00 332.00
C 241.00 342.00 241.00 352.00 241.00 362.00
C 251.00 362.00 261.00 362.00 271.00 362.00
C 271.00 352.00 271.00 342.00 271.00 332.00
C 281.00 332.00 291.00 332.00 301.00 332.00
C 301.00 322.00 301.00 312.00 301.00 302.00
C 291.00 302.00 281.00 302.00 271.00 302.00
C 271.00 292.00 271.00 282.00 271.00 272.00 Z"/>
</g>
<g fill="None" fill-opacity="0.0" stroke="#000000" stroke-opacity="0.03" stroke-width="0.3"><path d="
M 207.00 512.00 
L 306.00 512.00
C 286.20 506.51 271.78 499.72 256.00 487.00
C 248.54 492.76 240.01 498.49 232.75 502.61 C 225.50 506.73 214.57 508.36 207.00 512.00 Z"/>
</g>
<g fill="#000000" fill-opacity="0.00" stroke="None">
<path d="
M 0.00 512.00 
L 184.00 512.00
C 156.28 505.20 141.87 498.20 119.25 476.75 C 96.63 455.30 82.21 434.08 71.81 413.75 C 61.41 393.41 52.34 375.46 45.79 349.77 C 39.24 324.08 32.80 301.43 32.00 272.00 C 31.21 242.56 38.97 213.39 46.19 193.75 C 53.41 174.11 77.24 147.36 97.30 137.29 C 117.36 127.22 143.47 120.45 173.69 122.35 C 203.92 124.25 218.55 135.06 241.00 154.00
C 241.45 140.72 242.38 131.28 245.00 120.00
C 218.13 115.77 194.28 105.08 174.43 81.23 C 154.57 57.38 151.52 37.67 151.00 0.00
L 0.00 0.00
L 0.00 512.00 Z"/>
</g>
<g fill="#000000" fill-opacity="0.98" stroke="None">
<path d="
M 184.00 512.00 
L 207.00 512.00
C 214.57 508.36 225.50 506.73 232.75 502.61 C 240.01 498.49 248.54 492.76 256.00 487.00
C 271.78 499.72 286.20 506.51 306.00 512.00
L 328.00 512.00
C 355.45 505.39 371.03 497.53 393.25 476.25 C 415.48 454.98 430.71 433.19 441.13 413.08 C 451.55 392.97 459.26 374.05 466.40 349.25 C 473.54 324.46 478.48 299.73 480.00 270.00 C 481.52 240.26 471.35 212.61 464.29 192.70 C 457.22 172.78 433.74 147.88 413.75 137.81 C 393.75 127.74 367.10 119.46 336.93 122.07 C 306.75 124.69 294.21 135.12 271.00 154.00
C 272.96 125.05 277.85 108.40 295.92 88.92 C 313.98 69.44 333.68 61.70 361.00 60.00
C 361.00 50.00 361.00 40.00 361.00 30.00
C 341.24 31.08 324.19 33.80 309.75 41.19 C 295.31 48.59 278.96 60.45 268.00 77.00
C 262.09 59.42 250.95 38.53 232.23 23.43 C 213.51 8.32 201.40 5.62 177.00 0.00
L 151.00 0.00
C 151.52 37.67 154.57 57.38 174.43 81.23 C 194.28 105.08 218.13 115.77 245.00 120.00
C 242.38 131.28 241.45 140.72 241.00 154.00
C 218.55 135.06 203.92 124.25 173.69 122.35 C 143.47 120.45 117.36 127.22 97.30 137.29 C 77.24 147.36 53.41 174.11 46.19 193.75 C 38.97 213.39 31.21 242.56 32.00 272.00 C 32.80 301.43 39.24 324.08 45.79 349.77 C 52.34 375.46 61.41 393.41 71.81 413.75 C 82.21 434.08 96.63 455.30 119.25 476.75 C 141.87 498.20 156.28 505.20 184.00 512.00
M 239.00 88.00 
C 213.45 83.78 187.32 57.10 183.00 32.00
C 207.87 36.39 234.64 62.37 239.00 88.00
M 241.00 203.00 
C 247.18 204.09 250.07 197.80 255.75 197.61 C 261.44 197.41 264.83 204.13 271.00 203.00
C 283.95 180.94 302.29 159.12 328.08 154.94 C 353.87 150.75 382.85 152.05 402.77 165.58 C 422.69 179.10 439.94 200.73 444.19 224.25 C 448.44 247.78 452.14 285.88 445.93 310.08 C 439.73 334.29 434.80 357.95 424.61 378.75 C 414.41 399.56 406.97 417.29 387.90 438.90 C 368.83 460.52 350.26 478.95 323.77 481.21 C 297.28 483.47 277.33 469.12 257.00 446.00
C 234.23 463.36 223.97 480.78 199.25 481.60 C 174.53 482.43 157.01 472.13 138.30 454.70 C 119.58 437.28 107.63 416.17 97.81 398.75 C 87.99 381.32 81.00 363.16 74.80 341.75 C 68.60 320.35 65.01 304.07 63.21 277.77 C 61.42 251.47 66.99 222.25 75.13 204.08 C 83.27 185.91 103.50 165.91 121.75 159.41 C 140.01 152.91 172.23 148.98 191.92 157.13 C 211.60 165.28 232.39 182.70 241.00 203.00 Z"/>
</g>
<g fill="#000000" fill-opacity="0.00" stroke="None">
<path d="
M 328.00 512.00 
L 512.00 512.00
L 512.00 0.00
L 177.00 0.00
C 201.40 5.62 213.51 8.32 232.23 23.43 C 250.95 38.53 262.09 59.42 268.00 77.00
C 278.96 60.45 295.31 48.59 309.75 41.19 C 324.19 33.80 341.24 31.08 361.00 30.00
C 361.00 40.00 361.00 50.00 361.00 60.00
C 333.68 61.70 313.98 69.44 295.92 88.92 C 277.85 108.40 272.96 125.05 271.00 154.00
C 294.21 135.12 306.75 124.69 336.93 122.07 C 367.10 119.46 393.75 127.74 413.75 137.81 C 433.74 147.88 457.22 172.78 464.29 192.70 C 471.35 212.61 481.52 240.26 480.00 270.00 C 478.48 299.73 473.54 324.46 466.40 349.25 C 459.26 374.05 451.55 392.97 441.13 413.08 C 430.71 433.19 415.48 454.98 393.25 476.25 C 371.03 497.53 355.45 505.39 328.00 512.00 Z"/>
</g>
<g fill="#000000" fill-opacity="0.04" stroke="None">
<path d="
M 239.00 88.00 
C 234.64 62.37 207.87 36.39 183.00 32.00
C 187.32 57.10 213.45 83.78 239.00 88.00 Z"/>
</g>
<g fill="#000000" fill-opacity="0.00" stroke="None">
<path d="
M 241.00 203.00 
C 232.39 182.70 211.60 165.28 191.92 157.13 C 172.23 148.98 140.01 152.91 121.75 159.41 C 103.50 165.91 83.27 185.91 75.13 204.08 C 66.99 222.25 61.42 251.47 63.21 277.77 C 65.01 304.07 68.60 320.35 74.80 341.75 C 81.00 363.16 87.99 381.32 97.81 398.75 C 107.63 416.17 119.58 437.28 138.30 454.70 C 157.01 472.13 174.53 482.43 199.25 481.60 C 223.97 480.78 234.23 463.36 257.00 446.00
C 277.33 469.12 297.28 483.47 323.77 481.21 C 350.26 478.95 368.83 460.52 387.90 438.90 C 406.97 417.29 414.41 399.56 424.61 378.75 C 434.80 357.95 439.73 334.29 445.93 310.08 C 452.14 285.88 448.44 247.78 444.19 224.25 C 439.94 200.73 422.69 179.10 402.77 165.58 C 382.85 152.05 353.87 150.75 328.08 154.94 C 302.29 159.12 283.95 180.94 271.00 203.00
C 264.83 204.13 261.44 197.41 255.75 197.61 C 250.07 197.80 247.18 204.09 241.00 203.00
M 271.00 272.00 
C 271.00 282.00 271.00 292.00 271.00 302.00
C 281.00 302.00 291.00 302.00 301.00 302.00
C 301.00 312.00 301.00 322.00 301.00 332.00
C 291.00 332.00 281.00 332.00 271.00 332.00
C 271.00 342.00 271.00 352.00 271.00 362.00
C 261.00 362.00 251.00 362.00 241.00 362.00
C 241.00 352.00 241.00 342.00 241.00 332.00
C 231.00 332.00 221.00 332.00 211.00 332.00
C 211.00 322.00 211.00 312.00 211.00 302.00
C 221.00 302.00 231.00 302.00 241.00 302.00
C 241.00 292.00 241.00 282.00 241.00 272.00
C 251.00 272.00 261.00 272.00 271.00 272.00 Z"/>
</g>
<g fill="#000000" fill-opacity="1.00" stroke="None">
<path d="
M 271.00 272.00 
C 261.00 272.00 251.00 272.00 241.00 272.00
C 241.00 282.00 241.00 292.00 241.00 302.00
C 231.00 302.00 221.00 302.00 211.00 302.00
C 211.00 312.00 211.00 322.00 211.00 332.00
C 221.00 332.00 231.00 332.00 241.00 332.00
C 241.00 342.00 241.00 352.00 241.00 362.00
C 251.00 362.00 261.00 362.00 271.00 362.00
C 271.00 352.00 271.00 342.00 271.00 332.00
C 281.00 332.00 291.00 332.00 301.00 332.00
C 301.00 322.00 301.00 312.00 301.00 302.00
C 291.00 302.00 281.00 302.00 271.00 302.00
C 271.00 292.00 271.00 282.00 271.00 272.00 Z"/>
</g>
<g fill="#000000" fill-opacity="0.03" stroke="None">
<path d="
M 207.00 512.00 
L 306.00 512.00
C 286.20 506.51 271.78 499.72 256.00 487.00
C 248.54 492.76 240.01 498.49 232.75 502.61 C 225.50 506.73 214.57 508.36 207.00 512.00 Z"/>
</g>
</svg>