<svg xmlns="http://www.w3.org/2000/svg" xmlns:v="https://svgstorm.com"
viewBox = "0 0 512 512"
width="512"
height="512">
<g fill="None" fill-opacity="0.0" stroke="#000000" stroke-opacity="0.00" stroke-width="0.3"><path d="
M 0.00 114.00 
C 3.61 88.46 38.55 96.39 62.00 96.00 C 85.45 95.61 118.95 89.82 119.93 115.08 C 120.92 140.34 87.62 137.43 64.00 136.00 C 40.38 134.57 5.06 144.30 0.00 119.00
L 0.00 194.00
C 6.93 167.16 37.28 177.31 66.00 176.00 C 94.72 174.69 133.37 176.98 163.00 176.00
C 165.00 155.20 179.27 130.78 200.70 115.70 C 222.14 100.63 236.21 95.45 269.00 96.00 C 301.79 96.55 344.22 90.60 364.92 106.13 C 385.61 121.66 396.27 143.55 392.00 176.00
C 430.15 174.84 450.19 179.42 473.30 197.70 C 496.40 215.98 507.09 237.67 512.00 263.00
L 512.00 0.00
L 0.00 0.00
L 0.00 114.00
M 95.00 16.00 
C 107.30 13.49 134.38 15.10 145.92 17.13 C 157.46 19.16 163.66 32.46 158.65 44.70 C 153.64 56.93 134.43 55.49 119.00 56.00 C 103.57 56.51 85.84 55.58 81.36 43.30 C 76.89 31.01 83.84 18.28 95.00 16.00 Z"/>
</g>
<g fill="None" fill-opacity="0.0" stroke="#000000" stroke-opacity="0.99" stroke-width="0.3"><path d="
M 95.00 16.00 
C 83.84 18.28 76.89 31.01 81.36 43.30 C 85.84 55.58 103.57 56.51 119.00 56.00 C 134.43 55.49 153.64 56.93 158.65 44.70 C 163.66 32.46 157.46 19.16 145.92 17.13 C 134.38 15.10 107.30 13.49 95.00 16.00 Z"/>
</g>
<g fill="None" fill-opacity="0.0" stroke="#000000" stroke-opacity="0.99" stroke-width="0.3"><path d="
M 0.00 114.00 
L 0.00 119.00
C 5.06 144.30 40.38 134.57 64.00 136.00 C 87.62 137.43 120.92 140.34 119.93 115.08 C 118.95 89.82 85.45 95.61 62.00 96.00 C 38.55 96.39 3.61 88.46 0.00 114.00 Z"/>
</g>
<g fill="None" fill-opacity="0.0" stroke="#000000" stroke-opacity="1.00" stroke-width="0.3"><path d="
M 0.00 194.00 
L 0.00 438.00
C 4.32 456.15 16.12 456.69 37.00 456.00 C 57.88 455.31 83.27 456.36 105.00 456.00 C 126.73 455.64 151.03 456.27 173.00 456.00
C 196.37 475.08 211.19 486.08 242.75 492.59 C 274.30 499.11 329.38 495.03 370.00 496.00 C 410.62 496.97 443.21 497.42 467.75 479.61 C 492.30 461.79 508.64 434.38 512.00 408.00
L 512.00 263.00
C 507.09 237.67 496.40 215.98 473.30 197.70 C 450.19 179.42 430.15 174.84 392.00 176.00
C 396.27 143.55 385.61 121.66 364.92 106.13 C 344.22 90.60 301.79 96.55 269.00 96.00 C 236.21 95.45 222.14 100.63 200.70 115.70 C 179.27 130.78 165.00 155.20 163.00 176.00
C 133.37 176.98 94.72 174.69 66.00 176.00 C 37.28 177.31 6.93 167.16 0.00 194.00
M 352.00 176.00 
C 334.54 178.68 304.75 171.85 291.25 177.40 C 277.76 182.95 276.15 201.04 286.75 210.25 C 297.35 219.46 323.11 215.15 342.00 216.00 C 360.89 216.85 392.58 214.78 411.00 216.00 C 429.42 217.22 434.53 218.54 447.25 227.19 C 459.97 235.84 463.35 244.03 468.19 256.25 C 473.04 268.47 472.01 289.88 472.00 309.00 C 471.99 328.12 471.70 358.57 472.00 378.00 C 472.30 397.43 471.67 411.34 465.81 423.25 C 459.95 435.17 449.96 443.89 438.75 449.19 C 427.53 454.49 415.24 457.05 396.00 456.00 C 376.76 454.95 346.20 456.73 327.00 456.00 C 307.80 455.27 278.71 457.13 263.25 455.40 C 247.78 453.66 242.23 451.01 229.75 446.81 C 217.28 442.60 212.55 435.31 200.00 428.00
C 200.30 398.65 199.60 364.91 200.00 336.00 C 200.40 307.09 199.22 271.30 200.00 244.00 C 200.78 216.70 196.83 189.98 204.19 172.75 C 211.56 155.52 222.33 147.55 238.75 139.74 C 255.18 131.92 287.34 139.45 313.00 136.00 C 338.66 132.55 360.75 144.54 352.00 176.00
M 80.00 216.00 
C 80.70 238.87 79.06 272.18 80.00 294.00 C 80.94 315.82 80.94 336.02 59.97 335.98 C 39.01 335.93 39.15 315.90 40.00 294.00 C 40.85 272.10 39.36 238.93 40.00 216.00
C 53.33 216.00 66.67 216.00 80.00 216.00
M 160.00 216.00 
C 160.00 282.67 160.00 349.33 160.00 416.00
C 120.00 416.00 80.00 416.00 40.00 416.00
C 40.00 401.33 40.00 386.67 40.00 372.00
C 69.25 380.60 99.31 372.64 113.13 344.08 C 126.95 315.52 116.97 256.12 120.00 216.00
C 133.33 216.00 146.67 216.00 160.00 216.00 Z"/>
</g>
<g fill="None" fill-opacity="0.0" stroke="#000000" stroke-opacity="0.00" stroke-width="0.3"><path d="
M 352.00 176.00 
C 360.75 144.54 338.66 132.55 313.00 136.00 C 287.34 139.45 255.18 131.92 238.75 139.74 C 222.33 147.55 211.56 155.52 204.19 172.75 C 196.83 189.98 200.78 216.70 200.00 244.00 C 199.22 271.30 200.40 307.09 200.00 336.00 C 199.60 364.91 200.30 398.65 200.00 428.00
C 212.55 435.31 217.28 442.60 229.75 446.81 C 242.23 451.01 247.78 453.66 263.25 455.40 C 278.71 457.13 307.80 455.27 327.00 456.00 C 346.20 456.73 376.76 454.95 396.00 456.00 C 415.24 457.05 427.53 454.49 438.75 449.19 C 449.96 443.89 459.95 435.17 465.81 423.25 C 471.67 411.34 472.30 397.43 472.00 378.00 C 471.70 358.57 471.99 328.12 472.00 309.00 C 472.01 289.88 473.04 268.47 468.19 256.25 C 463.35 244.03 459.97 235.84 447.25 227.19 C 434.53 218.54 429.42 217.22 411.00 216.00 C 392.58 214.78 360.89 216.85 342.00 216.00 C 323.11 215.15 297.35 219.46 286.75 210.25 C 276.15 201.04 277.76 182.95 291.25 177.40 C 304.75 171.85 334.54 178.68 352.00 176.00 Z"/>
</g>
<g fill="None" fill-opacity="0.0" stroke="#000000" stroke-opacity="0.00" stroke-width="0.3"><path d="
M 80.00 216.00 
C 66.67 216.00 53.33 216.00 40.00 216.00
C 39.36 238.93 40.85 272.10 40.00 294.00 C 39.15 315.90 39.01 335.93 59.97 335.98 C 80.94 336.02 80.94 315.82 80.00 294.00 C 79.06 272.18 80.70 238.87 80.00 216.00 Z"/>
</g>
<g fill="None" fill-opacity="0.0" stroke="#000000" stroke-opacity="0.00" stroke-width="0.3"><path d="
M 160.00 216.00 
C 146.67 216.00 133.33 216.00 120.00 216.00
C 116.97 256.12 126.95 315.52 113.13 344.08 C 99.31 372.64 69.25 380.60 40.00 372.00
C 40.00 386.67 40.00 401.33 40.00 416.00
C 80.00 416.00 120.00 416.00 160.00 416.00
C 160.00 349.33 160.00 282.67 160.00 216.00 Z"/>
</g>
<g fill="None" fill-opacity="0.0" stroke="#000000" stroke-opacity="0.00" stroke-width="0.3"><path d="
M 0.00 438.00 
L 0.00 512.00
L 512.00 512.00
L 512.00 408.00
C 508.64 434.38 492.30 461.79 467.75 479.61 C 443.21 497.42 410.62 496.97 370.00 496.00 C 329.38 495.03 274.30 499.11 242.75 492.59 C 211.19 486.08 196.37 475.08 173.00 456.00
C 151.03 456.27 126.73 455.64 105.00 456.00 C 83.27 456.36 57.88 455.31 37.00 456.00 C 16.12 456.69 4.32 456.15 0.00 438.00 Z"/>
</g>
<g fill="#000000" fill-opacity="0.00" stroke="None"><path d="
M 0.00 114.00 
C 3.61 88.46 38.55 96.39 62.00 96.00 C 85.45 95.61 118.95 89.82 119.93 115.08 C 120.92 140.34 87.62 137.43 64.00 136.00 C 40.38 134.57 5.06 144.30 0.00 119.00
L 0.00 194.00
C 6.93 167.16 37.28 177.31 66.00 176.00 C 94.72 174.69 133.37 176.98 163.00 176.00
C 165.00 155.20 179.27 130.78 200.70 115.70 C 222.14 100.63 236.21 95.45 269.00 96.00 C 301.79 96.55 344.22 90.60 364.92 106.13 C 385.61 121.66 396.27 143.55 392.00 176.00
C 430.15 174.84 450.19 179.42 473.30 197.70 C 496.40 215.98 507.09 237.67 512.00 263.00
L 512.00 0.00
L 0.00 0.00
L 0.00 114.00
M 95.00 16.00 
C 107.30 13.49 134.38 15.10 145.92 17.13 C 157.46 19.16 163.66 32.46 158.65 44.70 C 153.64 56.93 134.43 55.49 119.00 56.00 C 103.57 56.51 85.84 55.58 81.36 43.30 C 76.89 31.01 83.84 18.28 95.00 16.00 Z"/>
</g>
<g fill="#000000" fill-opacity="0.99" stroke="None"><path d="
M 95.00 16.00 
C 83.84 18.28 76.89 31.01 81.36 43.30 C 85.84 55.58 103.57 56.51 119.00 56.00 C 134.43 55.49 153.64 56.93 158.65 44.70 C 163.66 32.46 157.46 19.16 145.92 17.13 C 134.38 15.10 107.30 13.49 95.00 16.00 Z"/>
</g>
<g fill="#000000" fill-opacity="0.99" stroke="None"><path d="
M 0.00 114.00 
L 0.00 119.00
C 5.06 144.30 40.38 134.57 64.00 136.00 C 87.62 137.43 120.92 140.34 119.93 115.08 C 118.95 89.82 85.45 95.61 62.00 96.00 C 38.55 96.39 3.61 88.46 0.00 114.00 Z"/>
</g>
<g fill="#000000" fill-opacity="1.00" stroke="None"><path d="
M 0.00 194.00 
L 0.00 438.00
C 4.32 456.15 16.12 456.69 37.00 456.00 C 57.88 455.31 83.27 456.36 105.00 456.00 C 126.73 455.64 151.03 456.27 173.00 456.00
C 196.37 475.08 211.19 486.08 242.75 492.59 C 274.30 499.11 329.38 495.03 370.00 496.00 C 410.62 496.97 443.21 497.42 467.75 479.61 C 492.30 461.79 508.64 434.38 512.00 408.00
L 512.00 263.00
C 507.09 237.67 496.40 215.98 473.30 197.70 C 450.19 179.42 430.15 174.84 392.00 176.00
C 396.27 143.55 385.61 121.66 364.92 106.13 C 344.22 90.60 301.79 96.55 269.00 96.00 C 236.21 95.45 222.14 100.63 200.70 115.70 C 179.27 130.78 165.00 155.20 163.00 176.00
C 133.37 176.98 94.72 174.69 66.00 176.00 C 37.28 177.31 6.93 167.16 0.00 194.00
M 352.00 176.00 
C 334.54 178.68 304.75 171.85 291.25 177.40 C 277.76 182.95 276.15 201.04 286.75 210.25 C 297.35 219.46 323.11 215.15 342.00 216.00 C 360.89 216.85 392.58 214.78 411.00 216.00 C 429.42 217.22 434.53 218.54 447.25 227.19 C 459.97 235.84 463.35 244.03 468.19 256.25 C 473.04 268.47 472.01 289.88 472.00 309.00 C 471.99 328.12 471.70 358.57 472.00 378.00 C 472.30 397.43 471.67 411.34 465.81 423.25 C 459.95 435.17 449.96 443.89 438.75 449.19 C 427.53 454.49 415.24 457.05 396.00 456.00 C 376.76 454.95 346.20 456.73 327.00 456.00 C 307.80 455.27 278.71 457.13 263.25 455.40 C 247.78 453.66 242.23 451.01 229.75 446.81 C 217.28 442.60 212.55 435.31 200.00 428.00
C 200.30 398.65 199.60 364.91 200.00 336.00 C 200.40 307.09 199.22 271.30 200.00 244.00 C 200.78 216.70 196.83 189.98 204.19 172.75 C 211.56 155.52 222.33 147.55 238.75 139.74 C 255.18 131.92 287.34 139.45 313.00 136.00 C 338.66 132.55 360.75 144.54 352.00 176.00
M 80.00 216.00 
C 80.70 238.87 79.06 272.18 80.00 294.00 C 80.94 315.82 80.94 336.02 59.97 335.98 C 39.01 335.93 39.15 315.90 40.00 294.00 C 40.85 272.10 39.36 238.93 40.00 216.00
C 53.33 216.00 66.67 216.00 80.00 216.00
M 160.00 216.00 
C 160.00 282.67 160.00 349.33 160.00 416.00
C 120.00 416.00 80.00 416.00 40.00 416.00
C 40.00 401.33 40.00 386.67 40.00 372.00
C 69.25 380.60 99.31 372.64 113.13 344.08 C 126.95 315.52 116.97 256.12 120.00 216.00
C 133.33 216.00 146.67 216.00 160.00 216.00 Z"/>
</g>
<g fill="#000000" fill-opacity="0.00" stroke="None"><path d="
M 352.00 176.00 
C 360.75 144.54 338.66 132.55 313.00 136.00 C 287.34 139.45 255.18 131.92 238.75 139.74 C 222.33 147.55 211.56 155.52 204.19 172.75 C 196.83 189.98 200.78 216.70 200.00 244.00 C 199.22 271.30 200.40 307.09 200.00 336.00 C 199.60 364.91 200.30 398.65 200.00 428.00
C 212.55 435.31 217.28 442.60 229.75 446.81 C 242.23 451.01 247.78 453.66 263.25 455.40 C 278.71 457.13 307.80 455.27 327.00 456.00 C 346.20 456.73 376.76 454.95 396.00 456.00 C 415.24 457.05 427.53 454.49 438.75 449.19 C 449.96 443.89 459.95 435.17 465.81 423.25 C 471.67 411.34 472.30 397.43 472.00 378.00 C 471.70 358.57 471.99 328.12 472.00 309.00 C 472.01 289.88 473.04 268.47 468.19 256.25 C 463.35 244.03 459.97 235.84 447.25 227.19 C 434.53 218.54 429.42 217.22 411.00 216.00 C 392.58 214.78 360.89 216.85 342.00 216.00 C 323.11 215.15 297.35 219.46 286.75 210.25 C 276.15 201.04 277.76 182.95 291.25 177.40 C 304.75 171.85 334.54 178.68 352.00 176.00 Z"/>
</g>
<g fill="#000000" fill-opacity="0.00" stroke="None"><path d="
M 80.00 216.00 
C 66.67 216.00 53.33 216.00 40.00 216.00
C 39.36 238.93 40.85 272.10 40.00 294.00 C 39.15 315.90 39.01 335.93 59.97 335.98 C 80.94 336.02 80.94 315.82 80.00 294.00 C 79.06 272.18 80.70 238.87 80.00 216.00 Z"/>
</g>
<g fill="#000000" fill-opacity="0.00" stroke="None"><path d="
M 160.00 216.00 
C 146.67 216.00 133.33 216.00 120.00 216.00
C 116.97 256.12 126.95 315.52 113.13 344.08 C 99.31 372.64 69.25 380.60 40.00 372.00
C 40.00 386.67 40.00 401.33 40.00 416.00
C 80.00 416.00 120.00 416.00 160.00 416.00
C 160.00 349.33 160.00 282.67 160.00 216.00 Z"/>
</g>
<g fill="#000000" fill-opacity="0.00" stroke="None"><path d="
M 0.00 438.00 
L 0.00 512.00
L 512.00 512.00
L 512.00 408.00
C 508.64 434.38 492.30 461.79 467.75 479.61 C 443.21 497.42 410.62 496.97 370.00 496.00 C 329.38 495.03 274.30 499.11 242.75 492.59 C 211.19 486.08 196.37 475.08 173.00 456.00
C 151.03 456.27 126.73 455.64 105.00 456.00 C 83.27 456.36 57.88 455.31 37.00 456.00 C 16.12 456.69 4.32 456.15 0.00 438.00 Z"/>
</g>
</svg>