<svg xmlns="http://www.w3.org/2000/svg" xmlns:v="https://svgstorm.com"
viewBox = "0 0 512 512"
width="512"
height="512">
<g fill="None" fill-opacity="0.0" stroke="#000000" stroke-opacity="0.00" stroke-width="0.3"><path d="
M 0.00 512.00 
L 512.00 512.00
L 512.00 0.00
L 0.00 0.00
L 0.00 512.00
M 177.00 41.00 
C 189.43 38.68 214.05 39.74 225.25 42.19 C 236.46 44.64 242.14 56.06 243.40 66.75 C 244.66 77.44 244.90 93.44 249.19 101.25 C 253.48 109.07 252.62 126.82 249.61 134.75 C 246.59 142.68 238.87 154.55 229.70 160.71 C 220.53 166.88 213.03 169.87 199.98 169.98 C 186.92 170.09 178.55 167.00 169.25 160.74 C 159.95 154.47 153.77 143.86 150.20 134.75 C 146.63 125.64 146.34 107.94 150.71 99.70 C 155.09 91.46 154.11 76.52 155.80 65.75 C 157.49 54.98 165.42 43.16 177.00 41.00
M 322.00 63.00 
C 354.40 60.08 381.87 81.33 384.39 109.75 C 386.92 138.17 368.01 166.70 339.25 170.26 C 310.49 173.83 281.62 153.67 277.41 125.25 C 273.19 96.84 294.09 65.52 322.00 63.00
M 305.00 322.00 
C 331.31 313.17 357.47 330.49 354.22 353.22 C 350.97 375.95 347.53 392.47 343.74 413.75 C 339.96 435.02 342.38 455.37 322.75 467.19 C 303.12 479.02 276.79 461.84 279.00 440.00 C 281.21 418.16 284.49 401.39 288.00 380.00
C 274.03 378.40 261.12 377.43 247.00 375.00
C 241.79 392.80 231.69 412.22 225.61 429.75 C 219.53 447.29 207.97 475.18 180.75 467.80 C 153.53 460.43 159.06 431.42 166.64 411.30 C 174.22 391.17 179.34 369.07 186.59 348.25 C 193.84 327.43 198.76 306.25 206.80 286.75 C 214.84 267.25 221.47 248.22 229.00 228.00
C 213.13 227.79 192.38 228.29 177.00 228.00 C 161.62 227.72 148.26 230.57 138.75 223.81 C 129.24 217.05 126.04 207.31 127.40 197.25 C 128.75 187.19 134.01 181.79 143.75 177.61 C 153.50 173.42 173.22 175.09 188.00 175.00 C 202.78 174.91 224.76 174.78 240.00 175.00 C 255.24 175.22 278.56 174.18 292.67 175.33 C 306.78 176.48 308.97 177.41 318.25 184.19 C 327.53 190.97 330.30 199.24 332.80 208.25 C 335.30 217.25 332.54 229.17 329.81 237.25 C 327.08 245.34 324.21 257.90 321.94 266.08 C 319.67 274.27 315.83 283.30 313.41 292.75 C 310.99 302.21 308.62 311.82 305.00 322.00 Z"/>
</g>
<g fill="None" fill-opacity="0.0" stroke="#000000" stroke-opacity="0.97" stroke-width="0.3"><path d="
M 177.00 41.00 
C 165.42 43.16 157.49 54.98 155.80 65.75 C 154.11 76.52 155.09 91.46 150.71 99.70 C 146.34 107.94 146.63 125.64 150.20 134.75 C 153.77 143.86 159.95 154.47 169.25 160.74 C 178.55 167.00 186.92 170.09 199.98 169.98 C 213.03 169.87 220.53 166.88 229.70 160.71 C 238.87 154.55 246.59 142.68 249.61 134.75 C 252.62 126.82 253.48 109.07 249.19 101.25 C 244.90 93.44 244.66 77.44 243.40 66.75 C 242.14 56.06 236.46 44.64 225.25 42.19 C 214.05 39.74 189.43 38.68 177.00 41.00
M 221.00 57.00 
C 225.45 63.59 228.72 65.75 229.00 74.00
C 214.53 62.89 185.43 61.68 171.00 74.00
C 170.90 66.38 172.89 62.54 178.00 57.00
C 190.77 57.23 207.63 56.92 221.00 57.00
M 192.00 81.00 
C 218.92 75.51 243.22 103.15 234.94 129.08 C 226.65 155.02 194.18 161.65 174.25 142.75 C 154.32 123.85 164.71 86.57 192.00 81.00 Z"/>
</g>
<g fill="None" fill-opacity="0.0" stroke="#000000" stroke-opacity="0.05" stroke-width="0.3"><path d="
M 221.00 57.00 
C 207.63 56.92 190.77 57.23 178.00 57.00
C 172.89 62.54 170.90 66.38 171.00 74.00
C 185.43 61.68 214.53 62.89 229.00 74.00
C 228.72 65.75 225.45 63.59 221.00 57.00 Z"/>
</g>
<g fill="None" fill-opacity="0.0" stroke="#000000" stroke-opacity="0.97" stroke-width="0.3"><path d="
M 322.00 63.00 
C 294.09 65.52 273.19 96.84 277.41 125.25 C 281.62 153.67 310.49 173.83 339.25 170.26 C 368.01 166.70 386.92 138.17 384.39 109.75 C 381.87 81.33 354.40 60.08 322.00 63.00
M 323.00 79.00 
C 352.40 73.00 375.27 103.27 366.41 129.75 C 357.55 156.24 321.50 163.09 301.92 141.08 C 282.34 119.08 297.96 84.11 323.00 79.00 Z"/>
</g>
<g fill="None" fill-opacity="0.0" stroke="#000000" stroke-opacity="0.01" stroke-width="0.3"><path d="
M 323.00 79.00 
C 297.96 84.11 282.34 119.08 301.92 141.08 C 321.50 163.09 357.55 156.24 366.41 129.75 C 375.27 103.27 352.40 73.00 323.00 79.00 Z"/>
</g>
<g fill="None" fill-opacity="0.0" stroke="#000000" stroke-opacity="0.05" stroke-width="0.3"><path d="
M 192.00 81.00 
C 164.71 86.57 154.32 123.85 174.25 142.75 C 194.18 161.65 226.65 155.02 234.94 129.08 C 243.22 103.15 218.92 75.51 192.00 81.00
M 197.00 92.00 
C 216.15 90.52 229.34 110.67 221.87 127.92 C 214.41 145.16 191.19 146.72 179.43 132.23 C 167.67 117.74 178.97 93.40 197.00 92.00 Z"/>
</g>
<g fill="None" fill-opacity="0.0" stroke="#000000" stroke-opacity="0.97" stroke-width="0.3"><path d="
M 197.00 92.00 
C 178.97 93.40 167.67 117.74 179.43 132.23 C 191.19 146.72 214.41 145.16 221.87 127.92 C 229.34 110.67 216.15 90.52 197.00 92.00
M 198.00 108.00 
C 208.02 106.44 213.01 123.19 202.08 126.13 C 191.15 129.06 185.80 109.89 198.00 108.00 Z"/>
</g>
<g fill="None" fill-opacity="0.0" stroke="#000000" stroke-opacity="0.07" stroke-width="0.3"><path d="
M 198.00 108.00 
C 185.80 109.89 191.15 129.06 202.08 126.13 C 213.01 123.19 208.02 106.44 198.00 108.00 Z"/>
</g>
<g fill="None" fill-opacity="0.0" stroke="#000000" stroke-opacity="0.97" stroke-width="0.3"><path d="
M 305.00 322.00 
C 308.62 311.82 310.99 302.21 313.41 292.75 C 315.83 283.30 319.67 274.27 321.94 266.08 C 324.21 257.90 327.08 245.34 329.81 237.25 C 332.54 229.17 335.30 217.25 332.80 208.25 C 330.30 199.24 327.53 190.97 318.25 184.19 C 308.97 177.41 306.78 176.48 292.67 175.33 C 278.56 174.18 255.24 175.22 240.00 175.00 C 224.76 174.78 202.78 174.91 188.00 175.00 C 173.22 175.09 153.50 173.42 143.75 177.61 C 134.01 181.79 128.75 187.19 127.40 197.25 C 126.04 207.31 129.24 217.05 138.75 223.81 C 148.26 230.57 161.62 227.72 177.00 228.00 C 192.38 228.29 213.13 227.79 229.00 228.00
C 221.47 248.22 214.84 267.25 206.80 286.75 C 198.76 306.25 193.84 327.43 186.59 348.25 C 179.34 369.07 174.22 391.17 166.64 411.30 C 159.06 431.42 153.53 460.43 180.75 467.80 C 207.97 475.18 219.53 447.29 225.61 429.75 C 231.69 412.22 241.79 392.80 247.00 375.00
C 261.12 377.43 274.03 378.40 288.00 380.00
C 284.49 401.39 281.21 418.16 279.00 440.00 C 276.79 461.84 303.12 479.02 322.75 467.19 C 342.38 455.37 339.96 435.02 343.74 413.75 C 347.53 392.47 350.97 375.95 354.22 353.22 C 357.47 330.49 331.31 313.17 305.00 322.00
M 301.00 365.00 
C 282.53 365.56 262.29 358.79 244.25 358.41 C 226.21 358.03 207.81 337.58 212.60 318.25 C 217.39 298.92 225.06 286.23 230.40 268.25 C 235.74 250.28 245.27 238.10 249.00 218.00
C 240.00 208.12 216.50 214.25 202.00 213.00 C 187.50 211.75 161.07 214.48 150.30 211.36 C 139.52 208.25 139.56 190.99 154.08 191.07 C 168.61 191.14 193.83 190.79 210.00 191.00 C 226.17 191.21 249.85 190.61 266.00 191.00 C 282.15 191.39 296.97 189.03 306.25 195.19 C 315.54 201.35 319.66 214.50 316.94 225.08 C 314.21 235.66 310.23 245.10 307.24 255.25 C 304.26 265.39 303.05 275.46 299.65 285.70 C 296.24 295.94 294.29 304.87 290.29 314.30 C 286.29 323.74 284.81 339.03 300.00 338.00 C 315.19 336.97 335.07 334.71 337.80 346.25 C 340.53 357.79 333.61 367.45 333.20 378.25 C 332.79 389.04 329.74 398.24 328.40 408.75 C 327.05 419.27 324.69 428.62 323.80 439.25 C 322.91 449.88 312.57 458.06 302.23 453.42 C 291.89 448.79 294.77 436.49 296.64 426.30 C 298.52 416.12 300.08 406.58 301.40 396.25 C 302.72 385.93 309.24 374.61 301.00 365.00
M 232.00 372.00 
C 226.97 381.89 223.91 392.82 219.81 402.25 C 215.70 411.68 210.45 422.10 207.65 431.70 C 204.84 441.29 196.18 457.77 183.08 450.87 C 169.98 443.97 177.33 429.62 180.80 418.75 C 184.28 407.89 188.22 395.94 191.21 384.77 C 194.20 373.60 200.64 361.60 202.00 349.00
C 210.56 359.73 219.17 370.50 232.00 372.00 Z"/>
</g>
<g fill="None" fill-opacity="0.0" stroke="#000000" stroke-opacity="0.01" stroke-width="0.3"><path d="
M 301.00 365.00 
C 309.24 374.61 302.72 385.93 301.40 396.25 C 300.08 406.58 298.52 416.12 296.64 426.30 C 294.77 436.49 291.89 448.79 302.23 453.42 C 312.57 458.06 322.91 449.88 323.80 439.25 C 324.69 428.62 327.05 419.27 328.40 408.75 C 329.74 398.24 332.79 389.04 333.20 378.25 C 333.61 367.45 340.53 357.79 337.80 346.25 C 335.07 334.71 315.19 336.97 300.00 338.00 C 284.81 339.03 286.29 323.74 290.29 314.30 C 294.29 304.87 296.24 295.94 299.65 285.70 C 303.05 275.46 304.26 265.39 307.24 255.25 C 310.23 245.10 314.21 235.66 316.94 225.08 C 319.66 214.50 315.54 201.35 306.25 195.19 C 296.97 189.03 282.15 191.39 266.00 191.00 C 249.85 190.61 226.17 191.21 210.00 191.00 C 193.83 190.79 168.61 191.14 154.08 191.07 C 139.56 190.99 139.52 208.25 150.30 211.36 C 161.07 214.48 187.50 211.75 202.00 213.00 C 216.50 214.25 240.00 208.12 249.00 218.00
C 245.27 238.10 235.74 250.28 230.40 268.25 C 225.06 286.23 217.39 298.92 212.60 318.25 C 207.81 337.58 226.21 358.03 244.25 358.41 C 262.29 358.79 282.53 365.56 301.00 365.00 Z"/>
</g>
<g fill="None" fill-opacity="0.0" stroke="#000000" stroke-opacity="0.03" stroke-width="0.3"><path d="
M 232.00 372.00 
C 219.17 370.50 210.56 359.73 202.00 349.00
C 200.64 361.60 194.20 373.60 191.21 384.77 C 188.22 395.94 184.28 407.89 180.80 418.75 C 177.33 429.62 169.98 443.97 183.08 450.87 C 196.18 457.77 204.84 441.29 207.65 431.70 C 210.45 422.10 215.70 411.68 219.81 402.25 C 223.91 392.82 226.97 381.89 232.00 372.00 Z"/>
</g>
<g fill="#000000" fill-opacity="0.00" stroke="None"><path d="
M 0.00 512.00 
L 512.00 512.00
L 512.00 0.00
L 0.00 0.00
L 0.00 512.00
M 177.00 41.00 
C 189.43 38.68 214.05 39.74 225.25 42.19 C 236.46 44.64 242.14 56.06 243.40 66.75 C 244.66 77.44 244.90 93.44 249.19 101.25 C 253.48 109.07 252.62 126.82 249.61 134.75 C 246.59 142.68 238.87 154.55 229.70 160.71 C 220.53 166.88 213.03 169.87 199.98 169.98 C 186.92 170.09 178.55 167.00 169.25 160.74 C 159.95 154.47 153.77 143.86 150.20 134.75 C 146.63 125.64 146.34 107.94 150.71 99.70 C 155.09 91.46 154.11 76.52 155.80 65.75 C 157.49 54.98 165.42 43.16 177.00 41.00
M 322.00 63.00 
C 354.40 60.08 381.87 81.33 384.39 109.75 C 386.92 138.17 368.01 166.70 339.25 170.26 C 310.49 173.83 281.62 153.67 277.41 125.25 C 273.19 96.84 294.09 65.52 322.00 63.00
M 305.00 322.00 
C 331.31 313.17 357.47 330.49 354.22 353.22 C 350.97 375.95 347.53 392.47 343.74 413.75 C 339.96 435.02 342.38 455.37 322.75 467.19 C 303.12 479.02 276.79 461.84 279.00 440.00 C 281.21 418.16 284.49 401.39 288.00 380.00
C 274.03 378.40 261.12 377.43 247.00 375.00
C 241.79 392.80 231.69 412.22 225.61 429.75 C 219.53 447.29 207.97 475.18 180.75 467.80 C 153.53 460.43 159.06 431.42 166.64 411.30 C 174.22 391.17 179.34 369.07 186.59 348.25 C 193.84 327.43 198.76 306.25 206.80 286.75 C 214.84 267.25 221.47 248.22 229.00 228.00
C 213.13 227.79 192.38 228.29 177.00 228.00 C 161.62 227.72 148.26 230.57 138.75 223.81 C 129.24 217.05 126.04 207.31 127.40 197.25 C 128.75 187.19 134.01 181.79 143.75 177.61 C 153.50 173.42 173.22 175.09 188.00 175.00 C 202.78 174.91 224.76 174.78 240.00 175.00 C 255.24 175.22 278.56 174.18 292.67 175.33 C 306.78 176.48 308.97 177.41 318.25 184.19 C 327.53 190.97 330.30 199.24 332.80 208.25 C 335.30 217.25 332.54 229.17 329.81 237.25 C 327.08 245.34 324.21 257.90 321.94 266.08 C 319.67 274.27 315.83 283.30 313.41 292.75 C 310.99 302.21 308.62 311.82 305.00 322.00 Z"/>
</g>
<g fill="#000000" fill-opacity="0.97" stroke="None"><path d="
M 177.00 41.00 
C 165.42 43.16 157.49 54.98 155.80 65.75 C 154.11 76.52 155.09 91.46 150.71 99.70 C 146.34 107.94 146.63 125.64 150.20 134.75 C 153.77 143.86 159.95 154.47 169.25 160.74 C 178.55 167.00 186.92 170.09 199.98 169.98 C 213.03 169.87 220.53 166.88 229.70 160.71 C 238.87 154.55 246.59 142.68 249.61 134.75 C 252.62 126.82 253.48 109.07 249.19 101.25 C 244.90 93.44 244.66 77.44 243.40 66.75 C 242.14 56.06 236.46 44.64 225.25 42.19 C 214.05 39.74 189.43 38.68 177.00 41.00
M 221.00 57.00 
C 225.45 63.59 228.72 65.75 229.00 74.00
C 214.53 62.89 185.43 61.68 171.00 74.00
C 170.90 66.38 172.89 62.54 178.00 57.00
C 190.77 57.23 207.63 56.92 221.00 57.00
M 192.00 81.00 
C 218.92 75.51 243.22 103.15 234.94 129.08 C 226.65 155.02 194.18 161.65 174.25 142.75 C 154.32 123.85 164.71 86.57 192.00 81.00 Z"/>
</g>
<g fill="#000000" fill-opacity="0.05" stroke="None"><path d="
M 221.00 57.00 
C 207.63 56.92 190.77 57.23 178.00 57.00
C 172.89 62.54 170.90 66.38 171.00 74.00
C 185.43 61.68 214.53 62.89 229.00 74.00
C 228.72 65.75 225.45 63.59 221.00 57.00 Z"/>
</g>
<g fill="#000000" fill-opacity="0.97" stroke="None"><path d="
M 322.00 63.00 
C 294.09 65.52 273.19 96.84 277.41 125.25 C 281.62 153.67 310.49 173.83 339.25 170.26 C 368.01 166.70 386.92 138.17 384.39 109.75 C 381.87 81.33 354.40 60.08 322.00 63.00
M 323.00 79.00 
C 352.40 73.00 375.27 103.27 366.41 129.75 C 357.55 156.24 321.50 163.09 301.92 141.08 C 282.34 119.08 297.96 84.11 323.00 79.00 Z"/>
</g>
<g fill="#000000" fill-opacity="0.01" stroke="None"><path d="
M 323.00 79.00 
C 297.96 84.11 282.34 119.08 301.92 141.08 C 321.50 163.09 357.55 156.24 366.41 129.75 C 375.27 103.27 352.40 73.00 323.00 79.00 Z"/>
</g>
<g fill="#000000" fill-opacity="0.05" stroke="None"><path d="
M 192.00 81.00 
C 164.71 86.57 154.32 123.85 174.25 142.75 C 194.18 161.65 226.65 155.02 234.94 129.08 C 243.22 103.15 218.92 75.51 192.00 81.00
M 197.00 92.00 
C 216.15 90.52 229.34 110.67 221.87 127.92 C 214.41 145.16 191.19 146.72 179.43 132.23 C 167.67 117.74 178.97 93.40 197.00 92.00 Z"/>
</g>
<g fill="#000000" fill-opacity="0.97" stroke="None"><path d="
M 197.00 92.00 
C 178.97 93.40 167.67 117.74 179.43 132.23 C 191.19 146.72 214.41 145.16 221.87 127.92 C 229.34 110.67 216.15 90.52 197.00 92.00
M 198.00 108.00 
C 208.02 106.44 213.01 123.19 202.08 126.13 C 191.15 129.06 185.80 109.89 198.00 108.00 Z"/>
</g>
<g fill="#000000" fill-opacity="0.07" stroke="None"><path d="
M 198.00 108.00 
C 185.80 109.89 191.15 129.06 202.08 126.13 C 213.01 123.19 208.02 106.44 198.00 108.00 Z"/>
</g>
<g fill="#000000" fill-opacity="0.97" stroke="None"><path d="
M 305.00 322.00 
C 308.62 311.82 310.99 302.21 313.41 292.75 C 315.83 283.30 319.67 274.27 321.94 266.08 C 324.21 257.90 327.08 245.34 329.81 237.25 C 332.54 229.17 335.30 217.25 332.80 208.25 C 330.30 199.24 327.53 190.97 318.25 184.19 C 308.97 177.41 306.78 176.48 292.67 175.33 C 278.56 174.18 255.24 175.22 240.00 175.00 C 224.76 174.78 202.78 174.91 188.00 175.00 C 173.22 175.09 153.50 173.42 143.75 177.61 C 134.01 181.79 128.75 187.19 127.40 197.25 C 126.04 207.31 129.24 217.05 138.75 223.81 C 148.26 230.57 161.62 227.72 177.00 228.00 C 192.38 228.29 213.13 227.79 229.00 228.00
C 221.47 248.22 214.84 267.25 206.80 286.75 C 198.76 306.25 193.84 327.43 186.59 348.25 C 179.34 369.07 174.22 391.17 166.64 411.30 C 159.06 431.42 153.53 460.43 180.75 467.80 C 207.97 475.18 219.53 447.29 225.61 429.75 C 231.69 412.22 241.79 392.80 247.00 375.00
C 261.12 377.43 274.03 378.40 288.00 380.00
C 284.49 401.39 281.21 418.16 279.00 440.00 C 276.79 461.84 303.12 479.02 322.75 467.19 C 342.38 455.37 339.96 435.02 343.74 413.75 C 347.53 392.47 350.97 375.95 354.22 353.22 C 357.47 330.49 331.31 313.17 305.00 322.00
M 301.00 365.00 
C 282.53 365.56 262.29 358.79 244.25 358.41 C 226.21 358.03 207.81 337.58 212.60 318.25 C 217.39 298.92 225.06 286.23 230.40 268.25 C 235.74 250.28 245.27 238.10 249.00 218.00
C 240.00 208.12 216.50 214.25 202.00 213.00 C 187.50 211.75 161.07 214.48 150.30 211.36 C 139.52 208.25 139.56 190.99 154.08 191.07 C 168.61 191.14 193.83 190.79 210.00 191.00 C 226.17 191.21 249.85 190.61 266.00 191.00 C 282.15 191.39 296.97 189.03 306.25 195.19 C 315.54 201.35 319.66 214.50 316.94 225.08 C 314.21 235.66 310.23 245.10 307.24 255.25 C 304.26 265.39 303.05 275.46 299.65 285.70 C 296.24 295.94 294.29 304.87 290.29 314.30 C 286.29 323.74 284.81 339.03 300.00 338.00 C 315.19 336.97 335.07 334.71 337.80 346.25 C 340.53 357.79 333.61 367.45 333.20 378.25 C 332.79 389.04 329.74 398.24 328.40 408.75 C 327.05 419.27 324.69 428.62 323.80 439.25 C 322.91 449.88 312.57 458.06 302.23 453.42 C 291.89 448.79 294.77 436.49 296.64 426.30 C 298.52 416.12 300.08 406.58 301.40 396.25 C 302.72 385.93 309.24 374.61 301.00 365.00
M 232.00 372.00 
C 226.97 381.89 223.91 392.82 219.81 402.25 C 215.70 411.68 210.45 422.10 207.65 431.70 C 204.84 441.29 196.18 457.77 183.08 450.87 C 169.98 443.97 177.33 429.62 180.80 418.75 C 184.28 407.89 188.22 395.94 191.21 384.77 C 194.20 373.60 200.64 361.60 202.00 349.00
C 210.56 359.73 219.17 370.50 232.00 372.00 Z"/>
</g>
<g fill="#000000" fill-opacity="0.01" stroke="None"><path d="
M 301.00 365.00 
C 309.24 374.61 302.72 385.93 301.40 396.25 C 300.08 406.58 298.52 416.12 296.64 426.30 C 294.77 436.49 291.89 448.79 302.23 453.42 C 312.57 458.06 322.91 449.88 323.80 439.25 C 324.69 428.62 327.05 419.27 328.40 408.75 C 329.74 398.24 332.79 389.04 333.20 378.25 C 333.61 367.45 340.53 357.79 337.80 346.25 C 335.07 334.71 315.19 336.97 300.00 338.00 C 284.81 339.03 286.29 323.74 290.29 314.30 C 294.29 304.87 296.24 295.94 299.65 285.70 C 303.05 275.46 304.26 265.39 307.24 255.25 C 310.23 245.10 314.21 235.66 316.94 225.08 C 319.66 214.50 315.54 201.35 306.25 195.19 C 296.97 189.03 282.15 191.39 266.00 191.00 C 249.85 190.61 226.17 191.21 210.00 191.00 C 193.83 190.79 168.61 191.14 154.08 191.07 C 139.56 190.99 139.52 208.25 150.30 211.36 C 161.07 214.48 187.50 211.75 202.00 213.00 C 216.50 214.25 240.00 208.12 249.00 218.00
C 245.27 238.10 235.74 250.28 230.40 268.25 C 225.06 286.23 217.39 298.92 212.60 318.25 C 207.81 337.58 226.21 358.03 244.25 358.41 C 262.29 358.79 282.53 365.56 301.00 365.00 Z"/>
</g>
<g fill="#000000" fill-opacity="0.03" stroke="None"><path d="
M 232.00 372.00 
C 219.17 370.50 210.56 359.73 202.00 349.00
C 200.64 361.60 194.20 373.60 191.21 384.77 C 188.22 395.94 184.28 407.89 180.80 418.75 C 177.33 429.62 169.98 443.97 183.08 450.87 C 196.18 457.77 204.84 441.29 207.65 431.70 C 210.45 422.10 215.70 411.68 219.81 402.25 C 223.91 392.82 226.97 381.89 232.00 372.00 Z"/>
</g>
</svg>