<svg xmlns="http://www.w3.org/2000/svg" xmlns:v="https://svgstorm.com"
viewBox = "0 0 512 512"
width="512"
height="512">
<g fill="None" fill-opacity="0.0" stroke="#000000" stroke-opacity="0.00" stroke-width="0.3"><path d="
M 0.00 278.00 
C 5.70 263.78 20.24 267.13 36.00 267.00
C 35.30 249.60 55.01 244.85 72.75 249.59 C 90.50 254.32 86.33 276.84 86.00 296.00
C 94.33 296.00 102.67 296.00 111.00 296.00
C 107.41 288.88 103.53 282.65 99.74 276.25 C 95.94 269.85 92.72 264.44 89.81 257.75 C 86.91 251.06 83.50 244.55 80.74 237.25 C 77.97 229.94 76.43 222.44 74.80 214.75 C 73.17 207.07 71.07 200.37 70.22 190.78 C 69.37 181.18 70.99 166.14 72.92 157.92 C 74.85 149.69 74.82 142.34 78.39 135.25 C 81.96 128.16 84.19 122.51 88.32 115.32 C 92.45 108.13 97.67 102.50 105.25 95.25 C 112.83 88.00 119.52 80.11 126.30 76.30 C 133.09 72.49 140.48 68.60 147.30 65.29 C 154.13 61.97 163.32 61.31 171.25 59.20 C 179.18 57.09 193.10 56.83 202.22 57.22 C 211.35 57.61 217.52 58.83 226.25 61.20 C 234.97 63.56 241.55 66.09 248.25 69.19 C 254.96 72.29 262.27 77.94 268.70 82.30 C 275.14 86.66 284.72 97.86 289.00 104.00
C 298.00 96.16 308.98 84.65 318.25 78.81 C 327.53 72.98 335.13 67.75 345.75 64.61 C 356.38 61.47 365.45 57.78 377.75 57.40 C 390.05 57.01 405.39 57.60 416.75 60.39 C 428.12 63.18 437.70 67.68 446.25 72.75 C 454.81 77.81 465.28 83.42 475.00 93.00
C 473.91 112.16 458.91 99.21 450.75 92.81 C 442.58 86.41 434.95 81.91 425.70 78.29 C 416.44 74.66 406.84 73.40 394.31 72.35 C 381.78 71.31 368.49 73.17 358.25 76.26 C 348.00 79.36 340.15 82.15 331.25 87.39 C 322.35 92.64 313.28 101.59 304.23 112.23 C 295.18 122.87 282.94 118.96 274.30 108.70 C 265.66 98.45 255.17 90.81 247.08 85.87 C 238.99 80.94 229.70 78.25 220.25 75.40 C 210.79 72.55 195.53 71.58 183.26 72.40 C 170.99 73.23 162.36 76.46 153.08 80.13 C 143.80 83.80 136.38 87.38 127.30 94.30 C 118.22 101.22 107.12 113.42 101.76 121.77 C 96.41 130.12 93.61 137.97 89.88 147.90 C 86.16 157.83 85.42 172.54 85.07 185.07 C 84.72 197.60 88.58 207.23 90.58 216.77 C 92.58 226.31 96.66 237.10 100.71 245.30 C 104.76 253.49 107.60 261.34 112.39 269.75 C 117.19 278.17 125.08 286.35 129.00 296.00
C 152.54 295.95 177.15 296.07 200.00 296.00
C 204.29 300.79 204.52 305.91 200.00 311.00
C 162.83 310.97 123.86 311.02 86.00 311.00
C 86.00 321.67 86.00 332.33 86.00 343.00
C 142.00 343.00 198.00 343.00 254.00 343.00
C 254.00 332.33 254.00 321.67 254.00 311.00
C 244.76 311.19 234.53 310.73 226.00 311.00
C 221.55 306.01 221.64 300.87 226.00 296.00
C 234.47 296.48 244.76 295.66 254.00 296.00
C 254.01 277.11 249.52 253.53 267.08 249.94 C 284.64 246.35 306.08 248.14 304.00 267.00
C 324.84 266.07 341.60 265.57 342.00 288.00 C 342.39 310.43 341.04 340.29 342.00 363.00 C 342.96 385.71 325.84 391.11 304.00 387.00
C 307.00 405.30 282.97 408.79 266.25 404.41 C 249.54 400.02 251.98 375.27 254.00 357.00
C 230.67 357.00 207.33 357.00 184.00 357.00
C 194.51 367.80 206.89 380.02 217.90 389.10 C 228.91 398.18 240.45 407.93 251.92 416.13 C 263.39 424.33 272.17 432.92 284.25 439.19 C 296.34 445.45 308.34 431.32 318.75 424.61 C 329.17 417.90 339.42 406.90 350.92 398.91 C 362.41 390.93 373.46 378.58 385.30 368.30 C 397.15 358.03 410.16 346.09 420.23 334.23 C 430.30 322.37 443.38 308.05 450.70 297.70 C 458.03 287.36 464.04 276.83 470.13 267.08 C 476.21 257.33 480.38 246.77 485.26 235.25 C 490.14 223.73 492.17 212.84 494.40 199.25 C 496.62 185.66 496.29 168.67 493.07 154.92 C 489.84 141.16 483.36 133.60 481.00 120.00
C 498.36 110.65 501.55 132.78 506.71 146.30 C 511.86 159.82 511.22 184.04 509.81 199.25 C 508.39 214.46 503.12 229.37 497.87 242.92 C 492.62 256.47 486.95 268.03 478.87 280.92 C 470.79 293.81 462.44 307.34 451.09 321.10 C 439.75 334.86 425.50 350.50 411.25 365.25 C 397.00 379.99 381.53 392.84 368.75 403.19 C 355.97 413.55 340.93 427.78 328.30 435.30 C 315.66 442.82 303.03 461.03 285.75 456.80 C 268.48 452.58 260.01 439.52 245.75 430.81 C 231.49 422.10 219.38 408.41 205.30 397.70 C 191.21 387.00 177.54 372.50 163.00 357.00
C 137.92 358.66 111.05 358.67 86.00 357.00
C 85.58 374.81 91.31 399.15 73.92 404.92 C 56.52 410.69 35.46 404.26 36.00 387.00
C 21.16 389.49 4.78 389.09 0.00 376.00
L 0.00 512.00
L 512.00 512.00
L 512.00 0.00
L 0.00 0.00
L 0.00 278.00
M 268.00 183.00 
C 282.11 183.51 300.30 182.32 314.00 183.00 C 327.70 183.68 342.47 178.02 342.00 193.00
C 338.84 192.97 338.09 196.68 336.00 198.00
C 316.42 197.78 294.91 194.86 275.00 197.00 C 255.09 199.14 253.23 190.54 251.00 175.00
C 246.15 184.00 244.42 195.31 240.74 204.75 C 237.05 214.20 236.36 224.96 231.88 233.90 C 227.41 242.84 230.15 256.22 220.75 261.19 C 211.34 266.15 207.21 249.39 205.09 240.90 C 202.98 232.41 199.48 220.50 196.29 211.70 C 193.09 202.90 191.37 190.88 188.00 182.00
C 175.44 180.74 155.85 183.68 144.00 182.00 C 132.15 180.32 114.31 187.76 112.61 176.25 C 110.90 164.73 125.74 167.55 138.00 167.00 C 150.26 166.45 170.06 168.51 183.00 167.00 C 195.94 165.49 202.07 171.12 203.31 180.70 C 204.55 190.27 208.62 195.28 210.77 204.23 C 212.92 213.18 215.21 219.09 217.00 229.00
C 223.33 214.72 226.59 199.22 231.91 184.90 C 237.22 170.58 237.54 155.10 247.00 141.00
C 258.46 140.02 257.55 149.96 260.06 158.08 C 262.58 166.20 266.62 173.58 268.00 183.00 Z"/>
</g>
<g fill="None" fill-opacity="0.0" stroke="#000000" stroke-opacity="0.96" stroke-width="0.3"><path d="
M 0.00 278.00 
L 0.00 376.00
C 4.78 389.09 21.16 389.49 36.00 387.00
C 35.46 404.26 56.52 410.69 73.92 404.92 C 91.31 399.15 85.58 374.81 86.00 357.00
C 111.05 358.67 137.92 358.66 163.00 357.00
C 177.54 372.50 191.21 387.00 205.30 397.70 C 219.38 408.41 231.49 422.10 245.75 430.81 C 260.01 439.52 268.48 452.58 285.75 456.80 C 303.03 461.03 315.66 442.82 328.30 435.30 C 340.93 427.78 355.97 413.55 368.75 403.19 C 381.53 392.84 397.00 379.99 411.25 365.25 C 425.50 350.50 439.75 334.86 451.09 321.10 C 462.44 307.34 470.79 293.81 478.87 280.92 C 486.95 268.03 492.62 256.47 497.87 242.92 C 503.12 229.37 508.39 214.46 509.81 199.25 C 511.22 184.04 511.86 159.82 506.71 146.30 C 501.55 132.78 498.36 110.65 481.00 120.00
C 483.36 133.60 489.84 141.16 493.07 154.92 C 496.29 168.67 496.62 185.66 494.40 199.25 C 492.17 212.84 490.14 223.73 485.26 235.25 C 480.38 246.77 476.21 257.33 470.13 267.08 C 464.04 276.83 458.03 287.36 450.70 297.70 C 443.38 308.05 430.30 322.37 420.23 334.23 C 410.16 346.09 397.15 358.03 385.30 368.30 C 373.46 378.58 362.41 390.93 350.92 398.91 C 339.42 406.90 329.17 417.90 318.75 424.61 C 308.34 431.32 296.34 445.45 284.25 439.19 C 272.17 432.92 263.39 424.33 251.92 416.13 C 240.45 407.93 228.91 398.18 217.90 389.10 C 206.89 380.02 194.51 367.80 184.00 357.00
C 207.33 357.00 230.67 357.00 254.00 357.00
C 251.98 375.27 249.54 400.02 266.25 404.41 C 282.97 408.79 307.00 405.30 304.00 387.00
C 325.84 391.11 342.96 385.71 342.00 363.00 C 341.04 340.29 342.39 310.43 342.00 288.00 C 341.60 265.57 324.84 266.07 304.00 267.00
C 306.08 248.14 284.64 246.35 267.08 249.94 C 249.52 253.53 254.01 277.11 254.00 296.00
C 244.76 295.66 234.47 296.48 226.00 296.00
C 221.64 300.87 221.55 306.01 226.00 311.00
C 234.53 310.73 244.76 311.19 254.00 311.00
C 254.00 321.67 254.00 332.33 254.00 343.00
C 198.00 343.00 142.00 343.00 86.00 343.00
C 86.00 332.33 86.00 321.67 86.00 311.00
C 123.86 311.02 162.83 310.97 200.00 311.00
C 204.52 305.91 204.29 300.79 200.00 296.00
C 177.15 296.07 152.54 295.95 129.00 296.00
C 125.08 286.35 117.19 278.17 112.39 269.75 C 107.60 261.34 104.76 253.49 100.71 245.30 C 96.66 237.10 92.58 226.31 90.58 216.77 C 88.58 207.23 84.72 197.60 85.07 185.07 C 85.42 172.54 86.16 157.83 89.88 147.90 C 93.61 137.97 96.41 130.12 101.76 121.77 C 107.12 113.42 118.22 101.22 127.30 94.30 C 136.38 87.38 143.80 83.80 153.08 80.13 C 162.36 76.46 170.99 73.23 183.26 72.40 C 195.53 71.58 210.79 72.55 220.25 75.40 C 229.70 78.25 238.99 80.94 247.08 85.87 C 255.17 90.81 265.66 98.45 274.30 108.70 C 282.94 118.96 295.18 122.87 304.23 112.23 C 313.28 101.59 322.35 92.64 331.25 87.39 C 340.15 82.15 348.00 79.36 358.25 76.26 C 368.49 73.17 381.78 71.31 394.31 72.35 C 406.84 73.40 416.44 74.66 425.70 78.29 C 434.95 81.91 442.58 86.41 450.75 92.81 C 458.91 99.21 473.91 112.16 475.00 93.00
C 465.28 83.42 454.81 77.81 446.25 72.75 C 437.70 67.68 428.12 63.18 416.75 60.39 C 405.39 57.60 390.05 57.01 377.75 57.40 C 365.45 57.78 356.38 61.47 345.75 64.61 C 335.13 67.75 327.53 72.98 318.25 78.81 C 308.98 84.65 298.00 96.16 289.00 104.00
C 284.72 97.86 275.14 86.66 268.70 82.30 C 262.27 77.94 254.96 72.29 248.25 69.19 C 241.55 66.09 234.97 63.56 226.25 61.20 C 217.52 58.83 211.35 57.61 202.22 57.22 C 193.10 56.83 179.18 57.09 171.25 59.20 C 163.32 61.31 154.13 61.97 147.30 65.29 C 140.48 68.60 133.09 72.49 126.30 76.30 C 119.52 80.11 112.83 88.00 105.25 95.25 C 97.67 102.50 92.45 108.13 88.32 115.32 C 84.19 122.51 81.96 128.16 78.39 135.25 C 74.82 142.34 74.85 149.69 72.92 157.92 C 70.99 166.14 69.37 181.18 70.22 190.78 C 71.07 200.37 73.17 207.07 74.80 214.75 C 76.43 222.44 77.97 229.94 80.74 237.25 C 83.50 244.55 86.91 251.06 89.81 257.75 C 92.72 264.44 95.94 269.85 99.74 276.25 C 103.53 282.65 107.41 288.88 111.00 296.00
C 102.67 296.00 94.33 296.00 86.00 296.00
C 86.33 276.84 90.50 254.32 72.75 249.59 C 55.01 244.85 35.30 249.60 36.00 267.00
C 20.24 267.13 5.70 263.78 0.00 278.00
M 72.00 265.00 
C 70.33 305.74 70.33 348.28 72.00 389.00
C 66.40 392.12 55.62 392.14 50.00 389.00
C 51.72 377.90 51.13 364.39 51.00 353.00 C 50.87 341.61 53.16 328.99 47.00 321.00
C 41.90 321.24 38.74 321.63 35.00 325.00
C 36.24 331.41 36.52 339.60 36.00 347.00 C 35.48 354.41 38.02 365.98 34.00 371.00
C 30.22 375.04 19.82 372.83 14.00 372.00
C 14.01 342.98 14.01 311.00 14.00 282.00
C 20.60 281.42 27.83 283.21 34.00 281.00
C 36.90 286.57 32.66 296.12 39.00 301.00
C 56.26 303.70 50.86 277.71 50.00 265.00
C 55.60 261.88 66.38 261.86 72.00 265.00
M 290.00 264.00 
C 288.34 305.42 288.34 348.58 290.00 390.00
C 284.69 390.65 273.60 392.89 268.00 389.00
C 269.67 348.26 269.67 305.72 268.00 265.00
C 274.39 261.09 284.55 263.38 290.00 264.00
M 325.00 373.00 
C 319.21 371.36 311.77 371.37 306.00 373.00
C 301.35 360.29 305.45 346.74 304.00 333.00 C 302.55 319.26 306.10 304.98 304.00 291.00 C 301.90 277.02 328.12 276.10 327.00 290.00 C 325.88 303.90 327.95 318.20 327.00 332.00 C 326.05 345.80 329.28 360.19 325.00 373.00 Z"/>
</g>
<g fill="None" fill-opacity="0.0" stroke="#000000" stroke-opacity="0.97" stroke-width="0.3"><path d="
M 268.00 183.00 
C 266.62 173.58 262.58 166.20 260.06 158.08 C 257.55 149.96 258.46 140.02 247.00 141.00
C 237.54 155.10 237.22 170.58 231.91 184.90 C 226.59 199.22 223.33 214.72 217.00 229.00
C 215.21 219.09 212.92 213.18 210.77 204.23 C 208.62 195.28 204.55 190.27 203.31 180.70 C 202.07 171.12 195.94 165.49 183.00 167.00 C 170.06 168.51 150.26 166.45 138.00 167.00 C 125.74 167.55 110.90 164.73 112.61 176.25 C 114.31 187.76 132.15 180.32 144.00 182.00 C 155.85 183.68 175.44 180.74 188.00 182.00
C 191.37 190.88 193.09 202.90 196.29 211.70 C 199.48 220.50 202.98 232.41 205.09 240.90 C 207.21 249.39 211.34 266.15 220.75 261.19 C 230.15 256.22 227.41 242.84 231.88 233.90 C 236.36 224.96 237.05 214.20 240.74 204.75 C 244.42 195.31 246.15 184.00 251.00 175.00
C 253.23 190.54 255.09 199.14 275.00 197.00 C 294.91 194.86 316.42 197.78 336.00 198.00
C 338.09 196.68 338.84 192.97 342.00 193.00
C 342.47 178.02 327.70 183.68 314.00 183.00 C 300.30 182.32 282.11 183.51 268.00 183.00 Z"/>
</g>
<g fill="None" fill-opacity="0.0" stroke="#000000" stroke-opacity="0.02" stroke-width="0.3"><path d="
M 72.00 265.00 
C 66.38 261.86 55.60 261.88 50.00 265.00
C 50.86 277.71 56.26 303.70 39.00 301.00
C 32.66 296.12 36.90 286.57 34.00 281.00
C 27.83 283.21 20.60 281.42 14.00 282.00
C 14.01 311.00 14.01 342.98 14.00 372.00
C 19.82 372.83 30.22 375.04 34.00 371.00
C 38.02 365.98 35.48 354.41 36.00 347.00 C 36.52 339.60 36.24 331.41 35.00 325.00
C 38.74 321.63 41.90 321.24 47.00 321.00
C 53.16 328.99 50.87 341.61 51.00 353.00 C 51.13 364.39 51.72 377.90 50.00 389.00
C 55.62 392.14 66.40 392.12 72.00 389.00
C 70.33 348.28 70.33 305.74 72.00 265.00 Z"/>
</g>
<g fill="None" fill-opacity="0.0" stroke="#000000" stroke-opacity="0.01" stroke-width="0.3"><path d="
M 290.00 264.00 
C 284.55 263.38 274.39 261.09 268.00 265.00
C 269.67 305.72 269.67 348.26 268.00 389.00
C 273.60 392.89 284.69 390.65 290.00 390.00
C 288.34 348.58 288.34 305.42 290.00 264.00 Z"/>
</g>
<g fill="None" fill-opacity="0.0" stroke="#000000" stroke-opacity="0.08" stroke-width="0.3"><path d="
M 325.00 373.00 
C 329.28 360.19 326.05 345.80 327.00 332.00 C 327.95 318.20 325.88 303.90 327.00 290.00 C 328.12 276.10 301.90 277.02 304.00 291.00 C 306.10 304.98 302.55 319.26 304.00 333.00 C 305.45 346.74 301.35 360.29 306.00 373.00
C 311.77 371.37 319.21 371.36 325.00 373.00 Z"/>
</g>
<g fill="#000000" fill-opacity="0.00" stroke="None"><path d="
M 0.00 278.00 
C 5.70 263.78 20.24 267.13 36.00 267.00
C 35.30 249.60 55.01 244.85 72.75 249.59 C 90.50 254.32 86.33 276.84 86.00 296.00
C 94.33 296.00 102.67 296.00 111.00 296.00
C 107.41 288.88 103.53 282.65 99.74 276.25 C 95.94 269.85 92.72 264.44 89.81 257.75 C 86.91 251.06 83.50 244.55 80.74 237.25 C 77.97 229.94 76.43 222.44 74.80 214.75 C 73.17 207.07 71.07 200.37 70.22 190.78 C 69.37 181.18 70.99 166.14 72.92 157.92 C 74.85 149.69 74.82 142.34 78.39 135.25 C 81.96 128.16 84.19 122.51 88.32 115.32 C 92.45 108.13 97.67 102.50 105.25 95.25 C 112.83 88.00 119.52 80.11 126.30 76.30 C 133.09 72.49 140.48 68.60 147.30 65.29 C 154.13 61.97 163.32 61.31 171.25 59.20 C 179.18 57.09 193.10 56.83 202.22 57.22 C 211.35 57.61 217.52 58.83 226.25 61.20 C 234.97 63.56 241.55 66.09 248.25 69.19 C 254.96 72.29 262.27 77.94 268.70 82.30 C 275.14 86.66 284.72 97.86 289.00 104.00
C 298.00 96.16 308.98 84.65 318.25 78.81 C 327.53 72.98 335.13 67.75 345.75 64.61 C 356.38 61.47 365.45 57.78 377.75 57.40 C 390.05 57.01 405.39 57.60 416.75 60.39 C 428.12 63.18 437.70 67.68 446.25 72.75 C 454.81 77.81 465.28 83.42 475.00 93.00
C 473.91 112.16 458.91 99.21 450.75 92.81 C 442.58 86.41 434.95 81.91 425.70 78.29 C 416.44 74.66 406.84 73.40 394.31 72.35 C 381.78 71.31 368.49 73.17 358.25 76.26 C 348.00 79.36 340.15 82.15 331.25 87.39 C 322.35 92.64 313.28 101.59 304.23 112.23 C 295.18 122.87 282.94 118.96 274.30 108.70 C 265.66 98.45 255.17 90.81 247.08 85.87 C 238.99 80.94 229.70 78.25 220.25 75.40 C 210.79 72.55 195.53 71.58 183.26 72.40 C 170.99 73.23 162.36 76.46 153.08 80.13 C 143.80 83.80 136.38 87.38 127.30 94.30 C 118.22 101.22 107.12 113.42 101.76 121.77 C 96.41 130.12 93.61 137.97 89.88 147.90 C 86.16 157.83 85.42 172.54 85.07 185.07 C 84.72 197.60 88.58 207.23 90.58 216.77 C 92.58 226.31 96.66 237.10 100.71 245.30 C 104.76 253.49 107.60 261.34 112.39 269.75 C 117.19 278.17 125.08 286.35 129.00 296.00
C 152.54 295.95 177.15 296.07 200.00 296.00
C 204.29 300.79 204.52 305.91 200.00 311.00
C 162.83 310.97 123.86 311.02 86.00 311.00
C 86.00 321.67 86.00 332.33 86.00 343.00
C 142.00 343.00 198.00 343.00 254.00 343.00
C 254.00 332.33 254.00 321.67 254.00 311.00
C 244.76 311.19 234.53 310.73 226.00 311.00
C 221.55 306.01 221.64 300.87 226.00 296.00
C 234.47 296.48 244.76 295.66 254.00 296.00
C 254.01 277.11 249.52 253.53 267.08 249.94 C 284.64 246.35 306.08 248.14 304.00 267.00
C 324.84 266.07 341.60 265.57 342.00 288.00 C 342.39 310.43 341.04 340.29 342.00 363.00 C 342.96 385.71 325.84 391.11 304.00 387.00
C 307.00 405.30 282.97 408.79 266.25 404.41 C 249.54 400.02 251.98 375.27 254.00 357.00
C 230.67 357.00 207.33 357.00 184.00 357.00
C 194.51 367.80 206.89 380.02 217.90 389.10 C 228.91 398.18 240.45 407.93 251.92 416.13 C 263.39 424.33 272.17 432.92 284.25 439.19 C 296.34 445.45 308.34 431.32 318.75 424.61 C 329.17 417.90 339.42 406.90 350.92 398.91 C 362.41 390.93 373.46 378.58 385.30 368.30 C 397.15 358.03 410.16 346.09 420.23 334.23 C 430.30 322.37 443.38 308.05 450.70 297.70 C 458.03 287.36 464.04 276.83 470.13 267.08 C 476.21 257.33 480.38 246.77 485.26 235.25 C 490.14 223.73 492.17 212.84 494.40 199.25 C 496.62 185.66 496.29 168.67 493.07 154.92 C 489.84 141.16 483.36 133.60 481.00 120.00
C 498.36 110.65 501.55 132.78 506.71 146.30 C 511.86 159.82 511.22 184.04 509.81 199.25 C 508.39 214.46 503.12 229.37 497.87 242.92 C 492.62 256.47 486.95 268.03 478.87 280.92 C 470.79 293.81 462.44 307.34 451.09 321.10 C 439.75 334.86 425.50 350.50 411.25 365.25 C 397.00 379.99 381.53 392.84 368.75 403.19 C 355.97 413.55 340.93 427.78 328.30 435.30 C 315.66 442.82 303.03 461.03 285.75 456.80 C 268.48 452.58 260.01 439.52 245.75 430.81 C 231.49 422.10 219.38 408.41 205.30 397.70 C 191.21 387.00 177.54 372.50 163.00 357.00
C 137.92 358.66 111.05 358.67 86.00 357.00
C 85.58 374.81 91.31 399.15 73.92 404.92 C 56.52 410.69 35.46 404.26 36.00 387.00
C 21.16 389.49 4.78 389.09 0.00 376.00
L 0.00 512.00
L 512.00 512.00
L 512.00 0.00
L 0.00 0.00
L 0.00 278.00
M 268.00 183.00 
C 282.11 183.51 300.30 182.32 314.00 183.00 C 327.70 183.68 342.47 178.02 342.00 193.00
C 338.84 192.97 338.09 196.68 336.00 198.00
C 316.42 197.78 294.91 194.86 275.00 197.00 C 255.09 199.14 253.23 190.54 251.00 175.00
C 246.15 184.00 244.42 195.31 240.74 204.75 C 237.05 214.20 236.36 224.96 231.88 233.90 C 227.41 242.84 230.15 256.22 220.75 261.19 C 211.34 266.15 207.21 249.39 205.09 240.90 C 202.98 232.41 199.48 220.50 196.29 211.70 C 193.09 202.90 191.37 190.88 188.00 182.00
C 175.44 180.74 155.85 183.68 144.00 182.00 C 132.15 180.32 114.31 187.76 112.61 176.25 C 110.90 164.73 125.74 167.55 138.00 167.00 C 150.26 166.45 170.06 168.51 183.00 167.00 C 195.94 165.49 202.07 171.12 203.31 180.70 C 204.55 190.27 208.62 195.28 210.77 204.23 C 212.92 213.18 215.21 219.09 217.00 229.00
C 223.33 214.72 226.59 199.22 231.91 184.90 C 237.22 170.58 237.54 155.10 247.00 141.00
C 258.46 140.02 257.55 149.96 260.06 158.08 C 262.58 166.20 266.62 173.58 268.00 183.00 Z"/>
</g>
<g fill="#000000" fill-opacity="0.96" stroke="None"><path d="
M 0.00 278.00 
L 0.00 376.00
C 4.78 389.09 21.16 389.49 36.00 387.00
C 35.46 404.26 56.52 410.69 73.92 404.92 C 91.31 399.15 85.58 374.81 86.00 357.00
C 111.05 358.67 137.92 358.66 163.00 357.00
C 177.54 372.50 191.21 387.00 205.30 397.70 C 219.38 408.41 231.49 422.10 245.75 430.81 C 260.01 439.52 268.48 452.58 285.75 456.80 C 303.03 461.03 315.66 442.82 328.30 435.30 C 340.93 427.78 355.97 413.55 368.75 403.19 C 381.53 392.84 397.00 379.99 411.25 365.25 C 425.50 350.50 439.75 334.86 451.09 321.10 C 462.44 307.34 470.79 293.81 478.87 280.92 C 486.95 268.03 492.62 256.47 497.87 242.92 C 503.12 229.37 508.39 214.46 509.81 199.25 C 511.22 184.04 511.86 159.82 506.71 146.30 C 501.55 132.78 498.36 110.65 481.00 120.00
C 483.36 133.60 489.84 141.16 493.07 154.92 C 496.29 168.67 496.62 185.66 494.40 199.25 C 492.17 212.84 490.14 223.73 485.26 235.25 C 480.38 246.77 476.21 257.33 470.13 267.08 C 464.04 276.83 458.03 287.36 450.70 297.70 C 443.38 308.05 430.30 322.37 420.23 334.23 C 410.16 346.09 397.15 358.03 385.30 368.30 C 373.46 378.58 362.41 390.93 350.92 398.91 C 339.42 406.90 329.17 417.90 318.75 424.61 C 308.34 431.32 296.34 445.45 284.25 439.19 C 272.17 432.92 263.39 424.33 251.92 416.13 C 240.45 407.93 228.91 398.18 217.90 389.10 C 206.89 380.02 194.51 367.80 184.00 357.00
C 207.33 357.00 230.67 357.00 254.00 357.00
C 251.98 375.27 249.54 400.02 266.25 404.41 C 282.97 408.79 307.00 405.30 304.00 387.00
C 325.84 391.11 342.96 385.71 342.00 363.00 C 341.04 340.29 342.39 310.43 342.00 288.00 C 341.60 265.57 324.84 266.07 304.00 267.00
C 306.08 248.14 284.64 246.35 267.08 249.94 C 249.52 253.53 254.01 277.11 254.00 296.00
C 244.76 295.66 234.47 296.48 226.00 296.00
C 221.64 300.87 221.55 306.01 226.00 311.00
C 234.53 310.73 244.76 311.19 254.00 311.00
C 254.00 321.67 254.00 332.33 254.00 343.00
C 198.00 343.00 142.00 343.00 86.00 343.00
C 86.00 332.33 86.00 321.67 86.00 311.00
C 123.86 311.02 162.83 310.97 200.00 311.00
C 204.52 305.91 204.29 300.79 200.00 296.00
C 177.15 296.07 152.54 295.95 129.00 296.00
C 125.08 286.35 117.19 278.17 112.39 269.75 C 107.60 261.34 104.76 253.49 100.71 245.30 C 96.66 237.10 92.58 226.31 90.58 216.77 C 88.58 207.23 84.72 197.60 85.07 185.07 C 85.42 172.54 86.16 157.83 89.88 147.90 C 93.61 137.97 96.41 130.12 101.76 121.77 C 107.12 113.42 118.22 101.22 127.30 94.30 C 136.38 87.38 143.80 83.80 153.08 80.13 C 162.36 76.46 170.99 73.23 183.26 72.40 C 195.53 71.58 210.79 72.55 220.25 75.40 C 229.70 78.25 238.99 80.94 247.08 85.87 C 255.17 90.81 265.66 98.45 274.30 108.70 C 282.94 118.96 295.18 122.87 304.23 112.23 C 313.28 101.59 322.35 92.64 331.25 87.39 C 340.15 82.15 348.00 79.36 358.25 76.26 C 368.49 73.17 381.78 71.31 394.31 72.35 C 406.84 73.40 416.44 74.66 425.70 78.29 C 434.95 81.91 442.58 86.41 450.75 92.81 C 458.91 99.21 473.91 112.16 475.00 93.00
C 465.28 83.42 454.81 77.81 446.25 72.75 C 437.70 67.68 428.12 63.18 416.75 60.39 C 405.39 57.60 390.05 57.01 377.75 57.40 C 365.45 57.78 356.38 61.47 345.75 64.61 C 335.13 67.75 327.53 72.98 318.25 78.81 C 308.98 84.65 298.00 96.16 289.00 104.00
C 284.72 97.86 275.14 86.66 268.70 82.30 C 262.27 77.94 254.96 72.29 248.25 69.19 C 241.55 66.09 234.97 63.56 226.25 61.20 C 217.52 58.83 211.35 57.61 202.22 57.22 C 193.10 56.83 179.18 57.09 171.25 59.20 C 163.32 61.31 154.13 61.97 147.30 65.29 C 140.48 68.60 133.09 72.49 126.30 76.30 C 119.52 80.11 112.83 88.00 105.25 95.25 C 97.67 102.50 92.45 108.13 88.32 115.32 C 84.19 122.51 81.96 128.16 78.39 135.25 C 74.82 142.34 74.85 149.69 72.92 157.92 C 70.99 166.14 69.37 181.18 70.22 190.78 C 71.07 200.37 73.17 207.07 74.80 214.75 C 76.43 222.44 77.97 229.94 80.74 237.25 C 83.50 244.55 86.91 251.06 89.81 257.75 C 92.72 264.44 95.94 269.85 99.74 276.25 C 103.53 282.65 107.41 288.88 111.00 296.00
C 102.67 296.00 94.33 296.00 86.00 296.00
C 86.33 276.84 90.50 254.32 72.75 249.59 C 55.01 244.85 35.30 249.60 36.00 267.00
C 20.24 267.13 5.70 263.78 0.00 278.00
M 72.00 265.00 
C 70.33 305.74 70.33 348.28 72.00 389.00
C 66.40 392.12 55.62 392.14 50.00 389.00
C 51.72 377.90 51.13 364.39 51.00 353.00 C 50.87 341.61 53.16 328.99 47.00 321.00
C 41.90 321.24 38.74 321.63 35.00 325.00
C 36.24 331.41 36.52 339.60 36.00 347.00 C 35.48 354.41 38.02 365.98 34.00 371.00
C 30.22 375.04 19.82 372.83 14.00 372.00
C 14.01 342.98 14.01 311.00 14.00 282.00
C 20.60 281.42 27.83 283.21 34.00 281.00
C 36.90 286.57 32.66 296.12 39.00 301.00
C 56.26 303.70 50.86 277.71 50.00 265.00
C 55.60 261.88 66.38 261.86 72.00 265.00
M 290.00 264.00 
C 288.34 305.42 288.34 348.58 290.00 390.00
C 284.69 390.65 273.60 392.89 268.00 389.00
C 269.67 348.26 269.67 305.72 268.00 265.00
C 274.39 261.09 284.55 263.38 290.00 264.00
M 325.00 373.00 
C 319.21 371.36 311.77 371.37 306.00 373.00
C 301.35 360.29 305.45 346.74 304.00 333.00 C 302.55 319.26 306.10 304.98 304.00 291.00 C 301.90 277.02 328.12 276.10 327.00 290.00 C 325.88 303.90 327.95 318.20 327.00 332.00 C 326.05 345.80 329.28 360.19 325.00 373.00 Z"/>
</g>
<g fill="#000000" fill-opacity="0.97" stroke="None"><path d="
M 268.00 183.00 
C 266.62 173.58 262.58 166.20 260.06 158.08 C 257.55 149.96 258.46 140.02 247.00 141.00
C 237.54 155.10 237.22 170.58 231.91 184.90 C 226.59 199.22 223.33 214.72 217.00 229.00
C 215.21 219.09 212.92 213.18 210.77 204.23 C 208.62 195.28 204.55 190.27 203.31 180.70 C 202.07 171.12 195.94 165.49 183.00 167.00 C 170.06 168.51 150.26 166.45 138.00 167.00 C 125.74 167.55 110.90 164.73 112.61 176.25 C 114.31 187.76 132.15 180.32 144.00 182.00 C 155.85 183.68 175.44 180.74 188.00 182.00
C 191.37 190.88 193.09 202.90 196.29 211.70 C 199.48 220.50 202.98 232.41 205.09 240.90 C 207.21 249.39 211.34 266.15 220.75 261.19 C 230.15 256.22 227.41 242.84 231.88 233.90 C 236.36 224.96 237.05 214.20 240.74 204.75 C 244.42 195.31 246.15 184.00 251.00 175.00
C 253.23 190.54 255.09 199.14 275.00 197.00 C 294.91 194.86 316.42 197.78 336.00 198.00
C 338.09 196.68 338.84 192.97 342.00 193.00
C 342.47 178.02 327.70 183.68 314.00 183.00 C 300.30 182.32 282.11 183.51 268.00 183.00 Z"/>
</g>
<g fill="#000000" fill-opacity="0.02" stroke="None"><path d="
M 72.00 265.00 
C 66.38 261.86 55.60 261.88 50.00 265.00
C 50.86 277.71 56.26 303.70 39.00 301.00
C 32.66 296.12 36.90 286.57 34.00 281.00
C 27.83 283.21 20.60 281.42 14.00 282.00
C 14.01 311.00 14.01 342.98 14.00 372.00
C 19.82 372.83 30.22 375.04 34.00 371.00
C 38.02 365.98 35.48 354.41 36.00 347.00 C 36.52 339.60 36.24 331.41 35.00 325.00
C 38.74 321.63 41.90 321.24 47.00 321.00
C 53.16 328.99 50.87 341.61 51.00 353.00 C 51.13 364.39 51.72 377.90 50.00 389.00
C 55.62 392.14 66.40 392.12 72.00 389.00
C 70.33 348.28 70.33 305.74 72.00 265.00 Z"/>
</g>
<g fill="#000000" fill-opacity="0.01" stroke="None"><path d="
M 290.00 264.00 
C 284.55 263.38 274.39 261.09 268.00 265.00
C 269.67 305.72 269.67 348.26 268.00 389.00
C 273.60 392.89 284.69 390.65 290.00 390.00
C 288.34 348.58 288.34 305.42 290.00 264.00 Z"/>
</g>
<g fill="#000000" fill-opacity="0.08" stroke="None"><path d="
M 325.00 373.00 
C 329.28 360.19 326.05 345.80 327.00 332.00 C 327.95 318.20 325.88 303.90 327.00 290.00 C 328.12 276.10 301.90 277.02 304.00 291.00 C 306.10 304.98 302.55 319.26 304.00 333.00 C 305.45 346.74 301.35 360.29 306.00 373.00
C 311.77 371.37 319.21 371.36 325.00 373.00 Z"/>
</g>
</svg>