<svg xmlns="http://www.w3.org/2000/svg" xmlns:v="https://svgstorm.com"
viewBox = "0 0 512 512"
width="512"
height="512">
<g fill="None" fill-opacity="0.0" stroke="#000000" stroke-opacity="0.00" stroke-width="0.3"><path d="
M 0.00 194.00 
C 0.50 194.00 1.00 194.00 1.00 194.00
C 4.30 173.62 32.07 173.62 49.25 177.80 C 71.14 185.50 62.21 216.53 64.00 240.00
C 69.33 240.00 74.67 240.00 80.00 240.00
C 79.54 224.00 94.38 207.39 110.70 208.65 C 128.68 206.07 144.69 223.40 144.00 240.00
C 165.33 240.00 186.67 240.00 208.00 240.00
C 206.99 214.05 210.01 196.48 230.68 183.68 C 242.50 173.04 270.64 175.34 282.75 183.39 C 300.73 197.24 305.55 213.29 304.00 240.00
C 325.33 240.00 346.67 240.00 368.00 240.00
C 367.54 224.01 382.38 207.39 398.70 208.65 C 416.69 206.07 432.69 223.40 432.00 240.00
C 437.33 240.00 442.67 240.00 448.00 240.00
C 449.87 216.35 440.83 186.24 462.75 177.74 C 481.02 173.40 508.07 174.06 512.00 195.00
L 512.00 0.00
L 261.00 0.00
C 292.26 4.79 308.26 30.10 304.00 66.00 C 307.90 100.84 288.69 126.73 257.31 127.35 C 227.89 128.86 206.10 104.78 208.00 74.00 C 203.45 36.73 214.99 7.48 247.00 1.00
C 247.19 0.91 247.00 0.00 247.00 0.00
L 0.00 0.00
L 0.00 194.00
M 400.00 180.00 
C 396.44 183.32 392.94 184.04 388.00 184.00
C 365.38 143.43 302.95 165.80 256.00 160.00 C 208.70 165.75 146.87 143.51 124.00 184.00
C 118.83 184.07 115.72 183.31 112.00 180.00
C 112.91 162.72 132.73 151.90 144.25 147.81 C 161.23 140.82 190.57 145.28 214.00 144.00 C 242.67 144.00 271.33 144.00 300.00 144.00 C 323.56 144.77 350.75 141.72 368.75 147.39 C 379.69 153.43 399.68 162.43 400.00 180.00 Z"/>
</g>
<g fill="None" fill-opacity="0.0" stroke="#000000" stroke-opacity="0.60" stroke-width="0.3"><path d="
M 247.00 1.00 
C 249.19 0.48 252.62 2.14 254.00 0.00
L 247.00 0.00
C 247.00 0.00 247.19 0.91 247.00 1.00 Z"/>
</g>
<g fill="None" fill-opacity="0.0" stroke="#000000" stroke-opacity="0.97" stroke-width="0.3"><path d="
M 247.00 1.00 
C 214.99 7.48 203.45 36.73 208.00 74.00 C 206.10 104.78 227.89 128.86 257.31 127.35 C 288.69 126.73 307.90 100.84 304.00 66.00 C 308.26 30.10 292.26 4.79 261.00 0.00
L 254.00 0.00
C 252.62 2.14 249.19 0.48 247.00 1.00
M 249.00 16.00 
C 270.29 13.15 291.11 29.77 288.00 53.00 C 290.73 80.69 287.31 106.43 262.25 111.39 C 240.95 115.22 221.62 98.09 224.00 75.00 C 221.05 46.78 225.21 22.84 249.00 16.00 Z"/>
</g>
<g fill="None" fill-opacity="0.0" stroke="#000000" stroke-opacity="0.01" stroke-width="0.3"><path d="
M 249.00 16.00 
C 225.21 22.84 221.05 46.78 224.00 75.00 C 221.62 98.09 240.95 115.22 262.25 111.39 C 287.31 106.43 290.73 80.69 288.00 53.00 C 291.11 29.77 270.29 13.15 249.00 16.00 Z"/>
</g>
<g fill="None" fill-opacity="0.0" stroke="#000000" stroke-opacity="0.99" stroke-width="0.3"><path d="
M 400.00 180.00 
C 399.68 162.43 379.69 153.43 368.75 147.39 C 350.75 141.72 323.56 144.77 300.00 144.00 C 271.33 144.00 242.67 144.00 214.00 144.00 C 190.57 145.28 161.23 140.82 144.25 147.81 C 132.73 151.90 112.91 162.72 112.00 180.00
C 115.72 183.31 118.83 184.07 124.00 184.00
C 146.87 143.51 208.70 165.75 256.00 160.00 C 302.95 165.80 365.38 143.43 388.00 184.00
C 392.94 184.04 396.44 183.32 400.00 180.00 Z"/>
</g>
<g fill="None" fill-opacity="0.0" stroke="#000000" stroke-opacity="0.99" stroke-width="0.3"><path d="
M 1.00 194.00 
C 0.61 195.57 1.94 198.22 0.00 199.00
L 0.00 299.00
C 2.29 321.47 29.49 322.56 48.25 318.81 C 71.48 310.72 62.07 280.02 64.00 256.00
C 69.33 256.00 74.67 256.00 80.00 256.00
C 80.00 273.00 80.00 290.00 80.00 307.00 C 81.86 321.80 75.81 341.11 84.00 352.00
C 86.54 351.27 89.21 351.55 92.00 352.00
C 100.56 338.45 93.89 315.56 96.00 298.00 C 96.39 278.17 95.21 257.64 96.60 238.26 C 96.38 226.42 113.96 219.56 121.75 227.59 C 132.88 235.15 126.10 257.68 128.00 273.00 C 127.92 292.55 128.10 313.14 128.00 332.00
C 135.66 339.43 150.65 334.65 162.00 336.00 C 175.67 336.00 189.33 336.00 203.00 336.00 C 214.80 334.37 225.50 336.14 232.25 346.75 C 238.63 353.96 247.13 359.87 252.00 368.00
C 254.54 367.27 257.21 367.55 260.00 368.00
C 266.53 358.14 276.73 350.65 284.75 341.75 C 295.79 329.90 315.28 338.72 330.00 336.00 C 346.56 336.10 364.13 335.86 380.00 336.00
C 388.22 324.89 382.12 305.05 384.00 290.00 C 384.52 273.01 382.96 255.38 384.78 238.78 C 383.66 228.86 396.71 221.58 405.25 224.80 C 416.67 227.92 416.56 240.91 416.00 254.00 C 416.00 271.33 416.00 288.67 416.00 306.00 C 417.89 321.11 411.76 340.82 420.00 352.00
C 422.54 351.27 425.21 351.55 428.00 352.00
C 436.17 341.18 430.15 321.74 432.00 307.00 C 432.00 290.00 432.00 273.00 432.00 256.00
C 437.33 256.00 442.67 256.00 448.00 256.00
C 449.71 280.10 440.87 309.95 463.25 318.76 C 481.78 322.27 508.95 322.00 512.00 300.00
L 512.00 195.00
C 508.07 174.06 481.02 173.40 462.75 177.74 C 440.83 186.24 449.87 216.35 448.00 240.00
C 442.67 240.00 437.33 240.00 432.00 240.00
C 432.69 223.40 416.69 206.07 398.70 208.65 C 382.38 207.39 367.54 224.01 368.00 240.00
C 346.67 240.00 325.33 240.00 304.00 240.00
C 305.55 213.29 300.73 197.24 282.75 183.39 C 270.64 175.34 242.50 173.04 230.68 183.68 C 210.01 196.48 206.99 214.05 208.00 240.00
C 186.67 240.00 165.33 240.00 144.00 240.00
C 144.69 223.40 128.68 206.07 110.70 208.65 C 94.38 207.39 79.54 224.00 80.00 240.00
C 74.67 240.00 69.33 240.00 64.00 240.00
C 62.21 216.53 71.14 185.50 49.25 177.80 C 32.07 173.62 4.30 173.62 1.00 194.00
M 44.00 192.00 
C 52.55 204.96 45.90 227.13 48.00 244.00 C 48.08 262.55 47.88 282.14 48.00 300.00
C 41.92 306.82 28.94 302.90 20.00 304.00
C 11.51 291.06 18.06 268.93 16.00 252.00 C 15.89 233.48 16.15 213.71 16.00 196.00
C 22.12 189.30 34.99 193.09 44.00 192.00
M 249.00 192.00 
C 269.71 189.25 289.96 204.62 288.00 227.00 C 290.43 255.05 288.25 282.13 262.75 287.19 C 241.57 291.61 222.01 274.56 224.00 252.00 C 221.16 223.48 224.80 198.87 249.00 192.00
M 492.00 192.00 
C 500.55 204.96 493.90 227.13 496.00 244.00 C 496.08 262.55 495.88 282.14 496.00 300.00
C 489.92 306.82 476.94 302.90 468.00 304.00
C 459.51 291.06 466.06 268.93 464.00 252.00 C 463.89 233.48 464.15 213.71 464.00 196.00
C 470.12 189.30 482.99 193.09 492.00 192.00
M 209.00 257.00 
C 207.45 286.16 235.18 308.27 265.23 303.21 C 284.51 299.75 300.82 282.78 303.39 263.25 C 300.77 250.42 321.42 258.02 330.00 256.00 C 342.67 256.00 355.33 256.00 368.00 256.00
C 368.00 277.33 368.00 298.67 368.00 320.00
C 340.16 319.95 311.03 320.07 284.00 320.00
C 277.05 330.73 265.07 338.80 257.00 349.00
C 246.64 341.13 235.84 330.34 228.00 320.00
C 200.83 320.06 171.87 319.96 144.00 320.00
C 144.00 298.67 144.00 277.33 144.00 256.00
C 165.58 256.66 187.87 254.67 209.00 257.00 Z"/>
</g>
<g fill="None" fill-opacity="0.0" stroke="#000000" stroke-opacity="0.00" stroke-width="0.3"><path d="
M 44.00 192.00 
C 34.99 193.09 22.12 189.30 16.00 196.00
C 16.15 213.71 15.89 233.48 16.00 252.00 C 18.06 268.93 11.51 291.06 20.00 304.00
C 28.94 302.90 41.92 306.82 48.00 300.00
C 47.88 282.14 48.08 262.55 48.00 244.00 C 45.90 227.13 52.55 204.96 44.00 192.00 Z"/>
</g>
<g fill="None" fill-opacity="0.0" stroke="#000000" stroke-opacity="0.01" stroke-width="0.3"><path d="
M 249.00 192.00 
C 224.80 198.87 221.16 223.48 224.00 252.00 C 222.01 274.56 241.57 291.61 262.75 287.19 C 288.25 282.13 290.43 255.05 288.00 227.00 C 289.96 204.62 269.71 189.25 249.00 192.00 Z"/>
</g>
<g fill="None" fill-opacity="0.0" stroke="#000000" stroke-opacity="0.00" stroke-width="0.3"><path d="
M 492.00 192.00 
C 482.99 193.09 470.12 189.30 464.00 196.00
C 464.15 213.71 463.89 233.48 464.00 252.00 C 466.06 268.93 459.51 291.06 468.00 304.00
C 476.94 302.90 489.92 306.82 496.00 300.00
C 495.88 282.14 496.08 262.55 496.00 244.00 C 493.90 227.13 500.55 204.96 492.00 192.00 Z"/>
</g>
<g fill="None" fill-opacity="0.0" stroke="#000000" stroke-opacity="0.69" stroke-width="0.3"><path d="
M 0.00 199.00 
C 1.94 198.22 0.61 195.57 1.00 194.00
C 1.00 194.00 0.50 194.00 0.00 194.00
L 0.00 199.00 Z"/>
</g>
<g fill="None" fill-opacity="0.0" stroke="#000000" stroke-opacity="0.00" stroke-width="0.3"><path d="
M 0.00 299.00 
L 0.00 512.00
L 175.00 512.00
C 172.49 511.02 170.41 508.95 168.00 508.00
C 168.04 476.83 167.97 443.86 168.00 412.00 C 169.75 397.52 163.98 378.56 172.00 368.00
C 174.68 369.33 177.11 368.21 180.00 368.00
C 187.79 376.77 182.41 393.47 184.00 406.00 C 184.00 436.00 184.00 466.00 184.00 496.00
C 232.00 496.00 280.00 496.00 328.00 496.00
C 328.00 466.33 328.00 436.67 328.00 407.00 C 329.53 394.03 324.32 377.13 332.00 368.00
C 334.68 369.33 337.11 368.21 340.00 368.00
C 348.13 378.22 342.18 396.95 344.00 411.00 C 344.03 443.20 343.96 476.49 344.00 508.00
C 342.19 508.31 340.23 510.00 340.00 512.00
L 512.00 512.00
L 512.00 300.00
C 508.95 322.00 481.78 322.27 463.25 318.76 C 440.87 309.95 449.71 280.10 448.00 256.00
C 442.67 256.00 437.33 256.00 432.00 256.00
C 432.00 273.00 432.00 290.00 432.00 307.00 C 430.15 321.74 436.17 341.18 428.00 352.00
C 425.21 351.55 422.54 351.27 420.00 352.00
C 411.76 340.82 417.89 321.11 416.00 306.00 C 416.00 288.67 416.00 271.33 416.00 254.00 C 416.56 240.91 416.67 227.92 405.25 224.80 C 396.71 221.58 383.66 228.86 384.78 238.78 C 382.96 255.38 384.52 273.01 384.00 290.00 C 382.12 305.05 388.22 324.89 380.00 336.00
C 364.13 335.86 346.56 336.10 330.00 336.00 C 315.28 338.72 295.79 329.90 284.75 341.75 C 276.73 350.65 266.53 358.14 260.00 368.00
C 257.21 367.55 254.54 367.27 252.00 368.00
C 247.13 359.87 238.63 353.96 232.25 346.75 C 225.50 336.14 214.80 334.37 203.00 336.00 C 189.33 336.00 175.67 336.00 162.00 336.00 C 150.65 334.65 135.66 339.43 128.00 332.00
C 128.10 313.14 127.92 292.55 128.00 273.00 C 126.10 257.68 132.88 235.15 121.75 227.59 C 113.96 219.56 96.38 226.42 96.60 238.26 C 95.21 257.64 96.39 278.17 96.00 298.00 C 93.89 315.56 100.56 338.45 92.00 352.00
C 89.21 351.55 86.54 351.27 84.00 352.00
C 75.81 341.11 81.86 321.80 80.00 307.00 C 80.00 290.00 80.00 273.00 80.00 256.00
C 74.67 256.00 69.33 256.00 64.00 256.00
C 62.07 280.02 71.48 310.72 48.25 318.81 C 29.49 322.56 2.29 321.47 0.00 299.00
M 113.00 352.00 
C 137.35 348.63 158.08 370.04 151.20 396.25 C 149.76 420.26 106.99 422.92 92.30 406.70 C 81.21 386.72 90.85 357.08 113.00 352.00
M 385.00 352.00 
C 409.28 348.73 429.48 369.55 423.60 395.75 C 422.40 419.47 380.07 423.40 365.75 407.25 C 351.68 387.70 363.28 356.86 385.00 352.00 Z"/>
</g>
<g fill="None" fill-opacity="0.0" stroke="#000000" stroke-opacity="0.01" stroke-width="0.3"><path d="
M 209.00 257.00 
C 187.87 254.67 165.58 256.66 144.00 256.00
C 144.00 277.33 144.00 298.67 144.00 320.00
C 171.87 319.96 200.83 320.06 228.00 320.00
C 235.84 330.34 246.64 341.13 257.00 349.00
C 265.07 338.80 277.05 330.73 284.00 320.00
C 311.03 320.07 340.16 319.95 368.00 320.00
C 368.00 298.67 368.00 277.33 368.00 256.00
C 355.33 256.00 342.67 256.00 330.00 256.00 C 321.42 258.02 300.77 250.42 303.39 263.25 C 300.82 282.78 284.51 299.75 265.23 303.21 C 235.18 308.27 207.45 286.16 209.00 257.00 Z"/>
</g>
<g fill="None" fill-opacity="0.0" stroke="#000000" stroke-opacity="0.97" stroke-width="0.3"><path d="
M 113.00 352.00 
C 90.85 357.08 81.21 386.72 92.30 406.70 C 106.99 422.92 149.76 420.26 151.20 396.25 C 158.08 370.04 137.35 348.63 113.00 352.00
M 136.00 396.00 
C 129.92 402.82 116.94 398.90 108.00 400.00
C 99.04 390.34 104.51 367.96 118.75 368.60 C 133.76 366.31 137.81 381.77 136.00 396.00 Z"/>
</g>
<g fill="None" fill-opacity="0.0" stroke="#000000" stroke-opacity="0.97" stroke-width="0.3"><path d="
M 385.00 352.00 
C 363.28 356.86 351.68 387.70 365.75 407.25 C 380.07 423.40 422.40 419.47 423.60 395.75 C 429.48 369.55 409.28 348.73 385.00 352.00
M 408.00 396.00 
C 401.92 402.82 388.94 398.90 380.00 400.00
C 371.04 390.34 376.51 367.96 390.75 368.60 C 405.76 366.31 409.81 381.77 408.00 396.00 Z"/>
</g>
<g fill="None" fill-opacity="0.0" stroke="#000000" stroke-opacity="0.02" stroke-width="0.3"><path d="
M 136.00 396.00 
C 137.81 381.77 133.76 366.31 118.75 368.60 C 104.51 367.96 99.04 390.34 108.00 400.00
C 116.94 398.90 129.92 402.82 136.00 396.00 Z"/>
</g>
<g fill="None" fill-opacity="0.0" stroke="#000000" stroke-opacity="1.00" stroke-width="0.3"><path d="
M 175.00 512.00 
L 340.00 512.00
C 340.23 510.00 342.19 508.31 344.00 508.00
C 343.96 476.49 344.03 443.20 344.00 411.00 C 342.18 396.95 348.13 378.22 340.00 368.00
C 337.11 368.21 334.68 369.33 332.00 368.00
C 324.32 377.13 329.53 394.03 328.00 407.00 C 328.00 436.67 328.00 466.33 328.00 496.00
C 280.00 496.00 232.00 496.00 184.00 496.00
C 184.00 466.00 184.00 436.00 184.00 406.00 C 182.41 393.47 187.79 376.77 180.00 368.00
C 177.11 368.21 174.68 369.33 172.00 368.00
C 163.98 378.56 169.75 397.52 168.00 412.00 C 167.97 443.86 168.04 476.83 168.00 508.00
C 170.41 508.95 172.49 511.02 175.00 512.00 Z"/>
</g>
<g fill="None" fill-opacity="0.0" stroke="#000000" stroke-opacity="0.02" stroke-width="0.3"><path d="
M 408.00 396.00 
C 409.81 381.77 405.76 366.31 390.75 368.60 C 376.51 367.96 371.04 390.34 380.00 400.00
C 388.94 398.90 401.92 402.82 408.00 396.00 Z"/>
</g>
<g fill="#000000" fill-opacity="0.00" stroke="None"><path d="
M 0.00 194.00 
C 0.50 194.00 1.00 194.00 1.00 194.00
C 4.30 173.62 32.07 173.62 49.25 177.80 C 71.14 185.50 62.21 216.53 64.00 240.00
C 69.33 240.00 74.67 240.00 80.00 240.00
C 79.54 224.00 94.38 207.39 110.70 208.65 C 128.68 206.07 144.69 223.40 144.00 240.00
C 165.33 240.00 186.67 240.00 208.00 240.00
C 206.99 214.05 210.01 196.48 230.68 183.68 C 242.50 173.04 270.64 175.34 282.75 183.39 C 300.73 197.24 305.55 213.29 304.00 240.00
C 325.33 240.00 346.67 240.00 368.00 240.00
C 367.54 224.01 382.38 207.39 398.70 208.65 C 416.69 206.07 432.69 223.40 432.00 240.00
C 437.33 240.00 442.67 240.00 448.00 240.00
C 449.87 216.35 440.83 186.24 462.75 177.74 C 481.02 173.40 508.07 174.06 512.00 195.00
L 512.00 0.00
L 261.00 0.00
C 292.26 4.79 308.26 30.10 304.00 66.00 C 307.90 100.84 288.69 126.73 257.31 127.35 C 227.89 128.86 206.10 104.78 208.00 74.00 C 203.45 36.73 214.99 7.48 247.00 1.00
C 247.19 0.91 247.00 0.00 247.00 0.00
L 0.00 0.00
L 0.00 194.00
M 400.00 180.00 
C 396.44 183.32 392.94 184.04 388.00 184.00
C 365.38 143.43 302.95 165.80 256.00 160.00 C 208.70 165.75 146.87 143.51 124.00 184.00
C 118.83 184.07 115.72 183.31 112.00 180.00
C 112.91 162.72 132.73 151.90 144.25 147.81 C 161.23 140.82 190.57 145.28 214.00 144.00 C 242.67 144.00 271.33 144.00 300.00 144.00 C 323.56 144.77 350.75 141.72 368.75 147.39 C 379.69 153.43 399.68 162.43 400.00 180.00 Z"/>
</g>
<g fill="#000000" fill-opacity="0.60" stroke="None"><path d="
M 247.00 1.00 
C 249.19 0.48 252.62 2.14 254.00 0.00
L 247.00 0.00
C 247.00 0.00 247.19 0.91 247.00 1.00 Z"/>
</g>
<g fill="#000000" fill-opacity="0.97" stroke="None"><path d="
M 247.00 1.00 
C 214.99 7.48 203.45 36.73 208.00 74.00 C 206.10 104.78 227.89 128.86 257.31 127.35 C 288.69 126.73 307.90 100.84 304.00 66.00 C 308.26 30.10 292.26 4.79 261.00 0.00
L 254.00 0.00
C 252.62 2.14 249.19 0.48 247.00 1.00
M 249.00 16.00 
C 270.29 13.15 291.11 29.77 288.00 53.00 C 290.73 80.69 287.31 106.43 262.25 111.39 C 240.95 115.22 221.62 98.09 224.00 75.00 C 221.05 46.78 225.21 22.84 249.00 16.00 Z"/>
</g>
<g fill="#000000" fill-opacity="0.01" stroke="None"><path d="
M 249.00 16.00 
C 225.21 22.84 221.05 46.78 224.00 75.00 C 221.62 98.09 240.95 115.22 262.25 111.39 C 287.31 106.43 290.73 80.69 288.00 53.00 C 291.11 29.77 270.29 13.15 249.00 16.00 Z"/>
</g>
<g fill="#000000" fill-opacity="0.99" stroke="None"><path d="
M 400.00 180.00 
C 399.68 162.43 379.69 153.43 368.75 147.39 C 350.75 141.72 323.56 144.77 300.00 144.00 C 271.33 144.00 242.67 144.00 214.00 144.00 C 190.57 145.28 161.23 140.82 144.25 147.81 C 132.73 151.90 112.91 162.72 112.00 180.00
C 115.72 183.31 118.83 184.07 124.00 184.00
C 146.87 143.51 208.70 165.75 256.00 160.00 C 302.95 165.80 365.38 143.43 388.00 184.00
C 392.94 184.04 396.44 183.32 400.00 180.00 Z"/>
</g>
<g fill="#000000" fill-opacity="0.99" stroke="None"><path d="
M 1.00 194.00 
C 0.61 195.57 1.94 198.22 0.00 199.00
L 0.00 299.00
C 2.29 321.47 29.49 322.56 48.25 318.81 C 71.48 310.72 62.07 280.02 64.00 256.00
C 69.33 256.00 74.67 256.00 80.00 256.00
C 80.00 273.00 80.00 290.00 80.00 307.00 C 81.86 321.80 75.81 341.11 84.00 352.00
C 86.54 351.27 89.21 351.55 92.00 352.00
C 100.56 338.45 93.89 315.56 96.00 298.00 C 96.39 278.17 95.21 257.64 96.60 238.26 C 96.38 226.42 113.96 219.56 121.75 227.59 C 132.88 235.15 126.10 257.68 128.00 273.00 C 127.92 292.55 128.10 313.14 128.00 332.00
C 135.66 339.43 150.65 334.65 162.00 336.00 C 175.67 336.00 189.33 336.00 203.00 336.00 C 214.80 334.37 225.50 336.14 232.25 346.75 C 238.63 353.96 247.13 359.87 252.00 368.00
C 254.54 367.27 257.21 367.55 260.00 368.00
C 266.53 358.14 276.73 350.65 284.75 341.75 C 295.79 329.90 315.28 338.72 330.00 336.00 C 346.56 336.10 364.13 335.86 380.00 336.00
C 388.22 324.89 382.12 305.05 384.00 290.00 C 384.52 273.01 382.96 255.38 384.78 238.78 C 383.66 228.86 396.71 221.58 405.25 224.80 C 416.67 227.92 416.56 240.91 416.00 254.00 C 416.00 271.33 416.00 288.67 416.00 306.00 C 417.89 321.11 411.76 340.82 420.00 352.00
C 422.54 351.27 425.21 351.55 428.00 352.00
C 436.17 341.18 430.15 321.74 432.00 307.00 C 432.00 290.00 432.00 273.00 432.00 256.00
C 437.33 256.00 442.67 256.00 448.00 256.00
C 449.71 280.10 440.87 309.95 463.25 318.76 C 481.78 322.27 508.95 322.00 512.00 300.00
L 512.00 195.00
C 508.07 174.06 481.02 173.40 462.75 177.74 C 440.83 186.24 449.87 216.35 448.00 240.00
C 442.67 240.00 437.33 240.00 432.00 240.00
C 432.69 223.40 416.69 206.07 398.70 208.65 C 382.38 207.39 367.54 224.01 368.00 240.00
C 346.67 240.00 325.33 240.00 304.00 240.00
C 305.55 213.29 300.73 197.24 282.75 183.39 C 270.64 175.34 242.50 173.04 230.68 183.68 C 210.01 196.48 206.99 214.05 208.00 240.00
C 186.67 240.00 165.33 240.00 144.00 240.00
C 144.69 223.40 128.68 206.07 110.70 208.65 C 94.38 207.39 79.54 224.00 80.00 240.00
C 74.67 240.00 69.33 240.00 64.00 240.00
C 62.21 216.53 71.14 185.50 49.25 177.80 C 32.07 173.62 4.30 173.62 1.00 194.00
M 44.00 192.00 
C 52.55 204.96 45.90 227.13 48.00 244.00 C 48.08 262.55 47.88 282.14 48.00 300.00
C 41.92 306.82 28.94 302.90 20.00 304.00
C 11.51 291.06 18.06 268.93 16.00 252.00 C 15.89 233.48 16.15 213.71 16.00 196.00
C 22.12 189.30 34.99 193.09 44.00 192.00
M 249.00 192.00 
C 269.71 189.25 289.96 204.62 288.00 227.00 C 290.43 255.05 288.25 282.13 262.75 287.19 C 241.57 291.61 222.01 274.56 224.00 252.00 C 221.16 223.48 224.80 198.87 249.00 192.00
M 492.00 192.00 
C 500.55 204.96 493.90 227.13 496.00 244.00 C 496.08 262.55 495.88 282.14 496.00 300.00
C 489.92 306.82 476.94 302.90 468.00 304.00
C 459.51 291.06 466.06 268.93 464.00 252.00 C 463.89 233.48 464.15 213.71 464.00 196.00
C 470.12 189.30 482.99 193.09 492.00 192.00
M 209.00 257.00 
C 207.45 286.16 235.18 308.27 265.23 303.21 C 284.51 299.75 300.82 282.78 303.39 263.25 C 300.77 250.42 321.42 258.02 330.00 256.00 C 342.67 256.00 355.33 256.00 368.00 256.00
C 368.00 277.33 368.00 298.67 368.00 320.00
C 340.16 319.95 311.03 320.07 284.00 320.00
C 277.05 330.73 265.07 338.80 257.00 349.00
C 246.64 341.13 235.84 330.34 228.00 320.00
C 200.83 320.06 171.87 319.96 144.00 320.00
C 144.00 298.67 144.00 277.33 144.00 256.00
C 165.58 256.66 187.87 254.67 209.00 257.00 Z"/>
</g>
<g fill="#000000" fill-opacity="0.00" stroke="None"><path d="
M 44.00 192.00 
C 34.99 193.09 22.12 189.30 16.00 196.00
C 16.15 213.71 15.89 233.48 16.00 252.00 C 18.06 268.93 11.51 291.06 20.00 304.00
C 28.94 302.90 41.92 306.82 48.00 300.00
C 47.88 282.14 48.08 262.55 48.00 244.00 C 45.90 227.13 52.55 204.96 44.00 192.00 Z"/>
</g>
<g fill="#000000" fill-opacity="0.01" stroke="None"><path d="
M 249.00 192.00 
C 224.80 198.87 221.16 223.48 224.00 252.00 C 222.01 274.56 241.57 291.61 262.75 287.19 C 288.25 282.13 290.43 255.05 288.00 227.00 C 289.96 204.62 269.71 189.25 249.00 192.00 Z"/>
</g>
<g fill="#000000" fill-opacity="0.00" stroke="None"><path d="
M 492.00 192.00 
C 482.99 193.09 470.12 189.30 464.00 196.00
C 464.15 213.71 463.89 233.48 464.00 252.00 C 466.06 268.93 459.51 291.06 468.00 304.00
C 476.94 302.90 489.92 306.82 496.00 300.00
C 495.88 282.14 496.08 262.55 496.00 244.00 C 493.90 227.13 500.55 204.96 492.00 192.00 Z"/>
</g>
<g fill="#000000" fill-opacity="0.69" stroke="None"><path d="
M 0.00 199.00 
C 1.94 198.22 0.61 195.57 1.00 194.00
C 1.00 194.00 0.50 194.00 0.00 194.00
L 0.00 199.00 Z"/>
</g>
<g fill="#000000" fill-opacity="0.00" stroke="None"><path d="
M 0.00 299.00 
L 0.00 512.00
L 175.00 512.00
C 172.49 511.02 170.41 508.95 168.00 508.00
C 168.04 476.83 167.97 443.86 168.00 412.00 C 169.75 397.52 163.98 378.56 172.00 368.00
C 174.68 369.33 177.11 368.21 180.00 368.00
C 187.79 376.77 182.41 393.47 184.00 406.00 C 184.00 436.00 184.00 466.00 184.00 496.00
C 232.00 496.00 280.00 496.00 328.00 496.00
C 328.00 466.33 328.00 436.67 328.00 407.00 C 329.53 394.03 324.32 377.13 332.00 368.00
C 334.68 369.33 337.11 368.21 340.00 368.00
C 348.13 378.22 342.18 396.95 344.00 411.00 C 344.03 443.20 343.96 476.49 344.00 508.00
C 342.19 508.31 340.23 510.00 340.00 512.00
L 512.00 512.00
L 512.00 300.00
C 508.95 322.00 481.78 322.27 463.25 318.76 C 440.87 309.95 449.71 280.10 448.00 256.00
C 442.67 256.00 437.33 256.00 432.00 256.00
C 432.00 273.00 432.00 290.00 432.00 307.00 C 430.15 321.74 436.17 341.18 428.00 352.00
C 425.21 351.55 422.54 351.27 420.00 352.00
C 411.76 340.82 417.89 321.11 416.00 306.00 C 416.00 288.67 416.00 271.33 416.00 254.00 C 416.56 240.91 416.67 227.92 405.25 224.80 C 396.71 221.58 383.66 228.86 384.78 238.78 C 382.96 255.38 384.52 273.01 384.00 290.00 C 382.12 305.05 388.22 324.89 380.00 336.00
C 364.13 335.86 346.56 336.10 330.00 336.00 C 315.28 338.72 295.79 329.90 284.75 341.75 C 276.73 350.65 266.53 358.14 260.00 368.00
C 257.21 367.55 254.54 367.27 252.00 368.00
C 247.13 359.87 238.63 353.96 232.25 346.75 C 225.50 336.14 214.80 334.37 203.00 336.00 C 189.33 336.00 175.67 336.00 162.00 336.00 C 150.65 334.65 135.66 339.43 128.00 332.00
C 128.10 313.14 127.92 292.55 128.00 273.00 C 126.10 257.68 132.88 235.15 121.75 227.59 C 113.96 219.56 96.38 226.42 96.60 238.26 C 95.21 257.64 96.39 278.17 96.00 298.00 C 93.89 315.56 100.56 338.45 92.00 352.00
C 89.21 351.55 86.54 351.27 84.00 352.00
C 75.81 341.11 81.86 321.80 80.00 307.00 C 80.00 290.00 80.00 273.00 80.00 256.00
C 74.67 256.00 69.33 256.00 64.00 256.00
C 62.07 280.02 71.48 310.72 48.25 318.81 C 29.49 322.56 2.29 321.47 0.00 299.00
M 113.00 352.00 
C 137.35 348.63 158.08 370.04 151.20 396.25 C 149.76 420.26 106.99 422.92 92.30 406.70 C 81.21 386.72 90.85 357.08 113.00 352.00
M 385.00 352.00 
C 409.28 348.73 429.48 369.55 423.60 395.75 C 422.40 419.47 380.07 423.40 365.75 407.25 C 351.68 387.70 363.28 356.86 385.00 352.00 Z"/>
</g>
<g fill="#000000" fill-opacity="0.01" stroke="None"><path d="
M 209.00 257.00 
C 187.87 254.67 165.58 256.66 144.00 256.00
C 144.00 277.33 144.00 298.67 144.00 320.00
C 171.87 319.96 200.83 320.06 228.00 320.00
C 235.84 330.34 246.64 341.13 257.00 349.00
C 265.07 338.80 277.05 330.73 284.00 320.00
C 311.03 320.07 340.16 319.95 368.00 320.00
C 368.00 298.67 368.00 277.33 368.00 256.00
C 355.33 256.00 342.67 256.00 330.00 256.00 C 321.42 258.02 300.77 250.42 303.39 263.25 C 300.82 282.78 284.51 299.75 265.23 303.21 C 235.18 308.27 207.45 286.16 209.00 257.00 Z"/>
</g>
<g fill="#000000" fill-opacity="0.97" stroke="None"><path d="
M 113.00 352.00 
C 90.85 357.08 81.21 386.72 92.30 406.70 C 106.99 422.92 149.76 420.26 151.20 396.25 C 158.08 370.04 137.35 348.63 113.00 352.00
M 136.00 396.00 
C 129.92 402.82 116.94 398.90 108.00 400.00
C 99.04 390.34 104.51 367.96 118.75 368.60 C 133.76 366.31 137.81 381.77 136.00 396.00 Z"/>
</g>
<g fill="#000000" fill-opacity="0.97" stroke="None"><path d="
M 385.00 352.00 
C 363.28 356.86 351.68 387.70 365.75 407.25 C 380.07 423.40 422.40 419.47 423.60 395.75 C 429.48 369.55 409.28 348.73 385.00 352.00
M 408.00 396.00 
C 401.92 402.82 388.94 398.90 380.00 400.00
C 371.04 390.34 376.51 367.96 390.75 368.60 C 405.76 366.31 409.81 381.77 408.00 396.00 Z"/>
</g>
<g fill="#000000" fill-opacity="0.02" stroke="None"><path d="
M 136.00 396.00 
C 137.81 381.77 133.76 366.31 118.75 368.60 C 104.51 367.96 99.04 390.34 108.00 400.00
C 116.94 398.90 129.92 402.82 136.00 396.00 Z"/>
</g>
<g fill="#000000" fill-opacity="1.00" stroke="None"><path d="
M 175.00 512.00 
L 340.00 512.00
C 340.23 510.00 342.19 508.31 344.00 508.00
C 343.96 476.49 344.03 443.20 344.00 411.00 C 342.18 396.95 348.13 378.22 340.00 368.00
C 337.11 368.21 334.68 369.33 332.00 368.00
C 324.32 377.13 329.53 394.03 328.00 407.00 C 328.00 436.67 328.00 466.33 328.00 496.00
C 280.00 496.00 232.00 496.00 184.00 496.00
C 184.00 466.00 184.00 436.00 184.00 406.00 C 182.41 393.47 187.79 376.77 180.00 368.00
C 177.11 368.21 174.68 369.33 172.00 368.00
C 163.98 378.56 169.75 397.52 168.00 412.00 C 167.97 443.86 168.04 476.83 168.00 508.00
C 170.41 508.95 172.49 511.02 175.00 512.00 Z"/>
</g>
<g fill="#000000" fill-opacity="0.02" stroke="None"><path d="
M 408.00 396.00 
C 409.81 381.77 405.76 366.31 390.75 368.60 C 376.51 367.96 371.04 390.34 380.00 400.00
C 388.94 398.90 401.92 402.82 408.00 396.00 Z"/>
</g>
</svg>