<svg xmlns="http://www.w3.org/2000/svg" xmlns:v="https://svgstorm.com"
viewBox = "0 0 512 512"
width="512"
height="512">
<g fill="None" fill-opacity="0.0" stroke="#000000" stroke-opacity="0.01" stroke-width="0.3"><path d="
M 0.00 159.00 
C 4.25 125.59 9.86 106.52 30.75 82.75 C 51.59 56.75 73.47 45.63 100.25 38.81 C 126.58 31.66 163.27 35.53 184.77 46.57 C 206.61 54.21 230.69 80.73 255.00 106.00
C 281.17 82.93 304.21 55.27 326.30 46.29 C 349.15 36.73 382.90 31.09 411.25 38.80 C 437.49 45.05 457.22 55.50 480.30 80.70 C 499.12 102.02 505.90 122.49 512.00 151.00
L 512.00 0.00
L 0.00 0.00
L 0.00 159.00 Z"/>
</g>
<g fill="None" fill-opacity="0.0" stroke="#000000" stroke-opacity="0.99" stroke-width="0.3"><path d="
M 0.00 159.00 
L 0.00 178.00
C 6.35 218.59 18.14 240.97 54.75 274.25 C 118.82 342.67 191.03 407.74 254.00 477.00
C 322.27 412.23 388.33 343.17 455.75 276.75 C 492.37 243.17 505.68 217.82 512.00 180.00
L 512.00 151.00
C 505.90 122.49 499.12 102.02 480.30 80.70 C 457.22 55.50 437.49 45.05 411.25 38.80 C 382.90 31.09 349.15 36.73 326.30 46.29 C 304.21 55.27 281.17 82.93 255.00 106.00
C 230.69 80.73 206.61 54.21 184.77 46.57 C 163.27 35.53 126.58 31.66 100.25 38.81 C 73.47 45.63 51.59 56.75 30.75 82.75 C 9.86 106.52 4.25 125.59 0.00 159.00
M 255.00 148.00 
C 275.93 130.60 296.48 106.93 315.30 89.30 C 333.68 74.95 350.80 66.02 375.03 65.98 C 401.89 63.59 423.18 71.52 439.77 84.24 C 460.37 98.84 472.22 117.18 477.80 137.25 C 484.64 157.87 482.85 187.82 473.41 206.75 C 456.53 242.84 401.66 285.30 366.25 324.25 C 345.77 344.40 325.80 365.37 305.00 385.00
C 305.66 362.75 303.67 339.80 306.00 318.00
C 329.47 313.15 354.90 299.56 369.19 274.75 C 382.76 257.22 385.74 229.09 387.00 204.00
C 376.84 204.76 367.33 202.51 357.00 201.00
C 356.12 219.94 354.84 241.12 346.42 254.77 C 337.48 273.95 316.46 284.80 299.25 289.59 C 279.23 296.95 234.81 295.46 213.77 290.79 C 197.22 284.49 179.00 279.34 166.91 260.08 C 156.78 245.88 154.37 223.82 155.00 202.00
C 144.20 202.89 134.33 203.73 124.00 204.00
C 125.79 246.22 131.71 273.89 163.90 300.10 C 177.31 309.55 189.58 314.55 207.00 319.00
C 207.00 341.33 207.00 363.67 207.00 386.00
C 179.30 359.64 155.63 331.35 127.25 304.75 C 100.89 278.54 70.04 249.52 48.43 224.23 C 32.30 203.60 25.46 168.40 33.80 137.75 C 39.63 112.18 65.27 83.98 88.92 73.87 C 113.02 61.71 155.66 62.85 176.92 76.13 C 200.81 88.21 229.11 123.02 255.00 148.00
M 256.00 435.00 
C 249.42 427.67 238.31 421.55 236.00 412.00 C 236.00 383.00 236.00 354.00 236.00 325.00 C 247.25 321.20 263.65 322.64 275.74 324.26 C 276.34 353.13 275.83 382.09 276.00 411.00 C 273.86 421.06 261.52 426.40 256.00 435.00 Z"/>
</g>
<g fill="None" fill-opacity="0.0" stroke="#000000" stroke-opacity="0.01" stroke-width="0.3"><path d="
M 255.00 148.00 
C 229.11 123.02 200.81 88.21 176.92 76.13 C 155.66 62.85 113.02 61.71 88.92 73.87 C 65.27 83.98 39.63 112.18 33.80 137.75 C 25.46 168.40 32.30 203.60 48.43 224.23 C 70.04 249.52 100.89 278.54 127.25 304.75 C 155.63 331.35 179.30 359.64 207.00 386.00
C 207.00 363.67 207.00 341.33 207.00 319.00
C 189.58 314.55 177.31 309.55 163.90 300.10 C 131.71 273.89 125.79 246.22 124.00 204.00
C 134.33 203.73 144.20 202.89 155.00 202.00
C 154.37 223.82 156.78 245.88 166.91 260.08 C 179.00 279.34 197.22 284.49 213.77 290.79 C 234.81 295.46 279.23 296.95 299.25 289.59 C 316.46 284.80 337.48 273.95 346.42 254.77 C 354.84 241.12 356.12 219.94 357.00 201.00
C 367.33 202.51 376.84 204.76 387.00 204.00
C 385.74 229.09 382.76 257.22 369.19 274.75 C 354.90 299.56 329.47 313.15 306.00 318.00
C 303.67 339.80 305.66 362.75 305.00 385.00
C 325.80 365.37 345.77 344.40 366.25 324.25 C 401.66 285.30 456.53 242.84 473.41 206.75 C 482.85 187.82 484.64 157.87 477.80 137.25 C 472.22 117.18 460.37 98.84 439.77 84.24 C 423.18 71.52 401.89 63.59 375.03 65.98 C 350.80 66.02 333.68 74.95 315.30 89.30 C 296.48 106.93 275.93 130.60 255.00 148.00
M 247.00 172.00 
C 269.21 170.13 289.51 178.61 299.39 198.75 C 308.31 214.77 306.46 240.55 292.30 253.30 C 263.04 290.98 197.66 259.76 207.80 212.75 C 209.13 193.96 229.79 175.57 247.00 172.00 Z"/>
</g>
<g fill="None" fill-opacity="0.0" stroke="#000000" stroke-opacity="0.98" stroke-width="0.3"><path d="
M 247.00 172.00 
C 229.79 175.57 209.13 193.96 207.80 212.75 C 197.66 259.76 263.04 290.98 292.30 253.30 C 306.46 240.55 308.31 214.77 299.39 198.75 C 289.51 178.61 269.21 170.13 247.00 172.00
M 258.00 201.00 
C 269.62 202.61 280.95 218.75 272.42 230.77 C 265.93 244.01 244.97 242.64 238.29 229.70 C 232.69 215.14 243.00 201.03 258.00 201.00 Z"/>
</g>
<g fill="None" fill-opacity="0.0" stroke="#000000" stroke-opacity="0.00" stroke-width="0.3"><path d="
M 0.00 512.00 
L 512.00 512.00
L 512.00 180.00
C 505.68 217.82 492.37 243.17 455.75 276.75 C 388.33 343.17 322.27 412.23 254.00 477.00
C 191.03 407.74 118.82 342.67 54.75 274.25 C 18.14 240.97 6.35 218.59 0.00 178.00
L 0.00 512.00 Z"/>
</g>
<g fill="None" fill-opacity="0.0" stroke="#000000" stroke-opacity="0.03" stroke-width="0.3"><path d="
M 258.00 201.00 
C 243.00 201.03 232.69 215.14 238.29 229.70 C 244.97 242.64 265.93 244.01 272.42 230.77 C 280.95 218.75 269.62 202.61 258.00 201.00 Z"/>
</g>
<g fill="None" fill-opacity="0.0" stroke="#000000" stroke-opacity="0.05" stroke-width="0.3"><path d="
M 256.00 435.00 
C 261.52 426.40 273.86 421.06 276.00 411.00 C 275.83 382.09 276.34 353.13 275.74 324.26 C 263.65 322.64 247.25 321.20 236.00 325.00 C 236.00 354.00 236.00 383.00 236.00 412.00 C 238.31 421.55 249.42 427.67 256.00 435.00 Z"/>
</g>
<g fill="#000000" fill-opacity="0.01" stroke="None"><path d="
M 0.00 159.00 
C 4.25 125.59 9.86 106.52 30.75 82.75 C 51.59 56.75 73.47 45.63 100.25 38.81 C 126.58 31.66 163.27 35.53 184.77 46.57 C 206.61 54.21 230.69 80.73 255.00 106.00
C 281.17 82.93 304.21 55.27 326.30 46.29 C 349.15 36.73 382.90 31.09 411.25 38.80 C 437.49 45.05 457.22 55.50 480.30 80.70 C 499.12 102.02 505.90 122.49 512.00 151.00
L 512.00 0.00
L 0.00 0.00
L 0.00 159.00 Z"/>
</g>
<g fill="#000000" fill-opacity="0.99" stroke="None"><path d="
M 0.00 159.00 
L 0.00 178.00
C 6.35 218.59 18.14 240.97 54.75 274.25 C 118.82 342.67 191.03 407.74 254.00 477.00
C 322.27 412.23 388.33 343.17 455.75 276.75 C 492.37 243.17 505.68 217.82 512.00 180.00
L 512.00 151.00
C 505.90 122.49 499.12 102.02 480.30 80.70 C 457.22 55.50 437.49 45.05 411.25 38.80 C 382.90 31.09 349.15 36.73 326.30 46.29 C 304.21 55.27 281.17 82.93 255.00 106.00
C 230.69 80.73 206.61 54.21 184.77 46.57 C 163.27 35.53 126.58 31.66 100.25 38.81 C 73.47 45.63 51.59 56.75 30.75 82.75 C 9.86 106.52 4.25 125.59 0.00 159.00
M 255.00 148.00 
C 275.93 130.60 296.48 106.93 315.30 89.30 C 333.68 74.95 350.80 66.02 375.03 65.98 C 401.89 63.59 423.18 71.52 439.77 84.24 C 460.37 98.84 472.22 117.18 477.80 137.25 C 484.64 157.87 482.85 187.82 473.41 206.75 C 456.53 242.84 401.66 285.30 366.25 324.25 C 345.77 344.40 325.80 365.37 305.00 385.00
C 305.66 362.75 303.67 339.80 306.00 318.00
C 329.47 313.15 354.90 299.56 369.19 274.75 C 382.76 257.22 385.74 229.09 387.00 204.00
C 376.84 204.76 367.33 202.51 357.00 201.00
C 356.12 219.94 354.84 241.12 346.42 254.77 C 337.48 273.95 316.46 284.80 299.25 289.59 C 279.23 296.95 234.81 295.46 213.77 290.79 C 197.22 284.49 179.00 279.34 166.91 260.08 C 156.78 245.88 154.37 223.82 155.00 202.00
C 144.20 202.89 134.33 203.73 124.00 204.00
C 125.79 246.22 131.71 273.89 163.90 300.10 C 177.31 309.55 189.58 314.55 207.00 319.00
C 207.00 341.33 207.00 363.67 207.00 386.00
C 179.30 359.64 155.63 331.35 127.25 304.75 C 100.89 278.54 70.04 249.52 48.43 224.23 C 32.30 203.60 25.46 168.40 33.80 137.75 C 39.63 112.18 65.27 83.98 88.92 73.87 C 113.02 61.71 155.66 62.85 176.92 76.13 C 200.81 88.21 229.11 123.02 255.00 148.00
M 256.00 435.00 
C 249.42 427.67 238.31 421.55 236.00 412.00 C 236.00 383.00 236.00 354.00 236.00 325.00 C 247.25 321.20 263.65 322.64 275.74 324.26 C 276.34 353.13 275.83 382.09 276.00 411.00 C 273.86 421.06 261.52 426.40 256.00 435.00 Z"/>
</g>
<g fill="#000000" fill-opacity="0.01" stroke="None"><path d="
M 255.00 148.00 
C 229.11 123.02 200.81 88.21 176.92 76.13 C 155.66 62.85 113.02 61.71 88.92 73.87 C 65.27 83.98 39.63 112.18 33.80 137.75 C 25.46 168.40 32.30 203.60 48.43 224.23 C 70.04 249.52 100.89 278.54 127.25 304.75 C 155.63 331.35 179.30 359.64 207.00 386.00
C 207.00 363.67 207.00 341.33 207.00 319.00
C 189.58 314.55 177.31 309.55 163.90 300.10 C 131.71 273.89 125.79 246.22 124.00 204.00
C 134.33 203.73 144.20 202.89 155.00 202.00
C 154.37 223.82 156.78 245.88 166.91 260.08 C 179.00 279.34 197.22 284.49 213.77 290.79 C 234.81 295.46 279.23 296.95 299.25 289.59 C 316.46 284.80 337.48 273.95 346.42 254.77 C 354.84 241.12 356.12 219.94 357.00 201.00
C 367.33 202.51 376.84 204.76 387.00 204.00
C 385.74 229.09 382.76 257.22 369.19 274.75 C 354.90 299.56 329.47 313.15 306.00 318.00
C 303.67 339.80 305.66 362.75 305.00 385.00
C 325.80 365.37 345.77 344.40 366.25 324.25 C 401.66 285.30 456.53 242.84 473.41 206.75 C 482.85 187.82 484.64 157.87 477.80 137.25 C 472.22 117.18 460.37 98.84 439.77 84.24 C 423.18 71.52 401.89 63.59 375.03 65.98 C 350.80 66.02 333.68 74.95 315.30 89.30 C 296.48 106.93 275.93 130.60 255.00 148.00
M 247.00 172.00 
C 269.21 170.13 289.51 178.61 299.39 198.75 C 308.31 214.77 306.46 240.55 292.30 253.30 C 263.04 290.98 197.66 259.76 207.80 212.75 C 209.13 193.96 229.79 175.57 247.00 172.00 Z"/>
</g>
<g fill="#000000" fill-opacity="0.98" stroke="None"><path d="
M 247.00 172.00 
C 229.79 175.57 209.13 193.96 207.80 212.75 C 197.66 259.76 263.04 290.98 292.30 253.30 C 306.46 240.55 308.31 214.77 299.39 198.75 C 289.51 178.61 269.21 170.13 247.00 172.00
M 258.00 201.00 
C 269.62 202.61 280.95 218.75 272.42 230.77 C 265.93 244.01 244.97 242.64 238.29 229.70 C 232.69 215.14 243.00 201.03 258.00 201.00 Z"/>
</g>
<g fill="#000000" fill-opacity="0.00" stroke="None"><path d="
M 0.00 512.00 
L 512.00 512.00
L 512.00 180.00
C 505.68 217.82 492.37 243.17 455.75 276.75 C 388.33 343.17 322.27 412.23 254.00 477.00
C 191.03 407.74 118.82 342.67 54.75 274.25 C 18.14 240.97 6.35 218.59 0.00 178.00
L 0.00 512.00 Z"/>
</g>
<g fill="#000000" fill-opacity="0.03" stroke="None"><path d="
M 258.00 201.00 
C 243.00 201.03 232.69 215.14 238.29 229.70 C 244.97 242.64 265.93 244.01 272.42 230.77 C 280.95 218.75 269.62 202.61 258.00 201.00 Z"/>
</g>
<g fill="#000000" fill-opacity="0.05" stroke="None"><path d="
M 256.00 435.00 
C 261.52 426.40 273.86 421.06 276.00 411.00 C 275.83 382.09 276.34 353.13 275.74 324.26 C 263.65 322.64 247.25 321.20 236.00 325.00 C 236.00 354.00 236.00 383.00 236.00 412.00 C 238.31 421.55 249.42 427.67 256.00 435.00 Z"/>
</g>
</svg>