<svg xmlns="http://www.w3.org/2000/svg" xmlns:v="https://svgstorm.com"
viewBox = "0 0 512 512"
width="512"
height="512">
<g fill="None" fill-opacity="0.0" stroke="#000000" stroke-opacity="0.00" stroke-width="0.3"><path d="
M 0.00 512.00 
L 512.00 512.00
L 512.00 0.00
L 0.00 0.00
L 0.00 512.00
M 298.00 220.00 
C 298.61 244.61 296.77 269.88 298.93 294.07 C 304.73 311.27 319.69 323.70 328.75 339.25 C 341.76 356.16 338.06 380.30 327.23 397.23 C 317.60 412.83 311.19 431.25 300.30 445.30 C 278.51 460.11 262.27 426.72 277.77 410.77 C 285.66 395.14 304.09 376.62 291.23 358.77 C 280.09 344.14 265.62 330.37 262.00 312.00
C 245.22 305.86 247.31 329.11 236.75 336.75 C 229.75 346.55 216.67 358.36 224.92 371.08 C 230.53 383.36 240.31 395.91 237.07 410.07 C 234.68 424.49 213.45 427.73 205.25 415.75 C 196.18 391.34 172.53 365.70 190.78 338.78 C 196.24 326.92 205.28 316.53 209.00 304.00
C 193.90 321.70 175.67 302.05 170.23 286.77 C 160.73 271.79 151.19 255.96 147.67 238.33 C 144.08 194.81 199.09 186.81 231.00 181.00 C 250.54 172.13 272.83 184.57 291.69 174.69 C 321.10 151.59 325.65 112.75 338.78 80.78 C 339.50 57.85 376.62 59.83 374.00 83.00 C 365.33 118.81 353.53 154.31 336.08 187.08 C 326.75 200.93 314.22 215.12 298.00 220.00
M 264.00 99.00 
C 288.29 104.90 300.35 138.41 282.25 157.25 C 266.20 177.33 230.59 171.01 222.23 146.77 C 211.58 121.21 236.83 92.57 264.00 99.00 Z"/>
</g>
<g fill="None" fill-opacity="0.0" stroke="#212121" stroke-opacity="0.92" stroke-width="0.3"><path d="
M 298.00 220.00 
C 314.22 215.12 326.75 200.93 336.08 187.08 C 353.53 154.31 365.33 118.81 374.00 83.00 C 376.62 59.83 339.50 57.85 338.78 80.78 C 325.65 112.75 321.10 151.59 291.69 174.69 C 272.83 184.57 250.54 172.13 231.00 181.00 C 199.09 186.81 144.08 194.81 147.67 238.33 C 151.19 255.96 160.73 271.79 170.23 286.77 C 175.67 302.05 193.90 321.70 209.00 304.00
C 205.28 316.53 196.24 326.92 190.78 338.78 C 172.53 365.70 196.18 391.34 205.25 415.75 C 213.45 427.73 234.68 424.49 237.07 410.07 C 240.31 395.91 230.53 383.36 224.92 371.08 C 216.67 358.36 229.75 346.55 236.75 336.75 C 247.31 329.11 245.22 305.86 262.00 312.00
C 265.62 330.37 280.09 344.14 291.23 358.77 C 304.09 376.62 285.66 395.14 277.77 410.77 C 262.27 426.72 278.51 460.11 300.30 445.30 C 311.19 431.25 317.60 412.83 327.23 397.23 C 338.06 380.30 341.76 356.16 328.75 339.25 C 319.69 323.70 304.73 311.27 298.93 294.07 C 296.77 269.88 298.61 244.61 298.00 220.00
M 358.00 77.00 
C 365.59 85.53 355.73 96.08 354.07 105.07 C 341.65 140.10 333.98 181.57 300.75 204.75 C 289.83 207.86 281.28 213.84 285.00 227.00 C 287.33 260.44 275.98 299.46 302.25 324.75 C 313.07 340.05 330.40 357.28 321.67 377.67 C 315.65 395.62 302.81 410.37 296.02 428.03 C 292.90 443.95 277.31 429.81 287.31 420.31 C 295.83 403.31 311.78 387.25 308.22 366.78 C 304.69 348.07 286.79 336.23 278.25 319.75 C 274.29 311.65 272.87 298.79 261.00 299.00 C 236.10 292.05 236.16 323.02 222.08 335.08 C 206.90 349.63 206.67 371.73 219.30 387.70 C 224.21 393.19 229.81 415.68 216.25 407.75 C 212.47 388.77 191.92 373.54 198.99 352.99 C 213.26 325.63 232.55 299.65 227.00 266.00 C 227.00 253.33 227.00 240.67 227.00 228.00 C 231.72 212.76 219.70 206.35 206.33 210.33 C 186.06 210.26 162.47 225.98 172.98 249.02 C 177.15 257.63 181.25 266.33 186.92 274.08 C 189.76 281.50 203.16 290.71 194.77 297.77 C 180.53 287.22 173.62 267.20 164.23 251.77 C 151.70 233.48 163.80 211.19 184.08 206.08 C 214.75 194.83 247.58 187.72 281.00 192.00 C 321.57 182.69 332.42 135.66 343.98 101.98 C 349.55 94.38 346.49 78.36 358.00 77.00
M 213.00 223.00 
C 212.34 248.25 214.33 274.20 212.00 299.00
C 213.99 276.65 187.60 262.24 185.01 239.99 C 183.11 224.96 202.32 223.76 213.00 223.00 Z"/>
</g>
<g fill="None" fill-opacity="0.0" stroke="#000000" stroke-opacity="0.00" stroke-width="0.3"><path d="
M 358.00 77.00 
C 346.49 78.36 349.55 94.38 343.98 101.98 C 332.42 135.66 321.57 182.69 281.00 192.00 C 247.58 187.72 214.75 194.83 184.08 206.08 C 163.80 211.19 151.70 233.48 164.23 251.77 C 173.62 267.20 180.53 287.22 194.77 297.77 C 203.16 290.71 189.76 281.50 186.92 274.08 C 181.25 266.33 177.15 257.63 172.98 249.02 C 162.47 225.98 186.06 210.26 206.33 210.33 C 219.70 206.35 231.72 212.76 227.00 228.00 C 227.00 240.67 227.00 253.33 227.00 266.00 C 232.55 299.65 213.26 325.63 198.99 352.99 C 191.92 373.54 212.47 388.77 216.25 407.75 C 229.81 415.68 224.21 393.19 219.30 387.70 C 206.67 371.73 206.90 349.63 222.08 335.08 C 236.16 323.02 236.10 292.05 261.00 299.00 C 272.87 298.79 274.29 311.65 278.25 319.75 C 286.79 336.23 304.69 348.07 308.22 366.78 C 311.78 387.25 295.83 403.31 287.31 420.31 C 277.31 429.81 292.90 443.95 296.02 428.03 C 302.81 410.37 315.65 395.62 321.67 377.67 C 330.40 357.28 313.07 340.05 302.25 324.75 C 275.98 299.46 287.33 260.44 285.00 227.00 C 281.28 213.84 289.83 207.86 300.75 204.75 C 333.98 181.57 341.65 140.10 354.07 105.07 C 355.73 96.08 365.59 85.53 358.00 77.00 Z"/>
</g>
<g fill="None" fill-opacity="0.0" stroke="#212121" stroke-opacity="0.92" stroke-width="0.3"><path d="
M 264.00 99.00 
C 236.83 92.57 211.58 121.21 222.23 146.77 C 230.59 171.01 266.20 177.33 282.25 157.25 C 300.35 138.41 288.29 104.90 264.00 99.00
M 256.00 111.00 
C 284.39 111.15 284.23 157.81 255.26 156.60 C 226.05 157.06 227.08 110.15 256.00 111.00 Z"/>
</g>
<g fill="None" fill-opacity="0.0" stroke="#000000" stroke-opacity="0.00" stroke-width="0.3"><path d="
M 256.00 111.00 
C 227.08 110.15 226.05 157.06 255.26 156.60 C 284.23 157.81 284.39 111.15 256.00 111.00 Z"/>
</g>
<g fill="None" fill-opacity="0.0" stroke="#000000" stroke-opacity="0.00" stroke-width="0.3"><path d="
M 213.00 223.00 
C 202.32 223.76 183.11 224.96 185.01 239.99 C 187.60 262.24 213.99 276.65 212.00 299.00
C 214.33 274.20 212.34 248.25 213.00 223.00 Z"/>
</g>
<g fill="#000000" fill-opacity="0.00" stroke="None"><path d="
M 0.00 512.00 
L 512.00 512.00
L 512.00 0.00
L 0.00 0.00
L 0.00 512.00
M 298.00 220.00 
C 298.61 244.61 296.77 269.88 298.93 294.07 C 304.73 311.27 319.69 323.70 328.75 339.25 C 341.76 356.16 338.06 380.30 327.23 397.23 C 317.60 412.83 311.19 431.25 300.30 445.30 C 278.51 460.11 262.27 426.72 277.77 410.77 C 285.66 395.14 304.09 376.62 291.23 358.77 C 280.09 344.14 265.62 330.37 262.00 312.00
C 245.22 305.86 247.31 329.11 236.75 336.75 C 229.75 346.55 216.67 358.36 224.92 371.08 C 230.53 383.36 240.31 395.91 237.07 410.07 C 234.68 424.49 213.45 427.73 205.25 415.75 C 196.18 391.34 172.53 365.70 190.78 338.78 C 196.24 326.92 205.28 316.53 209.00 304.00
C 193.90 321.70 175.67 302.05 170.23 286.77 C 160.73 271.79 151.19 255.96 147.67 238.33 C 144.08 194.81 199.09 186.81 231.00 181.00 C 250.54 172.13 272.83 184.57 291.69 174.69 C 321.10 151.59 325.65 112.75 338.78 80.78 C 339.50 57.85 376.62 59.83 374.00 83.00 C 365.33 118.81 353.53 154.31 336.08 187.08 C 326.75 200.93 314.22 215.12 298.00 220.00
M 264.00 99.00 
C 288.29 104.90 300.35 138.41 282.25 157.25 C 266.20 177.33 230.59 171.01 222.23 146.77 C 211.58 121.21 236.83 92.57 264.00 99.00 Z"/>
</g>
<g fill="#212121" fill-opacity="0.92" stroke="None"><path d="
M 298.00 220.00 
C 314.22 215.12 326.75 200.93 336.08 187.08 C 353.53 154.31 365.33 118.81 374.00 83.00 C 376.62 59.83 339.50 57.85 338.78 80.78 C 325.65 112.75 321.10 151.59 291.69 174.69 C 272.83 184.57 250.54 172.13 231.00 181.00 C 199.09 186.81 144.08 194.81 147.67 238.33 C 151.19 255.96 160.73 271.79 170.23 286.77 C 175.67 302.05 193.90 321.70 209.00 304.00
C 205.28 316.53 196.24 326.92 190.78 338.78 C 172.53 365.70 196.18 391.34 205.25 415.75 C 213.45 427.73 234.68 424.49 237.07 410.07 C 240.31 395.91 230.53 383.36 224.92 371.08 C 216.67 358.36 229.75 346.55 236.75 336.75 C 247.31 329.11 245.22 305.86 262.00 312.00
C 265.62 330.37 280.09 344.14 291.23 358.77 C 304.09 376.62 285.66 395.14 277.77 410.77 C 262.27 426.72 278.51 460.11 300.30 445.30 C 311.19 431.25 317.60 412.83 327.23 397.23 C 338.06 380.30 341.76 356.16 328.75 339.25 C 319.69 323.70 304.73 311.27 298.93 294.07 C 296.77 269.88 298.61 244.61 298.00 220.00
M 358.00 77.00 
C 365.59 85.53 355.73 96.08 354.07 105.07 C 341.65 140.10 333.98 181.57 300.75 204.75 C 289.83 207.86 281.28 213.84 285.00 227.00 C 287.33 260.44 275.98 299.46 302.25 324.75 C 313.07 340.05 330.40 357.28 321.67 377.67 C 315.65 395.62 302.81 410.37 296.02 428.03 C 292.90 443.95 277.31 429.81 287.31 420.31 C 295.83 403.31 311.78 387.25 308.22 366.78 C 304.69 348.07 286.79 336.23 278.25 319.75 C 274.29 311.65 272.87 298.79 261.00 299.00 C 236.10 292.05 236.16 323.02 222.08 335.08 C 206.90 349.63 206.67 371.73 219.30 387.70 C 224.21 393.19 229.81 415.68 216.25 407.75 C 212.47 388.77 191.92 373.54 198.99 352.99 C 213.26 325.63 232.55 299.65 227.00 266.00 C 227.00 253.33 227.00 240.67 227.00 228.00 C 231.72 212.76 219.70 206.35 206.33 210.33 C 186.06 210.26 162.47 225.98 172.98 249.02 C 177.15 257.63 181.25 266.33 186.92 274.08 C 189.76 281.50 203.16 290.71 194.77 297.77 C 180.53 287.22 173.62 267.20 164.23 251.77 C 151.70 233.48 163.80 211.19 184.08 206.08 C 214.75 194.83 247.58 187.72 281.00 192.00 C 321.57 182.69 332.42 135.66 343.98 101.98 C 349.55 94.38 346.49 78.36 358.00 77.00
M 213.00 223.00 
C 212.34 248.25 214.33 274.20 212.00 299.00
C 213.99 276.65 187.60 262.24 185.01 239.99 C 183.11 224.96 202.32 223.76 213.00 223.00 Z"/>
</g>
<g fill="#000000" fill-opacity="0.00" stroke="None"><path d="
M 358.00 77.00 
C 346.49 78.36 349.55 94.38 343.98 101.98 C 332.42 135.66 321.57 182.69 281.00 192.00 C 247.58 187.72 214.75 194.83 184.08 206.08 C 163.80 211.19 151.70 233.48 164.23 251.77 C 173.62 267.20 180.53 287.22 194.77 297.77 C 203.16 290.71 189.76 281.50 186.92 274.08 C 181.25 266.33 177.15 257.63 172.98 249.02 C 162.47 225.98 186.06 210.26 206.33 210.33 C 219.70 206.35 231.72 212.76 227.00 228.00 C 227.00 240.67 227.00 253.33 227.00 266.00 C 232.55 299.65 213.26 325.63 198.99 352.99 C 191.92 373.54 212.47 388.77 216.25 407.75 C 229.81 415.68 224.21 393.19 219.30 387.70 C 206.67 371.73 206.90 349.63 222.08 335.08 C 236.16 323.02 236.10 292.05 261.00 299.00 C 272.87 298.79 274.29 311.65 278.25 319.75 C 286.79 336.23 304.69 348.07 308.22 366.78 C 311.78 387.25 295.83 403.31 287.31 420.31 C 277.31 429.81 292.90 443.95 296.02 428.03 C 302.81 410.37 315.65 395.62 321.67 377.67 C 330.40 357.28 313.07 340.05 302.25 324.75 C 275.98 299.46 287.33 260.44 285.00 227.00 C 281.28 213.84 289.83 207.86 300.75 204.75 C 333.98 181.57 341.65 140.10 354.07 105.07 C 355.73 96.08 365.59 85.53 358.00 77.00 Z"/>
</g>
<g fill="#212121" fill-opacity="0.92" stroke="None"><path d="
M 264.00 99.00 
C 236.83 92.57 211.58 121.21 222.23 146.77 C 230.59 171.01 266.20 177.33 282.25 157.25 C 300.35 138.41 288.29 104.90 264.00 99.00
M 256.00 111.00 
C 284.39 111.15 284.23 157.81 255.26 156.60 C 226.05 157.06 227.08 110.15 256.00 111.00 Z"/>
</g>
<g fill="#000000" fill-opacity="0.00" stroke="None"><path d="
M 256.00 111.00 
C 227.08 110.15 226.05 157.06 255.26 156.60 C 284.23 157.81 284.39 111.15 256.00 111.00 Z"/>
</g>
<g fill="#000000" fill-opacity="0.00" stroke="None"><path d="
M 213.00 223.00 
C 202.32 223.76 183.11 224.96 185.01 239.99 C 187.60 262.24 213.99 276.65 212.00 299.00
C 214.33 274.20 212.34 248.25 213.00 223.00 Z"/>
</g>
</svg>