<svg xmlns="http://www.w3.org/2000/svg" xmlns:v="https://svgstorm.com"
viewBox = "0 0 512 512"
width="512"
height="512">
<g fill="None" fill-opacity="0.0" stroke="#000000" stroke-opacity="0.00" stroke-width="0.3"><path d="
M 0.00 512.00 
L 211.00 512.00
C 188.84 502.70 191.43 486.27 192.00 458.00 C 192.57 429.73 191.70 395.41 192.00 366.00 C 192.30 336.59 191.78 303.73 192.00 274.00
C 182.47 275.03 174.35 277.66 165.00 278.00
C 163.95 295.99 168.73 317.64 160.29 328.30 C 151.85 338.97 138.98 342.21 127.23 335.42 C 115.48 328.64 112.21 316.37 114.00 299.00 C 115.79 281.63 110.70 254.54 116.71 241.70 C 122.73 228.86 134.05 224.87 148.00 225.00
C 148.12 212.92 147.84 201.11 148.00 189.00 C 148.16 176.89 147.70 165.21 148.00 153.00 C 148.30 140.79 147.35 129.44 148.00 117.00 C 148.65 104.56 146.57 93.97 148.00 81.00 C 149.43 68.03 132.92 71.67 124.00 73.00
C 122.94 70.97 121.87 67.83 119.00 68.00
C 123.47 55.41 114.51 35.28 124.00 27.00
C 158.72 27.04 195.49 26.97 231.00 27.00
C 231.94 16.52 227.54 2.54 238.00 0.00
L 0.00 0.00
L 0.00 512.00 Z"/>
</g>
<g fill="None" fill-opacity="0.0" stroke="#000000" stroke-opacity="0.98" stroke-width="0.3"><path d="
M 211.00 512.00 
L 224.00 512.00
C 231.78 505.62 242.92 503.97 243.76 488.75 C 244.59 473.53 243.80 445.12 244.00 429.00 C 244.20 412.88 240.16 396.88 256.25 396.80 C 272.33 396.72 268.66 416.19 269.00 432.00 C 269.34 447.81 268.33 475.36 269.31 489.70 C 270.29 504.03 279.66 506.03 289.00 512.00
L 299.00 512.00
C 323.13 504.66 320.67 487.47 320.00 459.00 C 319.33 430.53 320.35 396.64 320.00 367.00 C 319.65 337.36 320.26 303.98 320.00 274.00
C 329.20 274.96 337.73 277.82 347.00 278.00
C 349.61 296.18 342.01 316.97 350.39 327.75 C 358.78 338.54 372.52 341.92 384.30 335.29 C 396.09 328.66 400.85 314.91 399.00 297.00 C 397.15 279.09 402.41 253.30 395.81 240.75 C 389.21 228.20 376.29 225.01 364.00 225.00
C 363.63 208.83 364.49 194.34 364.00 178.00 C 363.51 161.66 364.92 146.83 364.00 130.00 C 363.08 113.17 366.01 101.03 364.00 83.00 C 361.99 64.97 385.63 77.50 393.00 68.00
C 388.92 58.00 395.14 43.32 392.40 33.25 C 389.65 23.18 373.39 27.70 362.00 27.00 C 350.61 26.30 334.45 27.36 322.00 27.00 C 309.55 26.64 293.75 27.27 281.00 27.00
C 280.54 17.73 282.65 6.83 278.00 1.00
C 276.64 2.13 273.98 1.31 273.00 0.00
L 238.00 0.00
C 227.54 2.54 231.94 16.52 231.00 27.00
C 195.49 26.97 158.72 27.04 124.00 27.00
C 114.51 35.28 123.47 55.41 119.00 68.00
C 121.87 67.83 122.94 70.97 124.00 73.00
C 132.92 71.67 149.43 68.03 148.00 81.00 C 146.57 93.97 148.65 104.56 148.00 117.00 C 147.35 129.44 148.30 140.79 148.00 153.00 C 147.70 165.21 148.16 176.89 148.00 189.00 C 147.84 201.11 148.12 212.92 148.00 225.00
C 134.05 224.87 122.73 228.86 116.71 241.70 C 110.70 254.54 115.79 281.63 114.00 299.00 C 112.21 316.37 115.48 328.64 127.23 335.42 C 138.98 342.21 151.85 338.97 160.29 328.30 C 168.73 317.64 163.95 295.99 165.00 278.00
C 174.35 277.66 182.47 275.03 192.00 274.00
C 191.78 303.73 192.30 336.59 192.00 366.00 C 191.70 395.41 192.57 429.73 192.00 458.00 C 191.43 486.27 188.84 502.70 211.00 512.00
M 264.00 17.00 
C 264.68 30.72 259.52 45.61 276.00 45.00 C 292.49 44.38 309.43 45.32 326.00 45.00 C 342.57 44.68 359.41 45.24 376.00 45.00
C 379.40 62.45 358.69 54.63 347.00 56.00 C 335.31 57.37 317.76 54.64 306.00 56.00 C 294.24 57.36 279.24 53.93 269.25 55.40 C 259.26 56.86 266.17 74.51 264.00 83.00
C 258.67 83.00 253.33 83.00 248.00 83.00
C 247.40 71.87 250.73 59.83 243.00 55.00
C 235.57 57.11 227.90 55.45 220.00 56.00 C 212.10 56.55 204.03 55.22 196.00 56.00 C 187.97 56.78 179.05 54.52 171.00 56.00 C 162.95 57.48 154.99 52.69 147.00 56.00 C 139.01 59.31 130.39 48.29 138.08 44.08 C 145.78 39.88 153.54 45.99 162.00 44.00 C 170.46 42.01 177.67 45.39 187.00 44.00 C 196.33 42.61 199.89 45.69 211.00 44.00 C 222.11 42.31 244.82 48.75 247.19 38.75 C 249.56 28.75 247.15 27.22 248.00 17.00
C 253.33 17.00 258.67 17.00 264.00 17.00
M 231.00 72.00 
C 231.82 80.38 229.77 87.04 231.19 94.25 C 232.62 101.46 238.92 96.81 245.00 99.00 C 251.08 101.19 247.28 115.97 248.00 123.00 C 248.72 130.03 247.81 142.16 248.00 150.00 C 248.19 157.84 248.66 168.41 247.00 176.00
C 227.02 176.48 205.20 197.73 204.00 218.00
C 190.50 219.64 178.67 220.35 165.00 223.00
C 166.67 173.26 166.67 121.71 165.00 72.00
C 187.00 72.00 209.00 72.00 231.00 72.00
M 347.00 72.00 
C 345.33 121.74 345.33 173.28 347.00 223.00
C 333.78 220.49 321.29 219.67 308.00 218.00
C 306.88 197.98 285.48 176.60 265.00 176.00
C 263.45 168.59 263.66 158.68 264.00 151.00 C 264.34 143.32 263.06 130.95 264.00 124.00 C 264.94 117.05 260.86 102.40 266.08 99.08 C 271.30 95.76 279.53 102.32 280.71 94.70 C 281.90 87.08 280.48 80.67 281.00 72.00
C 303.00 72.00 325.00 72.00 347.00 72.00
M 248.00 193.00 
C 247.51 203.22 249.09 214.77 247.00 224.00
C 249.80 223.89 251.02 226.94 252.00 229.00
C 256.99 228.46 261.85 228.71 265.00 224.00
C 263.10 214.68 264.37 203.27 264.00 193.00
C 288.21 198.18 300.02 227.24 285.87 247.92 C 271.72 268.60 241.06 268.66 226.74 248.25 C 212.41 227.84 223.08 198.52 248.00 193.00
M 203.00 235.00 
C 205.21 261.81 229.78 281.08 256.08 281.07 C 282.38 281.06 306.54 261.93 309.00 235.00
C 318.40 237.12 326.87 238.44 336.70 239.31 C 346.52 240.17 352.71 241.65 363.25 242.80 C 373.79 243.96 381.70 243.69 381.00 259.00 C 380.30 274.31 380.39 293.94 381.00 309.00 C 381.61 324.06 366.25 324.54 363.24 312.75 C 360.24 300.96 366.20 276.37 362.29 267.70 C 358.38 259.03 347.52 260.49 338.25 259.60 C 328.98 258.72 321.00 252.18 310.33 254.33 C 299.66 256.48 303.23 277.57 303.00 291.00 C 302.77 304.43 303.10 325.83 303.00 341.00 C 302.90 356.17 303.03 375.09 303.00 391.00 C 302.97 406.91 302.98 424.86 303.00 441.00 C 303.02 457.14 302.92 474.53 303.00 490.00
C 283.10 505.32 286.27 474.38 286.00 458.00 C 285.73 441.62 288.06 410.33 284.80 397.75 C 281.55 385.18 267.31 378.28 255.92 378.07 C 244.52 377.85 230.69 386.09 227.23 398.23 C 223.78 410.37 226.39 441.50 226.00 458.00 C 225.61 474.50 229.20 505.02 209.00 490.00
C 209.12 476.29 209.06 461.19 209.00 446.00 C 208.94 430.81 209.26 413.33 209.00 398.00 C 208.74 382.67 209.62 365.02 209.00 350.00 C 208.38 334.98 210.40 316.05 209.00 302.00 C 207.60 287.95 212.72 268.62 207.81 258.75 C 202.90 248.87 189.92 257.63 181.75 257.20 C 173.59 256.77 165.55 262.15 155.92 262.92 C 146.29 263.69 148.67 282.12 149.00 294.00 C 149.33 305.88 150.94 322.44 138.00 322.00
C 124.03 311.51 134.28 281.92 131.00 261.00 C 127.72 240.08 147.61 242.79 161.25 240.81 C 174.89 238.82 189.06 238.22 203.00 235.00 Z"/>
</g>
<g fill="None" fill-opacity="0.0" stroke="#000000" stroke-opacity="0.00" stroke-width="0.3"><path d="
M 299.00 512.00 
L 512.00 512.00
L 512.00 0.00
L 273.00 0.00
C 273.98 1.31 276.64 2.13 278.00 1.00
C 282.65 6.83 280.54 17.73 281.00 27.00
C 293.75 27.27 309.55 26.64 322.00 27.00 C 334.45 27.36 350.61 26.30 362.00 27.00 C 373.39 27.70 389.65 23.18 392.40 33.25 C 395.14 43.32 388.92 58.00 393.00 68.00
C 385.63 77.50 361.99 64.97 364.00 83.00 C 366.01 101.03 363.08 113.17 364.00 130.00 C 364.92 146.83 363.51 161.66 364.00 178.00 C 364.49 194.34 363.63 208.83 364.00 225.00
C 376.29 225.01 389.21 228.20 395.81 240.75 C 402.41 253.30 397.15 279.09 399.00 297.00 C 400.85 314.91 396.09 328.66 384.30 335.29 C 372.52 341.92 358.78 338.54 350.39 327.75 C 342.01 316.97 349.61 296.18 347.00 278.00
C 337.73 277.82 329.20 274.96 320.00 274.00
C 320.26 303.98 319.65 337.36 320.00 367.00 C 320.35 396.64 319.33 430.53 320.00 459.00 C 320.67 487.47 323.13 504.66 299.00 512.00 Z"/>
</g>
<g fill="None" fill-opacity="0.0" stroke="#000000" stroke-opacity="0.08" stroke-width="0.3"><path d="
M 264.00 17.00 
C 258.67 17.00 253.33 17.00 248.00 17.00
C 247.15 27.22 249.56 28.75 247.19 38.75 C 244.82 48.75 222.11 42.31 211.00 44.00 C 199.89 45.69 196.33 42.61 187.00 44.00 C 177.67 45.39 170.46 42.01 162.00 44.00 C 153.54 45.99 145.78 39.88 138.08 44.08 C 130.39 48.29 139.01 59.31 147.00 56.00 C 154.99 52.69 162.95 57.48 171.00 56.00 C 179.05 54.52 187.97 56.78 196.00 56.00 C 204.03 55.22 212.10 56.55 220.00 56.00 C 227.90 55.45 235.57 57.11 243.00 55.00
C 250.73 59.83 247.40 71.87 248.00 83.00
C 253.33 83.00 258.67 83.00 264.00 83.00
C 266.17 74.51 259.26 56.86 269.25 55.40 C 279.24 53.93 294.24 57.36 306.00 56.00 C 317.76 54.64 335.31 57.37 347.00 56.00 C 358.69 54.63 379.40 62.45 376.00 45.00
C 359.41 45.24 342.57 44.68 326.00 45.00 C 309.43 45.32 292.49 44.38 276.00 45.00 C 259.52 45.61 264.68 30.72 264.00 17.00 Z"/>
</g>
<g fill="None" fill-opacity="0.0" stroke="#000000" stroke-opacity="0.02" stroke-width="0.3"><path d="
M 231.00 72.00 
C 209.00 72.00 187.00 72.00 165.00 72.00
C 166.67 121.71 166.67 173.26 165.00 223.00
C 178.67 220.35 190.50 219.64 204.00 218.00
C 205.20 197.73 227.02 176.48 247.00 176.00
C 248.66 168.41 248.19 157.84 248.00 150.00 C 247.81 142.16 248.72 130.03 248.00 123.00 C 247.28 115.97 251.08 101.19 245.00 99.00 C 238.92 96.81 232.62 101.46 231.19 94.25 C 229.77 87.04 231.82 80.38 231.00 72.00 Z"/>
</g>
<g fill="None" fill-opacity="0.0" stroke="#000000" stroke-opacity="0.02" stroke-width="0.3"><path d="
M 347.00 72.00 
C 325.00 72.00 303.00 72.00 281.00 72.00
C 280.48 80.67 281.90 87.08 280.71 94.70 C 279.53 102.32 271.30 95.76 266.08 99.08 C 260.86 102.40 264.94 117.05 264.00 124.00 C 263.06 130.95 264.34 143.32 264.00 151.00 C 263.66 158.68 263.45 168.59 265.00 176.00
C 285.48 176.60 306.88 197.98 308.00 218.00
C 321.29 219.67 333.78 220.49 347.00 223.00
C 345.33 173.28 345.33 121.74 347.00 72.00 Z"/>
</g>
<g fill="None" fill-opacity="0.0" stroke="#000000" stroke-opacity="0.03" stroke-width="0.3"><path d="
M 248.00 193.00 
C 223.08 198.52 212.41 227.84 226.74 248.25 C 241.06 268.66 271.72 268.60 285.87 247.92 C 300.02 227.24 288.21 198.18 264.00 193.00
C 264.37 203.27 263.10 214.68 265.00 224.00
C 261.85 228.71 256.99 228.46 252.00 229.00
C 251.02 226.94 249.80 223.89 247.00 224.00
C 249.09 214.77 247.51 203.22 248.00 193.00 Z"/>
</g>
<g fill="None" fill-opacity="0.0" stroke="#000000" stroke-opacity="0.02" stroke-width="0.3"><path d="
M 203.00 235.00 
C 189.06 238.22 174.89 238.82 161.25 240.81 C 147.61 242.79 127.72 240.08 131.00 261.00 C 134.28 281.92 124.03 311.51 138.00 322.00
C 150.94 322.44 149.33 305.88 149.00 294.00 C 148.67 282.12 146.29 263.69 155.92 262.92 C 165.55 262.15 173.59 256.77 181.75 257.20 C 189.92 257.63 202.90 248.87 207.81 258.75 C 212.72 268.62 207.60 287.95 209.00 302.00 C 210.40 316.05 208.38 334.98 209.00 350.00 C 209.62 365.02 208.74 382.67 209.00 398.00 C 209.26 413.33 208.94 430.81 209.00 446.00 C 209.06 461.19 209.12 476.29 209.00 490.00
C 229.20 505.02 225.61 474.50 226.00 458.00 C 226.39 441.50 223.78 410.37 227.23 398.23 C 230.69 386.09 244.52 377.85 255.92 378.07 C 267.31 378.28 281.55 385.18 284.80 397.75 C 288.06 410.33 285.73 441.62 286.00 458.00 C 286.27 474.38 283.10 505.32 303.00 490.00
C 302.92 474.53 303.02 457.14 303.00 441.00 C 302.98 424.86 302.97 406.91 303.00 391.00 C 303.03 375.09 302.90 356.17 303.00 341.00 C 303.10 325.83 302.77 304.43 303.00 291.00 C 303.23 277.57 299.66 256.48 310.33 254.33 C 321.00 252.18 328.98 258.72 338.25 259.60 C 347.52 260.49 358.38 259.03 362.29 267.70 C 366.20 276.37 360.24 300.96 363.24 312.75 C 366.25 324.54 381.61 324.06 381.00 309.00 C 380.39 293.94 380.30 274.31 381.00 259.00 C 381.70 243.69 373.79 243.96 363.25 242.80 C 352.71 241.65 346.52 240.17 336.70 239.31 C 326.87 238.44 318.40 237.12 309.00 235.00
C 306.54 261.93 282.38 281.06 256.08 281.07 C 229.78 281.08 205.21 261.81 203.00 235.00 Z"/>
</g>
<g fill="None" fill-opacity="0.0" stroke="#000000" stroke-opacity="0.02" stroke-width="0.3"><path d="
M 224.00 512.00 
L 289.00 512.00
C 279.66 506.03 270.29 504.03 269.31 489.70 C 268.33 475.36 269.34 447.81 269.00 432.00 C 268.66 416.19 272.33 396.72 256.25 396.80 C 240.16 396.88 244.20 412.88 244.00 429.00 C 243.80 445.12 244.59 473.53 243.76 488.75 C 242.92 503.97 231.78 505.62 224.00 512.00 Z"/>
</g>
<g fill="#000000" fill-opacity="0.00" stroke="None"><path d="
M 0.00 512.00 
L 211.00 512.00
C 188.84 502.70 191.43 486.27 192.00 458.00 C 192.57 429.73 191.70 395.41 192.00 366.00 C 192.30 336.59 191.78 303.73 192.00 274.00
C 182.47 275.03 174.35 277.66 165.00 278.00
C 163.95 295.99 168.73 317.64 160.29 328.30 C 151.85 338.97 138.98 342.21 127.23 335.42 C 115.48 328.64 112.21 316.37 114.00 299.00 C 115.79 281.63 110.70 254.54 116.71 241.70 C 122.73 228.86 134.05 224.87 148.00 225.00
C 148.12 212.92 147.84 201.11 148.00 189.00 C 148.16 176.89 147.70 165.21 148.00 153.00 C 148.30 140.79 147.35 129.44 148.00 117.00 C 148.65 104.56 146.57 93.97 148.00 81.00 C 149.43 68.03 132.92 71.67 124.00 73.00
C 122.94 70.97 121.87 67.83 119.00 68.00
C 123.47 55.41 114.51 35.28 124.00 27.00
C 158.72 27.04 195.49 26.97 231.00 27.00
C 231.94 16.52 227.54 2.54 238.00 0.00
L 0.00 0.00
L 0.00 512.00 Z"/>
</g>
<g fill="#000000" fill-opacity="0.98" stroke="None"><path d="
M 211.00 512.00 
L 224.00 512.00
C 231.78 505.62 242.92 503.97 243.76 488.75 C 244.59 473.53 243.80 445.12 244.00 429.00 C 244.20 412.88 240.16 396.88 256.25 396.80 C 272.33 396.72 268.66 416.19 269.00 432.00 C 269.34 447.81 268.33 475.36 269.31 489.70 C 270.29 504.03 279.66 506.03 289.00 512.00
L 299.00 512.00
C 323.13 504.66 320.67 487.47 320.00 459.00 C 319.33 430.53 320.35 396.64 320.00 367.00 C 319.65 337.36 320.26 303.98 320.00 274.00
C 329.20 274.96 337.73 277.82 347.00 278.00
C 349.61 296.18 342.01 316.97 350.39 327.75 C 358.78 338.54 372.52 341.92 384.30 335.29 C 396.09 328.66 400.85 314.91 399.00 297.00 C 397.15 279.09 402.41 253.30 395.81 240.75 C 389.21 228.20 376.29 225.01 364.00 225.00
C 363.63 208.83 364.49 194.34 364.00 178.00 C 363.51 161.66 364.92 146.83 364.00 130.00 C 363.08 113.17 366.01 101.03 364.00 83.00 C 361.99 64.97 385.63 77.50 393.00 68.00
C 388.92 58.00 395.14 43.32 392.40 33.25 C 389.65 23.18 373.39 27.70 362.00 27.00 C 350.61 26.30 334.45 27.36 322.00 27.00 C 309.55 26.64 293.75 27.27 281.00 27.00
C 280.54 17.73 282.65 6.83 278.00 1.00
C 276.64 2.13 273.98 1.31 273.00 0.00
L 238.00 0.00
C 227.54 2.54 231.94 16.52 231.00 27.00
C 195.49 26.97 158.72 27.04 124.00 27.00
C 114.51 35.28 123.47 55.41 119.00 68.00
C 121.87 67.83 122.94 70.97 124.00 73.00
C 132.92 71.67 149.43 68.03 148.00 81.00 C 146.57 93.97 148.65 104.56 148.00 117.00 C 147.35 129.44 148.30 140.79 148.00 153.00 C 147.70 165.21 148.16 176.89 148.00 189.00 C 147.84 201.11 148.12 212.92 148.00 225.00
C 134.05 224.87 122.73 228.86 116.71 241.70 C 110.70 254.54 115.79 281.63 114.00 299.00 C 112.21 316.37 115.48 328.64 127.23 335.42 C 138.98 342.21 151.85 338.97 160.29 328.30 C 168.73 317.64 163.95 295.99 165.00 278.00
C 174.35 277.66 182.47 275.03 192.00 274.00
C 191.78 303.73 192.30 336.59 192.00 366.00 C 191.70 395.41 192.57 429.73 192.00 458.00 C 191.43 486.27 188.84 502.70 211.00 512.00
M 264.00 17.00 
C 264.68 30.72 259.52 45.61 276.00 45.00 C 292.49 44.38 309.43 45.32 326.00 45.00 C 342.57 44.68 359.41 45.24 376.00 45.00
C 379.40 62.45 358.69 54.63 347.00 56.00 C 335.31 57.37 317.76 54.64 306.00 56.00 C 294.24 57.36 279.24 53.93 269.25 55.40 C 259.26 56.86 266.17 74.51 264.00 83.00
C 258.67 83.00 253.33 83.00 248.00 83.00
C 247.40 71.87 250.73 59.83 243.00 55.00
C 235.57 57.11 227.90 55.45 220.00 56.00 C 212.10 56.55 204.03 55.22 196.00 56.00 C 187.97 56.78 179.05 54.52 171.00 56.00 C 162.95 57.48 154.99 52.69 147.00 56.00 C 139.01 59.31 130.39 48.29 138.08 44.08 C 145.78 39.88 153.54 45.99 162.00 44.00 C 170.46 42.01 177.67 45.39 187.00 44.00 C 196.33 42.61 199.89 45.69 211.00 44.00 C 222.11 42.31 244.82 48.75 247.19 38.75 C 249.56 28.75 247.15 27.22 248.00 17.00
C 253.33 17.00 258.67 17.00 264.00 17.00
M 231.00 72.00 
C 231.82 80.38 229.77 87.04 231.19 94.25 C 232.62 101.46 238.92 96.81 245.00 99.00 C 251.08 101.19 247.28 115.97 248.00 123.00 C 248.72 130.03 247.81 142.16 248.00 150.00 C 248.19 157.84 248.66 168.41 247.00 176.00
C 227.02 176.48 205.20 197.73 204.00 218.00
C 190.50 219.64 178.67 220.35 165.00 223.00
C 166.67 173.26 166.67 121.71 165.00 72.00
C 187.00 72.00 209.00 72.00 231.00 72.00
M 347.00 72.00 
C 345.33 121.74 345.33 173.28 347.00 223.00
C 333.78 220.49 321.29 219.67 308.00 218.00
C 306.88 197.98 285.48 176.60 265.00 176.00
C 263.45 168.59 263.66 158.68 264.00 151.00 C 264.34 143.32 263.06 130.95 264.00 124.00 C 264.94 117.05 260.86 102.40 266.08 99.08 C 271.30 95.76 279.53 102.32 280.71 94.70 C 281.90 87.08 280.48 80.67 281.00 72.00
C 303.00 72.00 325.00 72.00 347.00 72.00
M 248.00 193.00 
C 247.51 203.22 249.09 214.77 247.00 224.00
C 249.80 223.89 251.02 226.94 252.00 229.00
C 256.99 228.46 261.85 228.71 265.00 224.00
C 263.10 214.68 264.37 203.27 264.00 193.00
C 288.21 198.18 300.02 227.24 285.87 247.92 C 271.72 268.60 241.06 268.66 226.74 248.25 C 212.41 227.84 223.08 198.52 248.00 193.00
M 203.00 235.00 
C 205.21 261.81 229.78 281.08 256.08 281.07 C 282.38 281.06 306.54 261.93 309.00 235.00
C 318.40 237.12 326.87 238.44 336.70 239.31 C 346.52 240.17 352.71 241.65 363.25 242.80 C 373.79 243.96 381.70 243.69 381.00 259.00 C 380.30 274.31 380.39 293.94 381.00 309.00 C 381.61 324.06 366.25 324.54 363.24 312.75 C 360.24 300.96 366.20 276.37 362.29 267.70 C 358.38 259.03 347.52 260.49 338.25 259.60 C 328.98 258.72 321.00 252.18 310.33 254.33 C 299.66 256.48 303.23 277.57 303.00 291.00 C 302.77 304.43 303.10 325.83 303.00 341.00 C 302.90 356.17 303.03 375.09 303.00 391.00 C 302.97 406.91 302.98 424.86 303.00 441.00 C 303.02 457.14 302.92 474.53 303.00 490.00
C 283.10 505.32 286.27 474.38 286.00 458.00 C 285.73 441.62 288.06 410.33 284.80 397.75 C 281.55 385.18 267.31 378.28 255.92 378.07 C 244.52 377.85 230.69 386.09 227.23 398.23 C 223.78 410.37 226.39 441.50 226.00 458.00 C 225.61 474.50 229.20 505.02 209.00 490.00
C 209.12 476.29 209.06 461.19 209.00 446.00 C 208.94 430.81 209.26 413.33 209.00 398.00 C 208.74 382.67 209.62 365.02 209.00 350.00 C 208.38 334.98 210.40 316.05 209.00 302.00 C 207.60 287.95 212.72 268.62 207.81 258.75 C 202.90 248.87 189.92 257.63 181.75 257.20 C 173.59 256.77 165.55 262.15 155.92 262.92 C 146.29 263.69 148.67 282.12 149.00 294.00 C 149.33 305.88 150.94 322.44 138.00 322.00
C 124.03 311.51 134.28 281.92 131.00 261.00 C 127.72 240.08 147.61 242.79 161.25 240.81 C 174.89 238.82 189.06 238.22 203.00 235.00 Z"/>
</g>
<g fill="#000000" fill-opacity="0.00" stroke="None"><path d="
M 299.00 512.00 
L 512.00 512.00
L 512.00 0.00
L 273.00 0.00
C 273.98 1.31 276.64 2.13 278.00 1.00
C 282.65 6.83 280.54 17.73 281.00 27.00
C 293.75 27.27 309.55 26.64 322.00 27.00 C 334.45 27.36 350.61 26.30 362.00 27.00 C 373.39 27.70 389.65 23.18 392.40 33.25 C 395.14 43.32 388.92 58.00 393.00 68.00
C 385.63 77.50 361.99 64.97 364.00 83.00 C 366.01 101.03 363.08 113.17 364.00 130.00 C 364.92 146.83 363.51 161.66 364.00 178.00 C 364.49 194.34 363.63 208.83 364.00 225.00
C 376.29 225.01 389.21 228.20 395.81 240.75 C 402.41 253.30 397.15 279.09 399.00 297.00 C 400.85 314.91 396.09 328.66 384.30 335.29 C 372.52 341.92 358.78 338.54 350.39 327.75 C 342.01 316.97 349.61 296.18 347.00 278.00
C 337.73 277.82 329.20 274.96 320.00 274.00
C 320.26 303.98 319.65 337.36 320.00 367.00 C 320.35 396.64 319.33 430.53 320.00 459.00 C 320.67 487.47 323.13 504.66 299.00 512.00 Z"/>
</g>
<g fill="#000000" fill-opacity="0.08" stroke="None"><path d="
M 264.00 17.00 
C 258.67 17.00 253.33 17.00 248.00 17.00
C 247.15 27.22 249.56 28.75 247.19 38.75 C 244.82 48.75 222.11 42.31 211.00 44.00 C 199.89 45.69 196.33 42.61 187.00 44.00 C 177.67 45.39 170.46 42.01 162.00 44.00 C 153.54 45.99 145.78 39.88 138.08 44.08 C 130.39 48.29 139.01 59.31 147.00 56.00 C 154.99 52.69 162.95 57.48 171.00 56.00 C 179.05 54.52 187.97 56.78 196.00 56.00 C 204.03 55.22 212.10 56.55 220.00 56.00 C 227.90 55.45 235.57 57.11 243.00 55.00
C 250.73 59.83 247.40 71.87 248.00 83.00
C 253.33 83.00 258.67 83.00 264.00 83.00
C 266.17 74.51 259.26 56.86 269.25 55.40 C 279.24 53.93 294.24 57.36 306.00 56.00 C 317.76 54.64 335.31 57.37 347.00 56.00 C 358.69 54.63 379.40 62.45 376.00 45.00
C 359.41 45.24 342.57 44.68 326.00 45.00 C 309.43 45.32 292.49 44.38 276.00 45.00 C 259.52 45.61 264.68 30.72 264.00 17.00 Z"/>
</g>
<g fill="#000000" fill-opacity="0.02" stroke="None"><path d="
M 231.00 72.00 
C 209.00 72.00 187.00 72.00 165.00 72.00
C 166.67 121.71 166.67 173.26 165.00 223.00
C 178.67 220.35 190.50 219.64 204.00 218.00
C 205.20 197.73 227.02 176.48 247.00 176.00
C 248.66 168.41 248.19 157.84 248.00 150.00 C 247.81 142.16 248.72 130.03 248.00 123.00 C 247.28 115.97 251.08 101.19 245.00 99.00 C 238.92 96.81 232.62 101.46 231.19 94.25 C 229.77 87.04 231.82 80.38 231.00 72.00 Z"/>
</g>
<g fill="#000000" fill-opacity="0.02" stroke="None"><path d="
M 347.00 72.00 
C 325.00 72.00 303.00 72.00 281.00 72.00
C 280.48 80.67 281.90 87.08 280.71 94.70 C 279.53 102.32 271.30 95.76 266.08 99.08 C 260.86 102.40 264.94 117.05 264.00 124.00 C 263.06 130.95 264.34 143.32 264.00 151.00 C 263.66 158.68 263.45 168.59 265.00 176.00
C 285.48 176.60 306.88 197.98 308.00 218.00
C 321.29 219.67 333.78 220.49 347.00 223.00
C 345.33 173.28 345.33 121.74 347.00 72.00 Z"/>
</g>
<g fill="#000000" fill-opacity="0.03" stroke="None"><path d="
M 248.00 193.00 
C 223.08 198.52 212.41 227.84 226.74 248.25 C 241.06 268.66 271.72 268.60 285.87 247.92 C 300.02 227.24 288.21 198.18 264.00 193.00
C 264.37 203.27 263.10 214.68 265.00 224.00
C 261.85 228.71 256.99 228.46 252.00 229.00
C 251.02 226.94 249.80 223.89 247.00 224.00
C 249.09 214.77 247.51 203.22 248.00 193.00 Z"/>
</g>
<g fill="#000000" fill-opacity="0.02" stroke="None"><path d="
M 203.00 235.00 
C 189.06 238.22 174.89 238.82 161.25 240.81 C 147.61 242.79 127.72 240.08 131.00 261.00 C 134.28 281.92 124.03 311.51 138.00 322.00
C 150.94 322.44 149.33 305.88 149.00 294.00 C 148.67 282.12 146.29 263.69 155.92 262.92 C 165.55 262.15 173.59 256.77 181.75 257.20 C 189.92 257.63 202.90 248.87 207.81 258.75 C 212.72 268.62 207.60 287.95 209.00 302.00 C 210.40 316.05 208.38 334.98 209.00 350.00 C 209.62 365.02 208.74 382.67 209.00 398.00 C 209.26 413.33 208.94 430.81 209.00 446.00 C 209.06 461.19 209.12 476.29 209.00 490.00
C 229.20 505.02 225.61 474.50 226.00 458.00 C 226.39 441.50 223.78 410.37 227.23 398.23 C 230.69 386.09 244.52 377.85 255.92 378.07 C 267.31 378.28 281.55 385.18 284.80 397.75 C 288.06 410.33 285.73 441.62 286.00 458.00 C 286.27 474.38 283.10 505.32 303.00 490.00
C 302.92 474.53 303.02 457.14 303.00 441.00 C 302.98 424.86 302.97 406.91 303.00 391.00 C 303.03 375.09 302.90 356.17 303.00 341.00 C 303.10 325.83 302.77 304.43 303.00 291.00 C 303.23 277.57 299.66 256.48 310.33 254.33 C 321.00 252.18 328.98 258.72 338.25 259.60 C 347.52 260.49 358.38 259.03 362.29 267.70 C 366.20 276.37 360.24 300.96 363.24 312.75 C 366.25 324.54 381.61 324.06 381.00 309.00 C 380.39 293.94 380.30 274.31 381.00 259.00 C 381.70 243.69 373.79 243.96 363.25 242.80 C 352.71 241.65 346.52 240.17 336.70 239.31 C 326.87 238.44 318.40 237.12 309.00 235.00
C 306.54 261.93 282.38 281.06 256.08 281.07 C 229.78 281.08 205.21 261.81 203.00 235.00 Z"/>
</g>
<g fill="#000000" fill-opacity="0.02" stroke="None"><path d="
M 224.00 512.00 
L 289.00 512.00
C 279.66 506.03 270.29 504.03 269.31 489.70 C 268.33 475.36 269.34 447.81 269.00 432.00 C 268.66 416.19 272.33 396.72 256.25 396.80 C 240.16 396.88 244.20 412.88 244.00 429.00 C 243.80 445.12 244.59 473.53 243.76 488.75 C 242.92 503.97 231.78 505.62 224.00 512.00 Z"/>
</g>
</svg>