<svg xmlns="http://www.w3.org/2000/svg" xmlns:v="https://svgstorm.com"
viewBox = "0 0 512 512"
width="512"
height="512">
<g fill="None" fill-opacity="0.0" stroke="#000000" stroke-opacity="0.00" stroke-width="0.3"><path d="
M 0.00 512.00 
L 512.00 512.00
L 512.00 0.00
L 0.00 0.00
L 0.00 512.00
M 1.00 1.00 
C 15.61 0.04 37.07 2.28 51.00 1.00 C 64.93 -0.28 78.64 1.13 76.60 13.75 C 74.56 26.36 58.64 23.24 44.00 22.00 C 29.36 20.76 20.92 28.22 22.00 43.00 C 23.08 57.78 26.63 73.84 14.25 76.39 C 1.87 78.95 -0.46 66.16 1.00 52.00 C 2.46 37.84 -0.10 15.87 1.00 1.00
M 511.00 1.00 
C 511.97 15.42 509.71 36.22 511.00 50.00 C 512.29 63.78 511.20 78.62 498.25 76.60 C 485.31 74.57 489.11 57.35 490.00 43.00 C 490.89 28.65 483.82 21.90 470.00 22.00 C 456.18 22.10 438.28 27.75 435.09 14.90 C 431.91 2.05 447.65 -0.90 461.00 1.00 C 474.35 2.90 496.82 -0.42 511.00 1.00
M 424.00 87.00 
C 428.30 90.04 423.72 101.64 425.00 107.00 C 426.28 112.36 424.42 121.74 425.00 128.00 C 425.58 134.26 424.74 142.33 425.00 149.00 C 425.26 155.67 424.88 163.15 425.00 170.00 C 425.12 176.85 424.95 184.06 425.00 191.00 C 425.05 197.94 424.97 205.01 425.00 212.00 C 425.03 218.99 424.99 225.97 425.00 233.00 C 425.01 240.03 424.99 246.90 425.00 254.00 C 425.01 261.10 424.99 268.90 425.00 276.00 C 425.01 283.10 424.98 289.94 425.00 297.00 C 425.02 304.06 424.96 310.95 425.00 318.00 C 425.04 325.05 424.90 331.93 425.00 339.00 C 425.10 346.07 424.79 352.86 425.00 360.00 C 425.21 367.14 424.52 373.69 425.00 381.00 C 425.48 388.31 423.95 394.33 425.00 402.00 C 426.05 409.67 424.38 415.43 416.00 414.00 C 407.62 412.57 402.68 414.62 395.00 414.00 C 387.32 413.38 380.37 414.29 373.00 414.00 C 365.63 413.71 359.17 414.13 352.00 414.00 C 344.83 413.87 338.08 414.06 331.00 414.00 C 323.92 413.94 317.04 414.03 310.00 414.00 C 302.96 413.97 296.02 414.01 289.00 414.00 C 281.98 413.99 275.02 414.00 268.00 414.00 C 260.98 414.00 254.03 414.00 247.00 414.00 C 239.97 414.00 233.05 413.99 226.00 414.00 C 218.95 414.01 212.11 413.98 205.00 414.00 C 197.89 414.02 190.13 413.96 183.00 414.00 C 175.87 414.04 169.11 413.90 162.00 414.00 C 154.89 414.10 148.16 413.78 141.00 414.00 C 133.84 414.22 127.31 413.52 120.00 414.00 C 112.69 414.48 106.67 412.94 99.00 414.00 C 91.33 415.06 85.56 413.35 87.00 405.00 C 88.44 396.65 86.35 391.63 87.00 384.00 C 87.65 376.37 86.71 370.32 87.00 363.00 C 87.29 355.68 86.87 349.22 87.00 342.00 C 87.13 334.78 86.94 327.16 87.00 320.00 C 87.06 312.84 86.97 306.07 87.00 299.00 C 87.03 291.93 86.99 285.03 87.00 278.00 C 87.01 270.97 86.99 264.01 87.00 257.00 C 87.01 249.99 86.99 243.00 87.00 236.00 C 87.01 229.00 86.98 221.99 87.00 215.00 C 87.02 208.01 86.95 200.98 87.00 194.00 C 87.05 187.02 86.89 179.96 87.00 173.00 C 87.11 166.04 86.75 158.90 87.00 152.00 C 87.25 145.10 86.47 136.68 87.00 130.00 C 87.53 123.32 85.77 115.07 87.00 109.00 C 88.23 102.93 84.10 93.07 87.33 88.33 C 90.56 83.59 101.39 88.26 107.00 87.00 C 112.61 85.74 121.62 87.57 128.00 87.00 C 134.38 86.43 142.27 87.26 149.00 87.00 C 155.73 86.74 163.11 87.12 170.00 87.00 C 176.89 86.88 184.01 87.05 191.00 87.00 C 197.99 86.95 204.92 87.02 212.00 87.00 C 219.08 86.98 226.91 87.01 234.00 87.00 C 241.09 86.99 247.96 87.00 255.00 87.00 C 262.04 87.00 268.99 86.99 276.00 87.00 C 283.01 87.01 290.01 86.97 297.00 87.00 C 303.99 87.03 311.04 86.93 318.00 87.00 C 324.96 87.07 332.09 86.85 339.00 87.00 C 345.91 87.15 353.20 86.67 360.00 87.00 C 366.80 87.33 374.45 86.27 381.00 87.00 C 387.55 87.73 396.00 85.39 402.00 87.00 C 408.00 88.61 419.21 83.61 424.00 87.00
M 1.00 511.00 
C -0.11 496.81 2.47 475.47 1.00 462.00 C -0.47 448.53 1.08 432.42 14.25 435.20 C 27.41 437.98 22.38 455.13 22.00 469.00 C 21.62 482.87 27.58 490.62 42.00 490.00 C 56.42 489.38 73.80 484.99 76.39 497.75 C 78.99 510.52 64.93 512.54 51.00 511.00 C 37.07 509.46 15.62 512.15 1.00 511.00
M 511.00 511.00 
C 498.23 510.09 480.25 512.21 468.00 511.00 C 455.75 509.79 441.42 515.02 436.87 506.08 C 432.32 497.14 437.89 489.09 448.01 489.99 C 458.13 490.90 479.09 492.63 485.77 485.77 C 492.45 478.90 491.26 459.49 490.00 449.00 C 488.74 438.51 496.78 432.28 505.90 437.10 C 515.02 441.93 509.87 454.35 511.00 467.00 C 512.13 479.65 510.15 497.85 511.00 511.00 Z"/>
</g>
<g fill="None" fill-opacity="0.0" stroke="#000000" stroke-opacity="0.99" stroke-width="0.3"><path d="
M 1.00 1.00 
C -0.10 15.87 2.46 37.84 1.00 52.00 C -0.46 66.16 1.87 78.95 14.25 76.39 C 26.63 73.84 23.08 57.78 22.00 43.00 C 20.92 28.22 29.36 20.76 44.00 22.00 C 58.64 23.24 74.56 26.36 76.60 13.75 C 78.64 1.13 64.93 -0.28 51.00 1.00 C 37.07 2.28 15.61 0.04 1.00 1.00 Z"/>
</g>
<g fill="None" fill-opacity="0.0" stroke="#000000" stroke-opacity="0.99" stroke-width="0.3"><path d="
M 511.00 1.00 
C 496.82 -0.42 474.35 2.90 461.00 1.00 C 447.65 -0.90 431.91 2.05 435.09 14.90 C 438.28 27.75 456.18 22.10 470.00 22.00 C 483.82 21.90 490.89 28.65 490.00 43.00 C 489.11 57.35 485.31 74.57 498.25 76.60 C 511.20 78.62 512.29 63.78 511.00 50.00 C 509.71 36.22 511.97 15.42 511.00 1.00 Z"/>
</g>
<g fill="None" fill-opacity="0.0" stroke="#000000" stroke-opacity="0.96" stroke-width="0.3"><path d="
M 424.00 87.00 
C 419.21 83.61 408.00 88.61 402.00 87.00 C 396.00 85.39 387.55 87.73 381.00 87.00 C 374.45 86.27 366.80 87.33 360.00 87.00 C 353.20 86.67 345.91 87.15 339.00 87.00 C 332.09 86.85 324.96 87.07 318.00 87.00 C 311.04 86.93 303.99 87.03 297.00 87.00 C 290.01 86.97 283.01 87.01 276.00 87.00 C 268.99 86.99 262.04 87.00 255.00 87.00 C 247.96 87.00 241.09 86.99 234.00 87.00 C 226.91 87.01 219.08 86.98 212.00 87.00 C 204.92 87.02 197.99 86.95 191.00 87.00 C 184.01 87.05 176.89 86.88 170.00 87.00 C 163.11 87.12 155.73 86.74 149.00 87.00 C 142.27 87.26 134.38 86.43 128.00 87.00 C 121.62 87.57 112.61 85.74 107.00 87.00 C 101.39 88.26 90.56 83.59 87.33 88.33 C 84.10 93.07 88.23 102.93 87.00 109.00 C 85.77 115.07 87.53 123.32 87.00 130.00 C 86.47 136.68 87.25 145.10 87.00 152.00 C 86.75 158.90 87.11 166.04 87.00 173.00 C 86.89 179.96 87.05 187.02 87.00 194.00 C 86.95 200.98 87.02 208.01 87.00 215.00 C 86.98 221.99 87.01 229.00 87.00 236.00 C 86.99 243.00 87.01 249.99 87.00 257.00 C 86.99 264.01 87.01 270.97 87.00 278.00 C 86.99 285.03 87.03 291.93 87.00 299.00 C 86.97 306.07 87.06 312.84 87.00 320.00 C 86.94 327.16 87.13 334.78 87.00 342.00 C 86.87 349.22 87.29 355.68 87.00 363.00 C 86.71 370.32 87.65 376.37 87.00 384.00 C 86.35 391.63 88.44 396.65 87.00 405.00 C 85.56 413.35 91.33 415.06 99.00 414.00 C 106.67 412.94 112.69 414.48 120.00 414.00 C 127.31 413.52 133.84 414.22 141.00 414.00 C 148.16 413.78 154.89 414.10 162.00 414.00 C 169.11 413.90 175.87 414.04 183.00 414.00 C 190.13 413.96 197.89 414.02 205.00 414.00 C 212.11 413.98 218.95 414.01 226.00 414.00 C 233.05 413.99 239.97 414.00 247.00 414.00 C 254.03 414.00 260.98 414.00 268.00 414.00 C 275.02 414.00 281.98 413.99 289.00 414.00 C 296.02 414.01 302.96 413.97 310.00 414.00 C 317.04 414.03 323.92 413.94 331.00 414.00 C 338.08 414.06 344.83 413.87 352.00 414.00 C 359.17 414.13 365.63 413.71 373.00 414.00 C 380.37 414.29 387.32 413.38 395.00 414.00 C 402.68 414.62 407.62 412.57 416.00 414.00 C 424.38 415.43 426.05 409.67 425.00 402.00 C 423.95 394.33 425.48 388.31 425.00 381.00 C 424.52 373.69 425.21 367.14 425.00 360.00 C 424.79 352.86 425.10 346.07 425.00 339.00 C 424.90 331.93 425.04 325.05 425.00 318.00 C 424.96 310.95 425.02 304.06 425.00 297.00 C 424.98 289.94 425.01 283.10 425.00 276.00 C 424.99 268.90 425.01 261.10 425.00 254.00 C 424.99 246.90 425.01 240.03 425.00 233.00 C 424.99 225.97 425.03 218.99 425.00 212.00 C 424.97 205.01 425.05 197.94 425.00 191.00 C 424.95 184.06 425.12 176.85 425.00 170.00 C 424.88 163.15 425.26 155.67 425.00 149.00 C 424.74 142.33 425.58 134.26 425.00 128.00 C 424.42 121.74 426.28 112.36 425.00 107.00 C 423.72 101.64 428.30 90.04 424.00 87.00
M 118.00 109.00 
C 132.27 105.01 151.14 110.99 167.00 109.00 C 182.86 107.01 201.98 110.36 218.00 109.00 C 234.02 107.64 240.31 111.23 239.00 127.00 C 237.70 142.78 239.60 162.09 239.00 178.00 C 238.40 193.91 239.30 213.69 239.00 229.00 C 238.70 244.31 221.98 238.98 208.00 239.00 C 194.02 239.02 170.82 240.34 157.00 239.00 C 143.18 237.66 122.40 243.45 113.25 237.61 C 104.10 231.77 110.24 209.99 109.00 197.00 C 107.76 184.01 109.21 159.05 109.00 146.00 C 108.79 132.95 105.37 112.53 118.00 109.00
M 281.00 109.00 
C 293.97 107.53 312.29 111.15 326.00 110.00 C 339.71 108.85 360.29 110.26 373.00 110.00 C 385.71 109.74 401.67 106.46 402.80 119.25 C 403.93 132.03 401.18 150.36 402.00 164.00 C 402.82 177.64 402.01 197.93 402.00 211.00 C 401.99 224.07 405.98 238.58 393.25 239.39 C 380.52 240.21 362.59 238.70 349.00 239.00 C 335.41 239.30 314.84 239.48 302.00 239.00 C 289.16 238.52 274.03 243.96 272.81 230.75 C 271.58 217.55 273.61 198.55 273.00 185.00 C 272.39 171.45 273.17 150.62 273.00 138.00 C 272.83 125.38 269.83 110.27 281.00 109.00
M 118.00 261.00 
C 127.49 259.26 140.72 263.37 152.00 262.00 C 163.28 260.63 178.67 262.65 190.00 262.00 C 201.33 261.35 217.52 262.35 228.00 262.00 C 238.48 261.65 239.55 266.16 239.00 277.00 C 238.46 287.85 239.64 303.48 239.00 315.00 C 238.36 326.52 240.17 341.58 239.00 353.00 C 237.83 364.42 241.89 376.56 238.41 385.75 C 234.93 394.94 222.48 390.45 212.00 391.00 C 201.52 391.55 185.36 390.87 174.00 391.00 C 162.64 391.13 147.36 391.20 136.00 391.00 C 124.64 390.80 116.10 393.77 111.81 386.75 C 107.52 379.73 109.15 367.11 109.00 356.00 C 108.85 344.89 109.11 329.18 109.00 318.00 C 108.89 306.82 109.15 290.26 109.00 280.00 C 108.85 269.74 110.10 262.45 118.00 261.00
M 348.00 327.00 
C 360.61 326.94 380.79 322.14 388.30 329.71 C 395.81 337.29 387.73 356.06 391.00 370.00 C 394.27 383.94 387.62 394.89 373.00 391.00 C 358.38 387.11 340.08 396.01 330.75 389.81 C 321.41 383.61 329.97 360.40 327.00 348.00
C 313.88 346.95 296.92 354.35 287.75 345.25 C 278.57 336.15 287.58 315.70 284.00 302.00 C 280.42 288.30 289.62 280.44 303.00 284.00 C 316.38 287.56 337.04 278.68 345.75 286.26 C 354.47 293.85 343.84 314.73 348.00 327.00
M 367.00 283.00 
C 381.86 280.27 388.01 309.08 373.25 315.26 C 358.48 321.45 352.57 285.65 367.00 283.00
M 302.00 359.00 
C 317.93 355.79 322.46 387.20 306.92 391.92 C 291.39 396.65 288.33 361.76 302.00 359.00 Z"/>
</g>
<g fill="None" fill-opacity="0.0" stroke="#000000" stroke-opacity="0.02" stroke-width="0.3"><path d="
M 118.00 109.00 
C 105.37 112.53 108.79 132.95 109.00 146.00 C 109.21 159.05 107.76 184.01 109.00 197.00 C 110.24 209.99 104.10 231.77 113.25 237.61 C 122.40 243.45 143.18 237.66 157.00 239.00 C 170.82 240.34 194.02 239.02 208.00 239.00 C 221.98 238.98 238.70 244.31 239.00 229.00 C 239.30 213.69 238.40 193.91 239.00 178.00 C 239.60 162.09 237.70 142.78 239.00 127.00 C 240.31 111.23 234.02 107.64 218.00 109.00 C 201.98 110.36 182.86 107.01 167.00 109.00 C 151.14 110.99 132.27 105.01 118.00 109.00
M 218.00 131.00 
C 218.00 160.00 218.00 189.00 218.00 218.00
C 189.00 218.00 160.00 218.00 131.00 218.00
C 131.00 189.00 131.00 160.00 131.00 131.00
C 160.00 131.00 189.00 131.00 218.00 131.00 Z"/>
</g>
<g fill="None" fill-opacity="0.0" stroke="#000000" stroke-opacity="0.00" stroke-width="0.3"><path d="
M 281.00 109.00 
C 269.83 110.27 272.83 125.38 273.00 138.00 C 273.17 150.62 272.39 171.45 273.00 185.00 C 273.61 198.55 271.58 217.55 272.81 230.75 C 274.03 243.96 289.16 238.52 302.00 239.00 C 314.84 239.48 335.41 239.30 349.00 239.00 C 362.59 238.70 380.52 240.21 393.25 239.39 C 405.98 238.58 401.99 224.07 402.00 211.00 C 402.01 197.93 402.82 177.64 402.00 164.00 C 401.18 150.36 403.93 132.03 402.80 119.25 C 401.67 106.46 385.71 109.74 373.00 110.00 C 360.29 110.26 339.71 108.85 326.00 110.00 C 312.29 111.15 293.97 107.53 281.00 109.00
M 381.00 131.00 
C 381.00 160.00 381.00 189.00 381.00 218.00
C 352.00 218.00 323.00 218.00 294.00 218.00
C 294.00 189.00 294.00 160.00 294.00 131.00
C 323.00 131.00 352.00 131.00 381.00 131.00 Z"/>
</g>
<g fill="None" fill-opacity="0.0" stroke="#000000" stroke-opacity="0.99" stroke-width="0.3"><path d="
M 218.00 131.00 
C 189.00 131.00 160.00 131.00 131.00 131.00
C 131.00 160.00 131.00 189.00 131.00 218.00
C 160.00 218.00 189.00 218.00 218.00 218.00
C 218.00 189.00 218.00 160.00 218.00 131.00
M 163.00 163.00 
C 175.78 162.26 194.90 160.56 196.06 174.08 C 197.23 187.61 173.21 187.91 161.25 185.61 C 149.29 183.30 151.58 163.66 163.00 163.00 Z"/>
</g>
<g fill="None" fill-opacity="0.0" stroke="#000000" stroke-opacity="0.99" stroke-width="0.3"><path d="
M 381.00 131.00 
C 352.00 131.00 323.00 131.00 294.00 131.00
C 294.00 160.00 294.00 189.00 294.00 218.00
C 323.00 218.00 352.00 218.00 381.00 218.00
C 381.00 189.00 381.00 160.00 381.00 131.00
M 326.00 163.00 
C 338.03 162.31 358.53 160.40 358.98 174.03 C 359.43 187.66 336.80 188.17 324.25 185.61 C 311.70 183.04 314.14 163.68 326.00 163.00 Z"/>
</g>
<g fill="None" fill-opacity="0.0" stroke="#000000" stroke-opacity="0.04" stroke-width="0.3"><path d="
M 163.00 163.00 
C 151.58 163.66 149.29 183.30 161.25 185.61 C 173.21 187.91 197.23 187.61 196.06 174.08 C 194.90 160.56 175.78 162.26 163.00 163.00 Z"/>
</g>
<g fill="None" fill-opacity="0.0" stroke="#000000" stroke-opacity="0.04" stroke-width="0.3"><path d="
M 326.00 163.00 
C 314.14 163.68 311.70 183.04 324.25 185.61 C 336.80 188.17 359.43 187.66 358.98 174.03 C 358.53 160.40 338.03 162.31 326.00 163.00 Z"/>
</g>
<g fill="None" fill-opacity="0.0" stroke="#000000" stroke-opacity="0.01" stroke-width="0.3"><path d="
M 118.00 261.00 
C 110.10 262.45 108.85 269.74 109.00 280.00 C 109.15 290.26 108.89 306.82 109.00 318.00 C 109.11 329.18 108.85 344.89 109.00 356.00 C 109.15 367.11 107.52 379.73 111.81 386.75 C 116.10 393.77 124.64 390.80 136.00 391.00 C 147.36 391.20 162.64 391.13 174.00 391.00 C 185.36 390.87 201.52 391.55 212.00 391.00 C 222.48 390.45 234.93 394.94 238.41 385.75 C 241.89 376.56 237.83 364.42 239.00 353.00 C 240.17 341.58 238.36 326.52 239.00 315.00 C 239.64 303.48 238.46 287.85 239.00 277.00 C 239.55 266.16 238.48 261.65 228.00 262.00 C 217.52 262.35 201.33 261.35 190.00 262.00 C 178.67 262.65 163.28 260.63 152.00 262.00 C 140.72 263.37 127.49 259.26 118.00 261.00
M 218.00 283.00 
C 218.00 312.00 218.00 341.00 218.00 370.00
C 189.00 370.00 160.00 370.00 131.00 370.00
C 131.00 341.00 131.00 312.00 131.00 283.00
C 160.00 283.00 189.00 283.00 218.00 283.00 Z"/>
</g>
<g fill="None" fill-opacity="0.0" stroke="#000000" stroke-opacity="0.99" stroke-width="0.3"><path d="
M 218.00 283.00 
C 189.00 283.00 160.00 283.00 131.00 283.00
C 131.00 312.00 131.00 341.00 131.00 370.00
C 160.00 370.00 189.00 370.00 218.00 370.00
C 218.00 341.00 218.00 312.00 218.00 283.00
M 163.00 315.00 
C 175.47 314.28 197.54 313.06 196.34 327.68 C 195.14 342.29 171.31 337.98 160.70 336.29 C 150.08 334.59 151.25 315.68 163.00 315.00 Z"/>
</g>
<g fill="None" fill-opacity="0.0" stroke="#000000" stroke-opacity="0.01" stroke-width="0.3"><path d="
M 348.00 327.00 
C 343.84 314.73 354.47 293.85 345.75 286.26 C 337.04 278.68 316.38 287.56 303.00 284.00 C 289.62 280.44 280.42 288.30 284.00 302.00 C 287.58 315.70 278.57 336.15 287.75 345.25 C 296.92 354.35 313.88 346.95 327.00 348.00
C 329.97 360.40 321.41 383.61 330.75 389.81 C 340.08 396.01 358.38 387.11 373.00 391.00 C 387.62 394.89 394.27 383.94 391.00 370.00 C 387.73 356.06 395.81 337.29 388.30 329.71 C 380.79 322.14 360.61 326.94 348.00 327.00
M 327.00 304.00 
C 327.00 311.67 327.00 319.33 327.00 327.00
C 319.33 327.00 311.67 327.00 304.00 327.00
C 306.43 321.61 300.42 309.13 304.78 304.78 C 309.14 300.43 321.59 306.42 327.00 304.00
M 370.00 348.00 
C 370.00 355.33 370.00 362.67 370.00 370.00
C 362.67 370.00 355.33 370.00 348.00 370.00
C 348.00 362.67 348.00 355.33 348.00 348.00
C 355.33 348.00 362.67 348.00 370.00 348.00 Z"/>
</g>
<g fill="None" fill-opacity="0.0" stroke="#000000" stroke-opacity="0.03" stroke-width="0.3"><path d="
M 367.00 283.00 
C 352.57 285.65 358.48 321.45 373.25 315.26 C 388.01 309.08 381.86 280.27 367.00 283.00 Z"/>
</g>
<g fill="None" fill-opacity="0.0" stroke="#000000" stroke-opacity="0.89" stroke-width="0.3"><path d="
M 327.00 304.00 
C 321.59 306.42 309.14 300.43 304.78 304.78 C 300.42 309.13 306.43 321.61 304.00 327.00
C 311.67 327.00 319.33 327.00 327.00 327.00
C 327.00 319.33 327.00 311.67 327.00 304.00 Z"/>
</g>
<g fill="None" fill-opacity="0.0" stroke="#000000" stroke-opacity="0.04" stroke-width="0.3"><path d="
M 163.00 315.00 
C 151.25 315.68 150.08 334.59 160.70 336.29 C 171.31 337.98 195.14 342.29 196.34 327.68 C 197.54 313.06 175.47 314.28 163.00 315.00 Z"/>
</g>
<g fill="None" fill-opacity="0.0" stroke="#000000" stroke-opacity="0.97" stroke-width="0.3"><path d="
M 370.00 348.00 
C 362.67 348.00 355.33 348.00 348.00 348.00
C 348.00 355.33 348.00 362.67 348.00 370.00
C 355.33 370.00 362.67 370.00 370.00 370.00
C 370.00 362.67 370.00 355.33 370.00 348.00 Z"/>
</g>
<g fill="None" fill-opacity="0.0" stroke="#000000" stroke-opacity="0.03" stroke-width="0.3"><path d="
M 302.00 359.00 
C 288.33 361.76 291.39 396.65 306.92 391.92 C 322.46 387.20 317.93 355.79 302.00 359.00 Z"/>
</g>
<g fill="None" fill-opacity="0.0" stroke="#000000" stroke-opacity="0.99" stroke-width="0.3"><path d="
M 1.00 511.00 
C 15.62 512.15 37.07 509.46 51.00 511.00 C 64.93 512.54 78.99 510.52 76.39 497.75 C 73.80 484.99 56.42 489.38 42.00 490.00 C 27.58 490.62 21.62 482.87 22.00 469.00 C 22.38 455.13 27.41 437.98 14.25 435.20 C 1.08 432.42 -0.47 448.53 1.00 462.00 C 2.47 475.47 -0.11 496.81 1.00 511.00 Z"/>
</g>
<g fill="None" fill-opacity="0.0" stroke="#000000" stroke-opacity="0.99" stroke-width="0.3"><path d="
M 511.00 511.00 
C 510.15 497.85 512.13 479.65 511.00 467.00 C 509.87 454.35 515.02 441.93 505.90 437.10 C 496.78 432.28 488.74 438.51 490.00 449.00 C 491.26 459.49 492.45 478.90 485.77 485.77 C 479.09 492.63 458.13 490.90 448.01 489.99 C 437.89 489.09 432.32 497.14 436.87 506.08 C 441.42 515.02 455.75 509.79 468.00 511.00 C 480.25 512.21 498.23 510.09 511.00 511.00 Z"/>
</g>
<g fill="#000000" fill-opacity="0.00" stroke="None"><path d="
M 0.00 512.00 
L 512.00 512.00
L 512.00 0.00
L 0.00 0.00
L 0.00 512.00
M 1.00 1.00 
C 15.61 0.04 37.07 2.28 51.00 1.00 C 64.93 -0.28 78.64 1.13 76.60 13.75 C 74.56 26.36 58.64 23.24 44.00 22.00 C 29.36 20.76 20.92 28.22 22.00 43.00 C 23.08 57.78 26.63 73.84 14.25 76.39 C 1.87 78.95 -0.46 66.16 1.00 52.00 C 2.46 37.84 -0.10 15.87 1.00 1.00
M 511.00 1.00 
C 511.97 15.42 509.71 36.22 511.00 50.00 C 512.29 63.78 511.20 78.62 498.25 76.60 C 485.31 74.57 489.11 57.35 490.00 43.00 C 490.89 28.65 483.82 21.90 470.00 22.00 C 456.18 22.10 438.28 27.75 435.09 14.90 C 431.91 2.05 447.65 -0.90 461.00 1.00 C 474.35 2.90 496.82 -0.42 511.00 1.00
M 424.00 87.00 
C 428.30 90.04 423.72 101.64 425.00 107.00 C 426.28 112.36 424.42 121.74 425.00 128.00 C 425.58 134.26 424.74 142.33 425.00 149.00 C 425.26 155.67 424.88 163.15 425.00 170.00 C 425.12 176.85 424.95 184.06 425.00 191.00 C 425.05 197.94 424.97 205.01 425.00 212.00 C 425.03 218.99 424.99 225.97 425.00 233.00 C 425.01 240.03 424.99 246.90 425.00 254.00 C 425.01 261.10 424.99 268.90 425.00 276.00 C 425.01 283.10 424.98 289.94 425.00 297.00 C 425.02 304.06 424.96 310.95 425.00 318.00 C 425.04 325.05 424.90 331.93 425.00 339.00 C 425.10 346.07 424.79 352.86 425.00 360.00 C 425.21 367.14 424.52 373.69 425.00 381.00 C 425.48 388.31 423.95 394.33 425.00 402.00 C 426.05 409.67 424.38 415.43 416.00 414.00 C 407.62 412.57 402.68 414.62 395.00 414.00 C 387.32 413.38 380.37 414.29 373.00 414.00 C 365.63 413.71 359.17 414.13 352.00 414.00 C 344.83 413.87 338.08 414.06 331.00 414.00 C 323.92 413.94 317.04 414.03 310.00 414.00 C 302.96 413.97 296.02 414.01 289.00 414.00 C 281.98 413.99 275.02 414.00 268.00 414.00 C 260.98 414.00 254.03 414.00 247.00 414.00 C 239.97 414.00 233.05 413.99 226.00 414.00 C 218.95 414.01 212.11 413.98 205.00 414.00 C 197.89 414.02 190.13 413.96 183.00 414.00 C 175.87 414.04 169.11 413.90 162.00 414.00 C 154.89 414.10 148.16 413.78 141.00 414.00 C 133.84 414.22 127.31 413.52 120.00 414.00 C 112.69 414.48 106.67 412.94 99.00 414.00 C 91.33 415.06 85.56 413.35 87.00 405.00 C 88.44 396.65 86.35 391.63 87.00 384.00 C 87.65 376.37 86.71 370.32 87.00 363.00 C 87.29 355.68 86.87 349.22 87.00 342.00 C 87.13 334.78 86.94 327.16 87.00 320.00 C 87.06 312.84 86.97 306.07 87.00 299.00 C 87.03 291.93 86.99 285.03 87.00 278.00 C 87.01 270.97 86.99 264.01 87.00 257.00 C 87.01 249.99 86.99 243.00 87.00 236.00 C 87.01 229.00 86.98 221.99 87.00 215.00 C 87.02 208.01 86.95 200.98 87.00 194.00 C 87.05 187.02 86.89 179.96 87.00 173.00 C 87.11 166.04 86.75 158.90 87.00 152.00 C 87.25 145.10 86.47 136.68 87.00 130.00 C 87.53 123.32 85.77 115.07 87.00 109.00 C 88.23 102.93 84.10 93.07 87.33 88.33 C 90.56 83.59 101.39 88.26 107.00 87.00 C 112.61 85.74 121.62 87.57 128.00 87.00 C 134.38 86.43 142.27 87.26 149.00 87.00 C 155.73 86.74 163.11 87.12 170.00 87.00 C 176.89 86.88 184.01 87.05 191.00 87.00 C 197.99 86.95 204.92 87.02 212.00 87.00 C 219.08 86.98 226.91 87.01 234.00 87.00 C 241.09 86.99 247.96 87.00 255.00 87.00 C 262.04 87.00 268.99 86.99 276.00 87.00 C 283.01 87.01 290.01 86.97 297.00 87.00 C 303.99 87.03 311.04 86.93 318.00 87.00 C 324.96 87.07 332.09 86.85 339.00 87.00 C 345.91 87.15 353.20 86.67 360.00 87.00 C 366.80 87.33 374.45 86.27 381.00 87.00 C 387.55 87.73 396.00 85.39 402.00 87.00 C 408.00 88.61 419.21 83.61 424.00 87.00
M 1.00 511.00 
C -0.11 496.81 2.47 475.47 1.00 462.00 C -0.47 448.53 1.08 432.42 14.25 435.20 C 27.41 437.98 22.38 455.13 22.00 469.00 C 21.62 482.87 27.58 490.62 42.00 490.00 C 56.42 489.38 73.80 484.99 76.39 497.75 C 78.99 510.52 64.93 512.54 51.00 511.00 C 37.07 509.46 15.62 512.15 1.00 511.00
M 511.00 511.00 
C 498.23 510.09 480.25 512.21 468.00 511.00 C 455.75 509.79 441.42 515.02 436.87 506.08 C 432.32 497.14 437.89 489.09 448.01 489.99 C 458.13 490.90 479.09 492.63 485.77 485.77 C 492.45 478.90 491.26 459.49 490.00 449.00 C 488.74 438.51 496.78 432.28 505.90 437.10 C 515.02 441.93 509.87 454.35 511.00 467.00 C 512.13 479.65 510.15 497.85 511.00 511.00 Z"/>
</g>
<g fill="#000000" fill-opacity="0.99" stroke="None"><path d="
M 1.00 1.00 
C -0.10 15.87 2.46 37.84 1.00 52.00 C -0.46 66.16 1.87 78.95 14.25 76.39 C 26.63 73.84 23.08 57.78 22.00 43.00 C 20.92 28.22 29.36 20.76 44.00 22.00 C 58.64 23.24 74.56 26.36 76.60 13.75 C 78.64 1.13 64.93 -0.28 51.00 1.00 C 37.07 2.28 15.61 0.04 1.00 1.00 Z"/>
</g>
<g fill="#000000" fill-opacity="0.99" stroke="None"><path d="
M 511.00 1.00 
C 496.82 -0.42 474.35 2.90 461.00 1.00 C 447.65 -0.90 431.91 2.05 435.09 14.90 C 438.28 27.75 456.18 22.10 470.00 22.00 C 483.82 21.90 490.89 28.65 490.00 43.00 C 489.11 57.35 485.31 74.57 498.25 76.60 C 511.20 78.62 512.29 63.78 511.00 50.00 C 509.71 36.22 511.97 15.42 511.00 1.00 Z"/>
</g>
<g fill="#000000" fill-opacity="0.96" stroke="None"><path d="
M 424.00 87.00 
C 419.21 83.61 408.00 88.61 402.00 87.00 C 396.00 85.39 387.55 87.73 381.00 87.00 C 374.45 86.27 366.80 87.33 360.00 87.00 C 353.20 86.67 345.91 87.15 339.00 87.00 C 332.09 86.85 324.96 87.07 318.00 87.00 C 311.04 86.93 303.99 87.03 297.00 87.00 C 290.01 86.97 283.01 87.01 276.00 87.00 C 268.99 86.99 262.04 87.00 255.00 87.00 C 247.96 87.00 241.09 86.99 234.00 87.00 C 226.91 87.01 219.08 86.98 212.00 87.00 C 204.92 87.02 197.99 86.95 191.00 87.00 C 184.01 87.05 176.89 86.88 170.00 87.00 C 163.11 87.12 155.73 86.74 149.00 87.00 C 142.27 87.26 134.38 86.43 128.00 87.00 C 121.62 87.57 112.61 85.74 107.00 87.00 C 101.39 88.26 90.56 83.59 87.33 88.33 C 84.10 93.07 88.23 102.93 87.00 109.00 C 85.77 115.07 87.53 123.32 87.00 130.00 C 86.47 136.68 87.25 145.10 87.00 152.00 C 86.75 158.90 87.11 166.04 87.00 173.00 C 86.89 179.96 87.05 187.02 87.00 194.00 C 86.95 200.98 87.02 208.01 87.00 215.00 C 86.98 221.99 87.01 229.00 87.00 236.00 C 86.99 243.00 87.01 249.99 87.00 257.00 C 86.99 264.01 87.01 270.97 87.00 278.00 C 86.99 285.03 87.03 291.93 87.00 299.00 C 86.97 306.07 87.06 312.84 87.00 320.00 C 86.94 327.16 87.13 334.78 87.00 342.00 C 86.87 349.22 87.29 355.68 87.00 363.00 C 86.71 370.32 87.65 376.37 87.00 384.00 C 86.35 391.63 88.44 396.65 87.00 405.00 C 85.56 413.35 91.33 415.06 99.00 414.00 C 106.67 412.94 112.69 414.48 120.00 414.00 C 127.31 413.52 133.84 414.22 141.00 414.00 C 148.16 413.78 154.89 414.10 162.00 414.00 C 169.11 413.90 175.87 414.04 183.00 414.00 C 190.13 413.96 197.89 414.02 205.00 414.00 C 212.11 413.98 218.95 414.01 226.00 414.00 C 233.05 413.99 239.97 414.00 247.00 414.00 C 254.03 414.00 260.98 414.00 268.00 414.00 C 275.02 414.00 281.98 413.99 289.00 414.00 C 296.02 414.01 302.96 413.97 310.00 414.00 C 317.04 414.03 323.92 413.94 331.00 414.00 C 338.08 414.06 344.83 413.87 352.00 414.00 C 359.17 414.13 365.63 413.71 373.00 414.00 C 380.37 414.29 387.32 413.38 395.00 414.00 C 402.68 414.62 407.62 412.57 416.00 414.00 C 424.38 415.43 426.05 409.67 425.00 402.00 C 423.95 394.33 425.48 388.31 425.00 381.00 C 424.52 373.69 425.21 367.14 425.00 360.00 C 424.79 352.86 425.10 346.07 425.00 339.00 C 424.90 331.93 425.04 325.05 425.00 318.00 C 424.96 310.95 425.02 304.06 425.00 297.00 C 424.98 289.94 425.01 283.10 425.00 276.00 C 424.99 268.90 425.01 261.10 425.00 254.00 C 424.99 246.90 425.01 240.03 425.00 233.00 C 424.99 225.97 425.03 218.99 425.00 212.00 C 424.97 205.01 425.05 197.94 425.00 191.00 C 424.95 184.06 425.12 176.85 425.00 170.00 C 424.88 163.15 425.26 155.67 425.00 149.00 C 424.74 142.33 425.58 134.26 425.00 128.00 C 424.42 121.74 426.28 112.36 425.00 107.00 C 423.72 101.64 428.30 90.04 424.00 87.00
M 118.00 109.00 
C 132.27 105.01 151.14 110.99 167.00 109.00 C 182.86 107.01 201.98 110.36 218.00 109.00 C 234.02 107.64 240.31 111.23 239.00 127.00 C 237.70 142.78 239.60 162.09 239.00 178.00 C 238.40 193.91 239.30 213.69 239.00 229.00 C 238.70 244.31 221.98 238.98 208.00 239.00 C 194.02 239.02 170.82 240.34 157.00 239.00 C 143.18 237.66 122.40 243.45 113.25 237.61 C 104.10 231.77 110.24 209.99 109.00 197.00 C 107.76 184.01 109.21 159.05 109.00 146.00 C 108.79 132.95 105.37 112.53 118.00 109.00
M 281.00 109.00 
C 293.97 107.53 312.29 111.15 326.00 110.00 C 339.71 108.85 360.29 110.26 373.00 110.00 C 385.71 109.74 401.67 106.46 402.80 119.25 C 403.93 132.03 401.18 150.36 402.00 164.00 C 402.82 177.64 402.01 197.93 402.00 211.00 C 401.99 224.07 405.98 238.58 393.25 239.39 C 380.52 240.21 362.59 238.70 349.00 239.00 C 335.41 239.30 314.84 239.48 302.00 239.00 C 289.16 238.52 274.03 243.96 272.81 230.75 C 271.58 217.55 273.61 198.55 273.00 185.00 C 272.39 171.45 273.17 150.62 273.00 138.00 C 272.83 125.38 269.83 110.27 281.00 109.00
M 118.00 261.00 
C 127.49 259.26 140.72 263.37 152.00 262.00 C 163.28 260.63 178.67 262.65 190.00 262.00 C 201.33 261.35 217.52 262.35 228.00 262.00 C 238.48 261.65 239.55 266.16 239.00 277.00 C 238.46 287.85 239.64 303.48 239.00 315.00 C 238.36 326.52 240.17 341.58 239.00 353.00 C 237.83 364.42 241.89 376.56 238.41 385.75 C 234.93 394.94 222.48 390.45 212.00 391.00 C 201.52 391.55 185.36 390.87 174.00 391.00 C 162.64 391.13 147.36 391.20 136.00 391.00 C 124.64 390.80 116.10 393.77 111.81 386.75 C 107.52 379.73 109.15 367.11 109.00 356.00 C 108.85 344.89 109.11 329.18 109.00 318.00 C 108.89 306.82 109.15 290.26 109.00 280.00 C 108.85 269.74 110.10 262.45 118.00 261.00
M 348.00 327.00 
C 360.61 326.94 380.79 322.14 388.30 329.71 C 395.81 337.29 387.73 356.06 391.00 370.00 C 394.27 383.94 387.62 394.89 373.00 391.00 C 358.38 387.11 340.08 396.01 330.75 389.81 C 321.41 383.61 329.97 360.40 327.00 348.00
C 313.88 346.95 296.92 354.35 287.75 345.25 C 278.57 336.15 287.58 315.70 284.00 302.00 C 280.42 288.30 289.62 280.44 303.00 284.00 C 316.38 287.56 337.04 278.68 345.75 286.26 C 354.47 293.85 343.84 314.73 348.00 327.00
M 367.00 283.00 
C 381.86 280.27 388.01 309.08 373.25 315.26 C 358.48 321.45 352.57 285.65 367.00 283.00
M 302.00 359.00 
C 317.93 355.79 322.46 387.20 306.92 391.92 C 291.39 396.65 288.33 361.76 302.00 359.00 Z"/>
</g>
<g fill="#000000" fill-opacity="0.02" stroke="None"><path d="
M 118.00 109.00 
C 105.37 112.53 108.79 132.95 109.00 146.00 C 109.21 159.05 107.76 184.01 109.00 197.00 C 110.24 209.99 104.10 231.77 113.25 237.61 C 122.40 243.45 143.18 237.66 157.00 239.00 C 170.82 240.34 194.02 239.02 208.00 239.00 C 221.98 238.98 238.70 244.31 239.00 229.00 C 239.30 213.69 238.40 193.91 239.00 178.00 C 239.60 162.09 237.70 142.78 239.00 127.00 C 240.31 111.23 234.02 107.64 218.00 109.00 C 201.98 110.36 182.86 107.01 167.00 109.00 C 151.14 110.99 132.27 105.01 118.00 109.00
M 218.00 131.00 
C 218.00 160.00 218.00 189.00 218.00 218.00
C 189.00 218.00 160.00 218.00 131.00 218.00
C 131.00 189.00 131.00 160.00 131.00 131.00
C 160.00 131.00 189.00 131.00 218.00 131.00 Z"/>
</g>
<g fill="#000000" fill-opacity="0.00" stroke="None"><path d="
M 281.00 109.00 
C 269.83 110.27 272.83 125.38 273.00 138.00 C 273.17 150.62 272.39 171.45 273.00 185.00 C 273.61 198.55 271.58 217.55 272.81 230.75 C 274.03 243.96 289.16 238.52 302.00 239.00 C 314.84 239.48 335.41 239.30 349.00 239.00 C 362.59 238.70 380.52 240.21 393.25 239.39 C 405.98 238.58 401.99 224.07 402.00 211.00 C 402.01 197.93 402.82 177.64 402.00 164.00 C 401.18 150.36 403.93 132.03 402.80 119.25 C 401.67 106.46 385.71 109.74 373.00 110.00 C 360.29 110.26 339.71 108.85 326.00 110.00 C 312.29 111.15 293.97 107.53 281.00 109.00
M 381.00 131.00 
C 381.00 160.00 381.00 189.00 381.00 218.00
C 352.00 218.00 323.00 218.00 294.00 218.00
C 294.00 189.00 294.00 160.00 294.00 131.00
C 323.00 131.00 352.00 131.00 381.00 131.00 Z"/>
</g>
<g fill="#000000" fill-opacity="0.99" stroke="None"><path d="
M 218.00 131.00 
C 189.00 131.00 160.00 131.00 131.00 131.00
C 131.00 160.00 131.00 189.00 131.00 218.00
C 160.00 218.00 189.00 218.00 218.00 218.00
C 218.00 189.00 218.00 160.00 218.00 131.00
M 163.00 163.00 
C 175.78 162.26 194.90 160.56 196.06 174.08 C 197.23 187.61 173.21 187.91 161.25 185.61 C 149.29 183.30 151.58 163.66 163.00 163.00 Z"/>
</g>
<g fill="#000000" fill-opacity="0.99" stroke="None"><path d="
M 381.00 131.00 
C 352.00 131.00 323.00 131.00 294.00 131.00
C 294.00 160.00 294.00 189.00 294.00 218.00
C 323.00 218.00 352.00 218.00 381.00 218.00
C 381.00 189.00 381.00 160.00 381.00 131.00
M 326.00 163.00 
C 338.03 162.31 358.53 160.40 358.98 174.03 C 359.43 187.66 336.80 188.17 324.25 185.61 C 311.70 183.04 314.14 163.68 326.00 163.00 Z"/>
</g>
<g fill="#000000" fill-opacity="0.04" stroke="None"><path d="
M 163.00 163.00 
C 151.58 163.66 149.29 183.30 161.25 185.61 C 173.21 187.91 197.23 187.61 196.06 174.08 C 194.90 160.56 175.78 162.26 163.00 163.00 Z"/>
</g>
<g fill="#000000" fill-opacity="0.04" stroke="None"><path d="
M 326.00 163.00 
C 314.14 163.68 311.70 183.04 324.25 185.61 C 336.80 188.17 359.43 187.66 358.98 174.03 C 358.53 160.40 338.03 162.31 326.00 163.00 Z"/>
</g>
<g fill="#000000" fill-opacity="0.01" stroke="None"><path d="
M 118.00 261.00 
C 110.10 262.45 108.85 269.74 109.00 280.00 C 109.15 290.26 108.89 306.82 109.00 318.00 C 109.11 329.18 108.85 344.89 109.00 356.00 C 109.15 367.11 107.52 379.73 111.81 386.75 C 116.10 393.77 124.64 390.80 136.00 391.00 C 147.36 391.20 162.64 391.13 174.00 391.00 C 185.36 390.87 201.52 391.55 212.00 391.00 C 222.48 390.45 234.93 394.94 238.41 385.75 C 241.89 376.56 237.83 364.42 239.00 353.00 C 240.17 341.58 238.36 326.52 239.00 315.00 C 239.64 303.48 238.46 287.85 239.00 277.00 C 239.55 266.16 238.48 261.65 228.00 262.00 C 217.52 262.35 201.33 261.35 190.00 262.00 C 178.67 262.65 163.28 260.63 152.00 262.00 C 140.72 263.37 127.49 259.26 118.00 261.00
M 218.00 283.00 
C 218.00 312.00 218.00 341.00 218.00 370.00
C 189.00 370.00 160.00 370.00 131.00 370.00
C 131.00 341.00 131.00 312.00 131.00 283.00
C 160.00 283.00 189.00 283.00 218.00 283.00 Z"/>
</g>
<g fill="#000000" fill-opacity="0.99" stroke="None"><path d="
M 218.00 283.00 
C 189.00 283.00 160.00 283.00 131.00 283.00
C 131.00 312.00 131.00 341.00 131.00 370.00
C 160.00 370.00 189.00 370.00 218.00 370.00
C 218.00 341.00 218.00 312.00 218.00 283.00
M 163.00 315.00 
C 175.47 314.28 197.54 313.06 196.34 327.68 C 195.14 342.29 171.31 337.98 160.70 336.29 C 150.08 334.59 151.25 315.68 163.00 315.00 Z"/>
</g>
<g fill="#000000" fill-opacity="0.01" stroke="None"><path d="
M 348.00 327.00 
C 343.84 314.73 354.47 293.85 345.75 286.26 C 337.04 278.68 316.38 287.56 303.00 284.00 C 289.62 280.44 280.42 288.30 284.00 302.00 C 287.58 315.70 278.57 336.15 287.75 345.25 C 296.92 354.35 313.88 346.95 327.00 348.00
C 329.97 360.40 321.41 383.61 330.75 389.81 C 340.08 396.01 358.38 387.11 373.00 391.00 C 387.62 394.89 394.27 383.94 391.00 370.00 C 387.73 356.06 395.81 337.29 388.30 329.71 C 380.79 322.14 360.61 326.94 348.00 327.00
M 327.00 304.00 
C 327.00 311.67 327.00 319.33 327.00 327.00
C 319.33 327.00 311.67 327.00 304.00 327.00
C 306.43 321.61 300.42 309.13 304.78 304.78 C 309.14 300.43 321.59 306.42 327.00 304.00
M 370.00 348.00 
C 370.00 355.33 370.00 362.67 370.00 370.00
C 362.67 370.00 355.33 370.00 348.00 370.00
C 348.00 362.67 348.00 355.33 348.00 348.00
C 355.33 348.00 362.67 348.00 370.00 348.00 Z"/>
</g>
<g fill="#000000" fill-opacity="0.03" stroke="None"><path d="
M 367.00 283.00 
C 352.57 285.65 358.48 321.45 373.25 315.26 C 388.01 309.08 381.86 280.27 367.00 283.00 Z"/>
</g>
<g fill="#000000" fill-opacity="0.89" stroke="None"><path d="
M 327.00 304.00 
C 321.59 306.42 309.14 300.43 304.78 304.78 C 300.42 309.13 306.43 321.61 304.00 327.00
C 311.67 327.00 319.33 327.00 327.00 327.00
C 327.00 319.33 327.00 311.67 327.00 304.00 Z"/>
</g>
<g fill="#000000" fill-opacity="0.04" stroke="None"><path d="
M 163.00 315.00 
C 151.25 315.68 150.08 334.59 160.70 336.29 C 171.31 337.98 195.14 342.29 196.34 327.68 C 197.54 313.06 175.47 314.28 163.00 315.00 Z"/>
</g>
<g fill="#000000" fill-opacity="0.97" stroke="None"><path d="
M 370.00 348.00 
C 362.67 348.00 355.33 348.00 348.00 348.00
C 348.00 355.33 348.00 362.67 348.00 370.00
C 355.33 370.00 362.67 370.00 370.00 370.00
C 370.00 362.67 370.00 355.33 370.00 348.00 Z"/>
</g>
<g fill="#000000" fill-opacity="0.03" stroke="None"><path d="
M 302.00 359.00 
C 288.33 361.76 291.39 396.65 306.92 391.92 C 322.46 387.20 317.93 355.79 302.00 359.00 Z"/>
</g>
<g fill="#000000" fill-opacity="0.99" stroke="None"><path d="
M 1.00 511.00 
C 15.62 512.15 37.07 509.46 51.00 511.00 C 64.93 512.54 78.99 510.52 76.39 497.75 C 73.80 484.99 56.42 489.38 42.00 490.00 C 27.58 490.62 21.62 482.87 22.00 469.00 C 22.38 455.13 27.41 437.98 14.25 435.20 C 1.08 432.42 -0.47 448.53 1.00 462.00 C 2.47 475.47 -0.11 496.81 1.00 511.00 Z"/>
</g>
<g fill="#000000" fill-opacity="0.99" stroke="None"><path d="
M 511.00 511.00 
C 510.15 497.85 512.13 479.65 511.00 467.00 C 509.87 454.35 515.02 441.93 505.90 437.10 C 496.78 432.28 488.74 438.51 490.00 449.00 C 491.26 459.49 492.45 478.90 485.77 485.77 C 479.09 492.63 458.13 490.90 448.01 489.99 C 437.89 489.09 432.32 497.14 436.87 506.08 C 441.42 515.02 455.75 509.79 468.00 511.00 C 480.25 512.21 498.23 510.09 511.00 511.00 Z"/>
</g>
</svg>