<svg xmlns="http://www.w3.org/2000/svg" width="512" height="512" viewBox="0 0 512 512">
<g>
<path d="M 56.02,459.73 C50.97,457.14 50.98,457.35 51.25,399.85 C51.48,349.69 51.62,346.08 53.31,344.21 C56.66,340.51 63.61,340.81 66.64,344.79 C67.66,346.14 67.94,356.84 67.97,395.25 L 68.00,444.00 L 116.75,444.03 C155.16,444.06 165.86,444.34 167.21,445.36 C171.19,448.39 171.49,455.34 167.79,458.69 C165.92,460.38 162.31,460.52 112.15,460.75 C70.38,460.94 57.95,460.72 56.02,459.73 M 346.00,459.72 C342.32,457.84 340.58,453.63 341.92,449.81 C343.99,443.87 342.19,444.07 395.25,444.03 L 444.00,444.00 L 444.03,395.25 C444.06,356.84 444.34,346.14 445.36,344.79 C448.39,340.81 455.34,340.51 458.69,344.21 C460.39,346.09 460.50,349.53 460.50,401.08 L 460.50,455.94 L 458.22,458.22 L 455.95,460.50 L 402.22,460.75 C360.18,460.94 347.96,460.72 346.00,459.72 M 107.38,408.57 C105.37,407.69 103.87,406.06 103.13,403.96 C102.36,401.73 102.00,387.34 102.00,358.32 C102.00,311.96 102.22,310.01 107.59,307.96 C109.32,307.31 126.29,307.04 155.12,307.22 L 199.95,307.50 L 202.22,309.78 L 204.50,312.05 L 204.78,356.88 C204.96,385.71 204.69,402.68 204.04,404.41 C201.99,409.80 200.08,410.00 153.28,409.96 C119.54,409.93 109.84,409.64 107.38,408.57 M 187.76,358.24 L 188.03,323.97 L 153.76,324.24 L 119.50,324.50 L 119.24,357.49 C119.09,375.64 119.19,391.06 119.46,391.76 C119.84,392.76 127.14,392.97 153.72,392.76 L 187.50,392.50 L 187.76,358.24 M 245.27,409.32 C242.28,408.71 239.00,404.36 239.00,401.00 C239.00,399.50 239.93,397.08 241.07,395.63 L 243.15,393.00 L 266.50,393.00 L 289.86,393.00 L 290.18,378.02 C290.57,359.90 291.11,358.91 300.96,358.20 L 307.00,357.76 L 307.00,352.60 C307.00,346.81 308.84,343.39 312.74,341.91 C315.94,340.69 321.61,342.41 323.01,345.01 C323.55,346.03 324.00,352.01 324.00,358.30 C324.00,368.28 323.74,370.06 321.96,372.32 C320.23,374.53 319.02,374.95 313.71,375.20 L 307.50,375.50 L 307.00,390.23 C306.29,411.11 309.03,409.46 274.72,409.64 C259.75,409.71 246.50,409.57 245.27,409.32 M 346.38,408.57 C342.45,406.85 340.64,402.32 342.16,397.98 C343.53,394.04 345.67,393.00 352.43,393.00 L 358.00,393.00 L 358.00,380.15 C358.00,364.88 358.96,361.33 363.64,359.38 C366.54,358.17 367.47,358.17 370.46,359.42 C374.75,361.21 374.95,362.01 375.26,379.00 L 375.50,392.50 L 390.83,393.00 C407.95,393.56 409.00,394.01 409.00,400.76 C409.00,405.38 407.61,407.59 403.87,408.89 C399.01,410.59 350.40,410.31 346.38,408.57 M 224.45,355.55 C222.13,353.22 222.00,352.48 222.00,341.47 C222.00,329.96 222.03,329.82 224.92,326.92 L 227.85,324.00 L 241.92,324.00 L 256.00,324.00 L 256.00,310.55 C256.00,302.68 256.47,296.06 257.13,294.61 C259.43,289.56 266.87,288.80 270.97,293.20 C272.91,295.28 273.00,296.63 273.00,324.23 L 273.00,353.09 L 270.55,355.55 C268.85,357.24 266.98,358.00 264.50,358.00 C258.70,358.00 256.00,354.52 256.00,347.05 L 256.00,341.00 L 247.50,341.00 L 239.00,341.00 L 239.00,347.05 C239.00,352.13 238.61,353.48 236.55,355.55 C233.21,358.88 227.79,358.88 224.45,355.55 M 395.20,355.72 C393.24,353.63 393.03,352.17 392.78,338.97 L 392.50,324.50 L 370.00,324.25 C355.35,324.09 346.72,323.60 345.28,322.85 C342.37,321.33 340.63,316.11 341.91,312.74 C344.02,307.18 345.05,307.00 374.66,307.00 C390.26,307.00 402.98,307.42 404.48,307.99 C409.04,309.73 410.00,314.05 410.00,332.82 C410.00,350.32 409.17,355.30 405.96,357.02 C402.66,358.79 397.50,358.16 395.20,355.72 M 294.23,323.33 C292.54,322.65 290.00,317.63 290.00,314.97 C290.00,313.80 291.32,311.53 292.92,309.92 C295.45,307.39 296.59,307.00 301.42,307.00 L 307.00,307.00 L 307.00,292.92 L 307.00,278.85 L 309.92,275.92 L 312.85,273.00 L 326.87,273.00 L 340.90,273.00 L 341.20,249.91 L 341.50,226.82 L 344.31,224.41 C346.91,222.17 347.91,222.00 358.42,222.00 C368.35,222.00 370.05,222.25 372.37,224.07 C375.98,226.91 376.06,233.03 372.55,236.55 C370.48,238.61 369.13,239.00 364.05,239.00 L 358.00,239.00 L 358.00,262.05 L 358.00,285.09 L 355.55,287.55 C353.16,289.93 352.66,290.00 338.55,290.00 L 324.00,290.00 L 324.00,304.55 C324.00,318.66 323.93,319.16 321.55,321.55 C319.21,323.88 318.54,324.00 307.30,323.92 C300.81,323.88 294.93,323.61 294.23,323.33 M 105.31,287.59 L 102.50,285.17 L 102.50,256.00 L 102.50,226.83 L 105.31,224.41 C108.73,221.46 112.87,221.32 116.32,224.04 C118.53,225.77 118.95,226.98 119.20,232.29 L 119.50,238.50 L 134.23,239.00 C147.54,239.45 149.16,239.70 151.08,241.63 C154.24,244.80 153.98,250.76 150.54,253.72 C148.04,255.87 147.05,256.00 133.44,256.00 L 119.00,256.00 L 119.00,270.93 L 119.00,285.85 L 116.37,287.93 C112.87,290.67 108.75,290.55 105.31,287.59 M 156.45,287.55 C154.76,285.85 154.00,283.98 154.00,281.50 C154.00,279.02 154.76,277.15 156.45,275.45 C158.84,273.07 159.34,273.00 173.45,273.00 L 188.00,273.00 L 188.00,258.45 C188.00,244.34 188.07,243.84 190.45,241.45 C194.38,237.53 201.64,238.72 203.89,243.66 C204.53,245.06 205.00,251.82 205.00,259.55 L 205.00,273.00 L 219.08,273.00 L 233.15,273.00 L 236.08,275.92 C237.68,277.53 239.00,279.80 239.00,280.97 C239.00,283.87 236.43,288.62 234.46,289.38 C233.56,289.72 216.20,290.00 195.87,290.00 L 158.91,290.00 L 156.45,287.55 M 378.63,287.93 C376.51,286.26 376.00,285.01 376.00,281.50 C376.00,275.39 379.13,273.00 387.13,273.00 L 393.00,273.00 L 393.00,258.07 L 393.00,243.15 L 395.63,241.07 C399.13,238.33 403.25,238.45 406.69,241.41 L 409.50,243.83 L 409.50,264.50 L 409.50,285.17 L 406.69,287.59 C404.09,289.83 403.09,290.00 392.58,290.00 C382.65,290.00 380.95,289.75 378.63,287.93 M 224.45,253.55 C222.76,251.85 222.00,249.98 222.00,247.50 C222.00,241.70 225.48,239.00 232.95,239.00 L 239.00,239.00 L 239.00,215.95 L 239.00,192.91 L 241.45,190.45 C243.90,188.01 243.97,188.00 264.50,188.00 C285.03,188.00 285.10,188.01 287.55,190.45 C291.47,194.38 290.28,201.64 285.34,203.89 C283.94,204.53 277.18,205.00 269.45,205.00 L 256.00,205.00 L 256.00,222.00 L 256.00,239.00 L 262.05,239.00 C267.13,239.00 268.48,239.39 270.55,241.45 C274.47,245.38 273.28,252.64 268.34,254.89 C266.82,255.58 258.57,256.00 246.41,256.00 C227.04,256.00 226.89,255.98 224.45,253.55 M 293.05,253.20 C290.03,250.19 290.00,250.04 290.00,239.51 C290.00,225.76 291.84,222.10 298.80,222.03 C300.99,222.01 302.91,222.82 304.55,224.45 C306.88,226.79 307.00,227.51 307.00,238.84 C307.00,252.51 306.08,254.65 299.80,255.65 C296.59,256.17 295.68,255.83 293.05,253.20 M 107.21,203.97 C102.27,201.95 102.00,199.37 102.00,153.50 C102.00,106.17 102.12,105.20 108.04,103.14 C110.27,102.36 124.64,102.00 153.68,102.00 C200.04,102.00 201.99,102.22 204.04,107.59 C204.69,109.32 204.96,126.29 204.78,155.12 L 204.50,199.95 L 202.22,202.22 L 199.95,204.50 L 154.72,204.70 C128.41,204.82 108.54,204.51 107.21,203.97 M 187.76,153.75 L 187.50,119.50 L 153.50,119.50 L 119.50,119.50 L 119.24,152.49 C119.09,170.64 119.19,186.05 119.45,186.74 C119.83,187.72 127.56,188.00 153.98,188.00 L 188.03,188.00 L 187.76,153.75 M 312.02,203.72 C307.10,201.23 307.03,200.50 307.01,153.82 C307.01,128.38 307.40,109.08 307.96,107.61 C310.05,102.12 311.11,102.00 357.80,102.00 C387.23,102.00 401.72,102.36 403.96,103.14 C409.88,105.20 410.00,106.19 410.00,153.32 C410.00,181.76 409.64,196.75 408.89,198.88 C406.76,204.98 406.62,205.00 358.30,204.99 C325.18,204.97 313.90,204.66 312.02,203.72 M 392.50,153.50 L 392.50,119.50 L 358.50,119.50 L 324.50,119.50 L 324.24,153.76 L 323.97,188.03 L 358.24,187.76 L 392.50,187.50 L 392.50,153.50 M 57.35,170.30 C56.17,170.07 54.37,168.97 53.35,167.84 C51.60,165.90 51.50,162.95 51.50,110.92 L 51.50,56.06 L 53.78,53.78 L 56.05,51.50 L 110.36,51.23 C163.39,50.96 164.73,51.00 167.21,52.95 C171.46,56.29 171.46,63.41 167.21,66.64 C165.86,67.66 155.16,67.94 116.75,67.97 L 68.00,68.00 L 68.00,116.83 L 68.00,165.65 L 65.75,167.71 C63.19,170.05 60.47,170.89 57.35,170.30 M 227.36,170.04 C222.13,167.85 220.49,161.18 224.07,156.63 L 226.15,154.00 L 241.07,154.00 L 256.00,154.00 L 256.00,139.56 C256.00,125.73 256.10,124.99 258.41,122.31 C260.81,119.52 260.90,119.50 273.00,119.50 C285.10,119.50 285.19,119.52 287.59,122.31 C290.62,125.83 290.68,130.10 287.74,133.52 C285.89,135.67 284.34,136.25 279.24,136.71 L 273.00,137.28 L 273.00,151.08 C273.00,164.23 272.89,165.02 270.59,167.69 L 268.18,170.50 L 248.84,170.72 C238.20,170.84 228.54,170.53 227.36,170.04 M 449.09,169.89 C443.97,167.89 444.07,168.91 444.03,116.75 L 444.00,68.00 L 395.25,67.97 C356.24,67.94 346.15,67.67 344.75,66.60 C342.10,64.60 340.74,59.83 341.92,56.72 C344.17,50.78 342.63,50.92 401.84,51.22 L 455.95,51.50 L 458.22,53.78 L 460.50,56.06 L 460.50,111.00 C460.50,164.64 460.45,165.99 458.50,167.85 C455.96,170.27 452.18,171.09 449.09,169.89 M 224.07,133.37 C222.25,131.05 222.00,129.35 222.00,119.42 C222.00,109.08 222.20,107.88 224.28,105.46 C226.04,103.42 227.49,102.80 230.50,102.80 C233.51,102.80 234.96,103.42 236.72,105.46 C238.81,107.89 239.00,109.08 239.00,119.60 C239.00,130.47 238.87,131.22 236.55,133.55 C233.03,137.06 226.91,136.98 224.07,133.37 M 139.17,372.69 C137.20,370.58 137.00,369.30 137.00,358.77 C137.00,352.39 137.28,346.44 137.62,345.54 C138.85,342.34 143.53,341.00 153.50,341.00 C168.79,341.00 171.00,343.13 171.00,357.90 C171.00,367.57 169.76,372.52 166.96,374.02 C165.95,374.56 159.78,375.00 153.24,375.00 C142.10,375.00 141.21,374.85 139.17,372.69 M 141.40,169.57 C139.69,168.83 138.01,167.46 137.65,166.53 C137.29,165.60 137.00,159.55 137.00,153.09 C137.00,142.11 137.15,141.21 139.31,139.17 C141.42,137.20 142.69,137.00 153.38,137.00 C159.84,137.00 165.95,137.44 166.96,137.98 C169.77,139.48 171.00,144.43 171.00,154.20 C171.00,164.15 169.68,167.91 165.53,169.81 C161.95,171.43 145.31,171.27 141.40,169.57 M 346.11,169.60 C342.07,167.36 341.07,164.24 341.04,153.70 C341.00,143.51 342.30,138.87 345.54,137.62 C346.44,137.28 352.45,137.00 358.91,137.00 C369.89,137.00 370.79,137.15 372.83,139.31 C374.81,141.43 375.00,142.66 374.97,153.56 C374.93,166.45 374.38,168.15 369.60,169.96 C365.64,171.47 349.01,171.21 346.11,169.60 Z" fill="rgba(0,0,0,1)"/>
</g>
</svg>