<svg xmlns="http://www.w3.org/2000/svg" xmlns:v="https://svgstorm.com"
viewBox = "0 0 512 512"
width="512"
height="512">
<g fill="None" fill-opacity="0.0" stroke="#000000" stroke-opacity="0.00" stroke-width="0.3"><path d="
M 0.00 441.00 
C 6.74 426.25 20.90 415.80 34.10 407.09 C 47.30 398.39 57.03 384.46 71.90 378.88 C 86.77 373.31 100.24 398.51 107.00 408.00
C 135.98 402.30 159.53 388.13 195.00 391.00
C 189.60 381.87 188.04 370.44 183.29 362.70 C 178.54 354.96 179.94 340.78 171.70 334.30 C 163.46 327.83 154.33 329.19 146.25 323.61 C 138.16 318.02 128.85 316.63 120.00 311.00
C 121.20 308.99 119.83 306.17 119.00 304.00
C 126.03 293.83 134.94 302.48 142.30 305.71 C 149.67 308.95 158.42 311.67 166.00 316.00
C 159.35 298.69 161.71 280.24 175.00 266.00
C 160.88 264.37 148.15 262.94 135.25 260.40 C 122.34 257.86 108.01 258.82 96.00 251.00
C 99.25 239.24 111.29 231.42 115.19 220.75 C 119.09 210.07 126.92 199.45 129.00 187.00
C 122.73 181.43 117.61 180.37 111.00 175.00
C 100.84 185.05 98.07 197.49 89.61 207.75 C 81.15 218.02 76.15 229.99 67.81 240.25 C 59.46 250.51 54.10 265.60 69.25 271.19 C 84.41 276.78 88.62 280.91 103.00 288.00
C 103.72 304.38 90.29 297.92 82.25 293.74 C 74.20 289.55 66.62 287.04 58.23 282.42 C 49.83 277.81 41.74 266.43 43.40 255.26 C 45.06 244.08 52.07 237.30 57.57 228.23 C 63.07 219.16 67.94 212.33 73.19 203.75 C 78.44 195.16 84.82 187.60 90.09 179.08 C 95.35 170.56 101.25 163.01 105.39 154.25 C 109.53 145.48 120.17 138.71 122.71 129.70 C 125.25 120.68 122.29 103.75 121.60 94.25 C 120.92 84.75 115.45 69.85 120.58 61.23 C 125.70 52.61 137.65 45.41 147.25 53.19 C 156.84 60.97 159.74 70.64 165.13 78.92 C 170.52 87.20 173.38 94.53 178.19 103.25 C 183.00 111.98 187.92 116.94 191.80 127.25 C 195.68 137.55 186.83 148.56 178.08 151.13 C 169.33 153.70 162.99 163.70 152.00 163.00
C 142.00 191.44 137.08 219.33 120.00 243.00
C 127.87 244.13 134.80 244.99 142.25 246.20 C 149.69 247.40 155.94 248.48 163.75 249.40 C 171.56 250.31 176.59 252.11 185.08 252.93 C 193.58 253.76 200.77 256.08 212.22 254.22 C 223.67 252.36 238.20 254.42 251.00 254.00 C 263.80 253.58 278.78 254.30 292.00 254.00 C 305.22 253.70 320.78 254.39 334.00 254.00 C 347.22 253.61 362.22 254.75 375.00 254.00 C 387.78 253.25 393.89 254.12 401.77 257.58 C 409.65 261.03 412.05 270.32 419.00 273.00
C 420.64 249.74 438.82 231.51 462.25 229.80 C 485.68 228.10 508.15 245.86 512.00 268.00
L 512.00 0.00
L 0.00 0.00
L 0.00 441.00 Z"/>
</g>
<g fill="None" fill-opacity="0.0" stroke="#000000" stroke-opacity="0.97" stroke-width="0.3"><path d="
M 0.00 441.00 
L 0.00 446.00
C 2.67 457.99 16.42 464.55 28.25 461.80 C 40.07 459.05 46.25 453.13 59.25 451.24 C 72.24 449.36 85.21 450.41 103.00 451.00 C 120.79 451.59 143.99 448.16 162.00 450.00 C 180.01 451.84 202.60 449.01 220.00 450.00 C 237.40 450.99 246.92 448.88 255.57 438.23 C 264.22 427.58 259.26 417.83 258.23 405.77 C 257.19 393.71 259.12 384.84 253.00 375.00
C 250.20 375.25 247.74 376.28 245.00 375.00
C 237.38 382.61 244.80 394.60 243.60 403.75 C 242.41 412.90 251.26 425.99 240.75 432.75 C 230.23 439.50 210.09 435.25 194.93 435.07 C 179.77 434.90 157.55 434.88 142.00 436.00
C 142.00 428.33 142.00 420.67 142.00 413.00
C 151.35 412.27 158.02 408.10 167.25 407.80 C 176.47 407.50 187.27 401.10 197.75 406.39 C 208.23 411.69 216.13 403.99 211.42 394.23 C 206.72 384.47 206.00 379.12 202.42 370.23 C 198.85 361.34 196.43 355.19 193.29 346.70 C 190.14 338.20 187.47 331.26 184.24 322.75 C 181.02 314.25 177.73 307.47 177.02 296.97 C 176.31 286.48 182.62 279.98 190.75 273.61 C 198.89 267.23 216.47 267.34 230.00 268.00
C 230.90 278.39 232.00 288.91 232.93 299.08 C 233.87 309.26 235.01 319.34 236.77 329.23 C 238.53 339.12 233.54 354.32 247.00 356.00
C 257.26 350.21 250.49 332.88 250.00 321.00
C 277.31 326.28 302.05 335.17 330.00 338.00
C 326.10 344.78 325.63 352.42 321.81 358.25 C 317.98 364.08 316.45 373.42 318.58 380.77 C 320.70 388.12 325.79 394.99 334.25 401.75 C 342.71 408.51 347.52 418.30 355.75 424.25 C 363.98 430.19 370.30 441.14 377.77 446.23 C 385.24 451.32 388.52 454.62 396.75 460.39 C 404.98 466.17 424.28 460.16 435.00 462.00 C 445.72 463.84 461.74 462.90 466.92 455.92 C 472.10 448.94 472.23 442.17 467.61 435.25 C 462.98 428.32 453.07 422.62 447.30 420.36 C 441.52 418.10 431.19 415.96 422.00 418.00
C 417.01 408.76 409.07 401.27 403.20 392.75 C 397.33 384.23 386.49 375.96 381.30 367.70 C 376.11 359.43 387.73 350.89 389.39 343.25 C 391.06 335.60 400.26 328.77 401.00 320.00
C 415.33 320.20 437.49 317.60 445.92 325.13 C 454.35 332.66 465.95 330.58 475.30 328.29 C 484.65 326.00 490.91 319.74 497.71 310.70 C 504.52 301.65 510.32 293.59 512.00 282.00
L 512.00 268.00
C 508.15 245.86 485.68 228.10 462.25 229.80 C 438.82 231.51 420.64 249.74 419.00 273.00
C 412.05 270.32 409.65 261.03 401.77 257.58 C 393.89 254.12 387.78 253.25 375.00 254.00 C 362.22 254.75 347.22 253.61 334.00 254.00 C 320.78 254.39 305.22 253.70 292.00 254.00 C 278.78 254.30 263.80 253.58 251.00 254.00 C 238.20 254.42 223.67 252.36 212.22 254.22 C 200.77 256.08 193.58 253.76 185.08 252.93 C 176.59 252.11 171.56 250.31 163.75 249.40 C 155.94 248.48 149.69 247.40 142.25 246.20 C 134.80 244.99 127.87 244.13 120.00 243.00
C 137.08 219.33 142.00 191.44 152.00 163.00
C 162.99 163.70 169.33 153.70 178.08 151.13 C 186.83 148.56 195.68 137.55 191.80 127.25 C 187.92 116.94 183.00 111.98 178.19 103.25 C 173.38 94.53 170.52 87.20 165.13 78.92 C 159.74 70.64 156.84 60.97 147.25 53.19 C 137.65 45.41 125.70 52.61 120.58 61.23 C 115.45 69.85 120.92 84.75 121.60 94.25 C 122.29 103.75 125.25 120.68 122.71 129.70 C 120.17 138.71 109.53 145.48 105.39 154.25 C 101.25 163.01 95.35 170.56 90.09 179.08 C 84.82 187.60 78.44 195.16 73.19 203.75 C 67.94 212.33 63.07 219.16 57.57 228.23 C 52.07 237.30 45.06 244.08 43.40 255.26 C 41.74 266.43 49.83 277.81 58.23 282.42 C 66.62 287.04 74.20 289.55 82.25 293.74 C 90.29 297.92 103.72 304.38 103.00 288.00
C 88.62 280.91 84.41 276.78 69.25 271.19 C 54.10 265.60 59.46 250.51 67.81 240.25 C 76.15 229.99 81.15 218.02 89.61 207.75 C 98.07 197.49 100.84 185.05 111.00 175.00
C 117.61 180.37 122.73 181.43 129.00 187.00
C 126.92 199.45 119.09 210.07 115.19 220.75 C 111.29 231.42 99.25 239.24 96.00 251.00
C 108.01 258.82 122.34 257.86 135.25 260.40 C 148.15 262.94 160.88 264.37 175.00 266.00
C 161.71 280.24 159.35 298.69 166.00 316.00
C 158.42 311.67 149.67 308.95 142.30 305.71 C 134.94 302.48 126.03 293.83 119.00 304.00
C 119.83 306.17 121.20 308.99 120.00 311.00
C 128.85 316.63 138.16 318.02 146.25 323.61 C 154.33 329.19 163.46 327.83 171.70 334.30 C 179.94 340.78 178.54 354.96 183.29 362.70 C 188.04 370.44 189.60 381.87 195.00 391.00
C 159.53 388.13 135.98 402.30 107.00 408.00
C 100.24 398.51 86.77 373.31 71.90 378.88 C 57.03 384.46 47.30 398.39 34.10 407.09 C 20.90 415.80 6.74 426.25 0.00 441.00
M 178.00 135.00 
C 168.66 138.19 163.77 142.54 155.00 147.00
C 153.87 134.32 150.48 121.61 137.00 119.00
C 138.17 108.40 137.22 98.53 135.80 89.75 C 134.39 80.98 130.65 73.03 135.00 65.00
C 147.68 73.48 151.57 85.62 158.71 97.30 C 165.86 108.99 171.82 121.70 178.00 135.00
M 138.00 135.00 
C 142.68 147.75 138.07 160.56 134.00 171.00
C 127.66 168.85 124.10 166.23 119.00 162.00
C 125.14 153.07 130.08 142.67 138.00 135.00
M 462.00 244.00 
C 476.64 241.07 488.47 251.38 494.19 264.25 C 499.91 277.13 494.24 292.24 484.81 303.25 C 475.38 314.26 460.96 320.46 448.75 309.20 C 436.55 297.94 430.99 285.22 434.26 270.25 C 437.53 255.28 448.09 246.78 462.00 244.00
M 372.00 379.00 
C 364.74 384.83 359.55 394.12 351.00 399.00
C 342.92 389.01 327.53 377.17 333.21 366.77 C 338.89 356.37 341.07 350.83 345.19 340.75 C 349.31 330.66 355.43 324.66 356.00 312.00
C 344.50 302.59 338.79 316.53 337.00 325.00
C 305.50 319.78 279.41 311.05 248.00 306.00
C 248.53 293.43 246.02 281.59 245.00 269.00
C 284.00 269.00 323.00 269.00 362.00 269.00
C 359.05 273.49 358.60 278.34 355.00 282.00
C 355.93 284.22 357.11 286.87 356.00 289.00
C 367.77 296.08 371.40 285.29 375.13 276.08 C 378.86 266.87 399.32 265.91 401.58 277.77 C 403.83 289.63 397.48 296.29 393.61 304.75 C 389.73 313.22 384.72 319.75 380.87 327.92 C 377.02 336.08 372.88 344.05 368.42 351.77 C 363.97 359.49 358.61 371.45 372.00 379.00
M 419.00 287.00 
C 420.09 294.63 422.28 299.36 426.00 306.00
C 420.33 306.00 414.67 306.00 409.00 306.00
C 414.42 299.60 413.96 292.27 419.00 287.00
M 382.00 391.00 
C 390.35 401.24 395.89 410.17 406.00 419.00
C 404.56 426.23 399.25 424.75 394.25 432.25 C 389.24 439.75 382.55 430.24 377.75 425.25 C 372.95 420.26 366.37 414.43 362.00 409.00
C 369.94 404.86 373.88 395.11 382.00 391.00
M 94.00 413.00 
C 83.80 417.17 68.89 421.32 68.00 436.00
C 49.06 433.79 33.75 450.12 15.00 445.00
C 21.37 432.86 34.80 426.08 44.30 417.30 C 53.79 408.51 66.53 403.59 75.00 393.00
C 83.83 396.65 85.34 407.70 94.00 413.00
M 127.00 418.00 
C 127.00 424.00 127.00 430.00 127.00 436.00
C 112.33 436.00 97.67 436.00 83.00 436.00
C 88.06 428.39 97.20 430.27 103.30 425.29 C 109.40 420.31 119.19 421.70 127.00 418.00
M 456.00 447.00 
C 438.00 447.00 420.00 447.00 402.00 447.00
C 412.52 426.11 447.07 427.86 456.00 447.00 Z"/>
</g>
<g fill="None" fill-opacity="0.0" stroke="#000000" stroke-opacity="0.04" stroke-width="0.3"><path d="
M 178.00 135.00 
C 171.82 121.70 165.86 108.99 158.71 97.30 C 151.57 85.62 147.68 73.48 135.00 65.00
C 130.65 73.03 134.39 80.98 135.80 89.75 C 137.22 98.53 138.17 108.40 137.00 119.00
C 150.48 121.61 153.87 134.32 155.00 147.00
C 163.77 142.54 168.66 138.19 178.00 135.00 Z"/>
</g>
<g fill="None" fill-opacity="0.0" stroke="#000000" stroke-opacity="0.07" stroke-width="0.3"><path d="
M 138.00 135.00 
C 130.08 142.67 125.14 153.07 119.00 162.00
C 124.10 166.23 127.66 168.85 134.00 171.00
C 138.07 160.56 142.68 147.75 138.00 135.00 Z"/>
</g>
<g fill="None" fill-opacity="0.0" stroke="#000000" stroke-opacity="0.02" stroke-width="0.3"><path d="
M 462.00 244.00 
C 448.09 246.78 437.53 255.28 434.26 270.25 C 430.99 285.22 436.55 297.94 448.75 309.20 C 460.96 320.46 475.38 314.26 484.81 303.25 C 494.24 292.24 499.91 277.13 494.19 264.25 C 488.47 251.38 476.64 241.07 462.00 244.00 Z"/>
</g>
<g fill="None" fill-opacity="0.0" stroke="#000000" stroke-opacity="0.01" stroke-width="0.3"><path d="
M 0.00 446.00 
L 0.00 512.00
L 512.00 512.00
L 512.00 282.00
C 510.32 293.59 504.52 301.65 497.71 310.70 C 490.91 319.74 484.65 326.00 475.30 328.29 C 465.95 330.58 454.35 332.66 445.92 325.13 C 437.49 317.60 415.33 320.20 401.00 320.00
C 400.26 328.77 391.06 335.60 389.39 343.25 C 387.73 350.89 376.11 359.43 381.30 367.70 C 386.49 375.96 397.33 384.23 403.20 392.75 C 409.07 401.27 417.01 408.76 422.00 418.00
C 431.19 415.96 441.52 418.10 447.30 420.36 C 453.07 422.62 462.98 428.32 467.61 435.25 C 472.23 442.17 472.10 448.94 466.92 455.92 C 461.74 462.90 445.72 463.84 435.00 462.00 C 424.28 460.16 404.98 466.17 396.75 460.39 C 388.52 454.62 385.24 451.32 377.77 446.23 C 370.30 441.14 363.98 430.19 355.75 424.25 C 347.52 418.30 342.71 408.51 334.25 401.75 C 325.79 394.99 320.70 388.12 318.58 380.77 C 316.45 373.42 317.98 364.08 321.81 358.25 C 325.63 352.42 326.10 344.78 330.00 338.00
C 302.05 335.17 277.31 326.28 250.00 321.00
C 250.49 332.88 257.26 350.21 247.00 356.00
C 233.54 354.32 238.53 339.12 236.77 329.23 C 235.01 319.34 233.87 309.26 232.93 299.08 C 232.00 288.91 230.90 278.39 230.00 268.00
C 216.47 267.34 198.89 267.23 190.75 273.61 C 182.62 279.98 176.31 286.48 177.02 296.97 C 177.73 307.47 181.02 314.25 184.24 322.75 C 187.47 331.26 190.14 338.20 193.29 346.70 C 196.43 355.19 198.85 361.34 202.42 370.23 C 206.00 379.12 206.72 384.47 211.42 394.23 C 216.13 403.99 208.23 411.69 197.75 406.39 C 187.27 401.10 176.47 407.50 167.25 407.80 C 158.02 408.10 151.35 412.27 142.00 413.00
C 142.00 420.67 142.00 428.33 142.00 436.00
C 157.55 434.88 179.77 434.90 194.93 435.07 C 210.09 435.25 230.23 439.50 240.75 432.75 C 251.26 425.99 242.41 412.90 243.60 403.75 C 244.80 394.60 237.38 382.61 245.00 375.00
C 247.74 376.28 250.20 375.25 253.00 375.00
C 259.12 384.84 257.19 393.71 258.23 405.77 C 259.26 417.83 264.22 427.58 255.57 438.23 C 246.92 448.88 237.40 450.99 220.00 450.00 C 202.60 449.01 180.01 451.84 162.00 450.00 C 143.99 448.16 120.79 451.59 103.00 451.00 C 85.21 450.41 72.24 449.36 59.25 451.24 C 46.25 453.13 40.07 459.05 28.25 461.80 C 16.42 464.55 2.67 457.99 0.00 446.00 Z"/>
</g>
<g fill="None" fill-opacity="0.0" stroke="#000000" stroke-opacity="0.02" stroke-width="0.3"><path d="
M 372.00 379.00 
C 358.61 371.45 363.97 359.49 368.42 351.77 C 372.88 344.05 377.02 336.08 380.87 327.92 C 384.72 319.75 389.73 313.22 393.61 304.75 C 397.48 296.29 403.83 289.63 401.58 277.77 C 399.32 265.91 378.86 266.87 375.13 276.08 C 371.40 285.29 367.77 296.08 356.00 289.00
C 357.11 286.87 355.93 284.22 355.00 282.00
C 358.60 278.34 359.05 273.49 362.00 269.00
C 323.00 269.00 284.00 269.00 245.00 269.00
C 246.02 281.59 248.53 293.43 248.00 306.00
C 279.41 311.05 305.50 319.78 337.00 325.00
C 338.79 316.53 344.50 302.59 356.00 312.00
C 355.43 324.66 349.31 330.66 345.19 340.75 C 341.07 350.83 338.89 356.37 333.21 366.77 C 327.53 377.17 342.92 389.01 351.00 399.00
C 359.55 394.12 364.74 384.83 372.00 379.00 Z"/>
</g>
<g fill="None" fill-opacity="0.0" stroke="#000000" stroke-opacity="0.10" stroke-width="0.3"><path d="
M 419.00 287.00 
C 413.96 292.27 414.42 299.60 409.00 306.00
C 414.67 306.00 420.33 306.00 426.00 306.00
C 422.28 299.36 420.09 294.63 419.00 287.00 Z"/>
</g>
<g fill="None" fill-opacity="0.0" stroke="#000000" stroke-opacity="0.05" stroke-width="0.3"><path d="
M 382.00 391.00 
C 373.88 395.11 369.94 404.86 362.00 409.00
C 366.37 414.43 372.95 420.26 377.75 425.25 C 382.55 430.24 389.24 439.75 394.25 432.25 C 399.25 424.75 404.56 426.23 406.00 419.00
C 395.89 410.17 390.35 401.24 382.00 391.00 Z"/>
</g>
<g fill="None" fill-opacity="0.0" stroke="#000000" stroke-opacity="0.04" stroke-width="0.3"><path d="
M 94.00 413.00 
C 85.34 407.70 83.83 396.65 75.00 393.00
C 66.53 403.59 53.79 408.51 44.30 417.30 C 34.80 426.08 21.37 432.86 15.00 445.00
C 33.75 450.12 49.06 433.79 68.00 436.00
C 68.89 421.32 83.80 417.17 94.00 413.00 Z"/>
</g>
<g fill="None" fill-opacity="0.0" stroke="#000000" stroke-opacity="0.04" stroke-width="0.3"><path d="
M 127.00 418.00 
C 119.19 421.70 109.40 420.31 103.30 425.29 C 97.20 430.27 88.06 428.39 83.00 436.00
C 97.67 436.00 112.33 436.00 127.00 436.00
C 127.00 430.00 127.00 424.00 127.00 418.00 Z"/>
</g>
<g fill="None" fill-opacity="0.0" stroke="#000000" stroke-opacity="0.02" stroke-width="0.3"><path d="
M 456.00 447.00 
C 447.07 427.86 412.52 426.11 402.00 447.00
C 420.00 447.00 438.00 447.00 456.00 447.00 Z"/>
</g>
<g fill="#000000" fill-opacity="0.00" stroke="None"><path d="
M 0.00 441.00 
C 6.74 426.25 20.90 415.80 34.10 407.09 C 47.30 398.39 57.03 384.46 71.90 378.88 C 86.77 373.31 100.24 398.51 107.00 408.00
C 135.98 402.30 159.53 388.13 195.00 391.00
C 189.60 381.87 188.04 370.44 183.29 362.70 C 178.54 354.96 179.94 340.78 171.70 334.30 C 163.46 327.83 154.33 329.19 146.25 323.61 C 138.16 318.02 128.85 316.63 120.00 311.00
C 121.20 308.99 119.83 306.17 119.00 304.00
C 126.03 293.83 134.94 302.48 142.30 305.71 C 149.67 308.95 158.42 311.67 166.00 316.00
C 159.35 298.69 161.71 280.24 175.00 266.00
C 160.88 264.37 148.15 262.94 135.25 260.40 C 122.34 257.86 108.01 258.82 96.00 251.00
C 99.25 239.24 111.29 231.42 115.19 220.75 C 119.09 210.07 126.92 199.45 129.00 187.00
C 122.73 181.43 117.61 180.37 111.00 175.00
C 100.84 185.05 98.07 197.49 89.61 207.75 C 81.15 218.02 76.15 229.99 67.81 240.25 C 59.46 250.51 54.10 265.60 69.25 271.19 C 84.41 276.78 88.62 280.91 103.00 288.00
C 103.72 304.38 90.29 297.92 82.25 293.74 C 74.20 289.55 66.62 287.04 58.23 282.42 C 49.83 277.81 41.74 266.43 43.40 255.26 C 45.06 244.08 52.07 237.30 57.57 228.23 C 63.07 219.16 67.94 212.33 73.19 203.75 C 78.44 195.16 84.82 187.60 90.09 179.08 C 95.35 170.56 101.25 163.01 105.39 154.25 C 109.53 145.48 120.17 138.71 122.71 129.70 C 125.25 120.68 122.29 103.75 121.60 94.25 C 120.92 84.75 115.45 69.85 120.58 61.23 C 125.70 52.61 137.65 45.41 147.25 53.19 C 156.84 60.97 159.74 70.64 165.13 78.92 C 170.52 87.20 173.38 94.53 178.19 103.25 C 183.00 111.98 187.92 116.94 191.80 127.25 C 195.68 137.55 186.83 148.56 178.08 151.13 C 169.33 153.70 162.99 163.70 152.00 163.00
C 142.00 191.44 137.08 219.33 120.00 243.00
C 127.87 244.13 134.80 244.99 142.25 246.20 C 149.69 247.40 155.94 248.48 163.75 249.40 C 171.56 250.31 176.59 252.11 185.08 252.93 C 193.58 253.76 200.77 256.08 212.22 254.22 C 223.67 252.36 238.20 254.42 251.00 254.00 C 263.80 253.58 278.78 254.30 292.00 254.00 C 305.22 253.70 320.78 254.39 334.00 254.00 C 347.22 253.61 362.22 254.75 375.00 254.00 C 387.78 253.25 393.89 254.12 401.77 257.58 C 409.65 261.03 412.05 270.32 419.00 273.00
C 420.64 249.74 438.82 231.51 462.25 229.80 C 485.68 228.10 508.15 245.86 512.00 268.00
L 512.00 0.00
L 0.00 0.00
L 0.00 441.00 Z"/>
</g>
<g fill="#000000" fill-opacity="0.97" stroke="None"><path d="
M 0.00 441.00 
L 0.00 446.00
C 2.67 457.99 16.42 464.55 28.25 461.80 C 40.07 459.05 46.25 453.13 59.25 451.24 C 72.24 449.36 85.21 450.41 103.00 451.00 C 120.79 451.59 143.99 448.16 162.00 450.00 C 180.01 451.84 202.60 449.01 220.00 450.00 C 237.40 450.99 246.92 448.88 255.57 438.23 C 264.22 427.58 259.26 417.83 258.23 405.77 C 257.19 393.71 259.12 384.84 253.00 375.00
C 250.20 375.25 247.74 376.28 245.00 375.00
C 237.38 382.61 244.80 394.60 243.60 403.75 C 242.41 412.90 251.26 425.99 240.75 432.75 C 230.23 439.50 210.09 435.25 194.93 435.07 C 179.77 434.90 157.55 434.88 142.00 436.00
C 142.00 428.33 142.00 420.67 142.00 413.00
C 151.35 412.27 158.02 408.10 167.25 407.80 C 176.47 407.50 187.27 401.10 197.75 406.39 C 208.23 411.69 216.13 403.99 211.42 394.23 C 206.72 384.47 206.00 379.12 202.42 370.23 C 198.85 361.34 196.43 355.19 193.29 346.70 C 190.14 338.20 187.47 331.26 184.24 322.75 C 181.02 314.25 177.73 307.47 177.02 296.97 C 176.31 286.48 182.62 279.98 190.75 273.61 C 198.89 267.23 216.47 267.34 230.00 268.00
C 230.90 278.39 232.00 288.91 232.93 299.08 C 233.87 309.26 235.01 319.34 236.77 329.23 C 238.53 339.12 233.54 354.32 247.00 356.00
C 257.26 350.21 250.49 332.88 250.00 321.00
C 277.31 326.28 302.05 335.17 330.00 338.00
C 326.10 344.78 325.63 352.42 321.81 358.25 C 317.98 364.08 316.45 373.42 318.58 380.77 C 320.70 388.12 325.79 394.99 334.25 401.75 C 342.71 408.51 347.52 418.30 355.75 424.25 C 363.98 430.19 370.30 441.14 377.77 446.23 C 385.24 451.32 388.52 454.62 396.75 460.39 C 404.98 466.17 424.28 460.16 435.00 462.00 C 445.72 463.84 461.74 462.90 466.92 455.92 C 472.10 448.94 472.23 442.17 467.61 435.25 C 462.98 428.32 453.07 422.62 447.30 420.36 C 441.52 418.10 431.19 415.96 422.00 418.00
C 417.01 408.76 409.07 401.27 403.20 392.75 C 397.33 384.23 386.49 375.96 381.30 367.70 C 376.11 359.43 387.73 350.89 389.39 343.25 C 391.06 335.60 400.26 328.77 401.00 320.00
C 415.33 320.20 437.49 317.60 445.92 325.13 C 454.35 332.66 465.95 330.58 475.30 328.29 C 484.65 326.00 490.91 319.74 497.71 310.70 C 504.52 301.65 510.32 293.59 512.00 282.00
L 512.00 268.00
C 508.15 245.86 485.68 228.10 462.25 229.80 C 438.82 231.51 420.64 249.74 419.00 273.00
C 412.05 270.32 409.65 261.03 401.77 257.58 C 393.89 254.12 387.78 253.25 375.00 254.00 C 362.22 254.75 347.22 253.61 334.00 254.00 C 320.78 254.39 305.22 253.70 292.00 254.00 C 278.78 254.30 263.80 253.58 251.00 254.00 C 238.20 254.42 223.67 252.36 212.22 254.22 C 200.77 256.08 193.58 253.76 185.08 252.93 C 176.59 252.11 171.56 250.31 163.75 249.40 C 155.94 248.48 149.69 247.40 142.25 246.20 C 134.80 244.99 127.87 244.13 120.00 243.00
C 137.08 219.33 142.00 191.44 152.00 163.00
C 162.99 163.70 169.33 153.70 178.08 151.13 C 186.83 148.56 195.68 137.55 191.80 127.25 C 187.92 116.94 183.00 111.98 178.19 103.25 C 173.38 94.53 170.52 87.20 165.13 78.92 C 159.74 70.64 156.84 60.97 147.25 53.19 C 137.65 45.41 125.70 52.61 120.58 61.23 C 115.45 69.85 120.92 84.75 121.60 94.25 C 122.29 103.75 125.25 120.68 122.71 129.70 C 120.17 138.71 109.53 145.48 105.39 154.25 C 101.25 163.01 95.35 170.56 90.09 179.08 C 84.82 187.60 78.44 195.16 73.19 203.75 C 67.94 212.33 63.07 219.16 57.57 228.23 C 52.07 237.30 45.06 244.08 43.40 255.26 C 41.74 266.43 49.83 277.81 58.23 282.42 C 66.62 287.04 74.20 289.55 82.25 293.74 C 90.29 297.92 103.72 304.38 103.00 288.00
C 88.62 280.91 84.41 276.78 69.25 271.19 C 54.10 265.60 59.46 250.51 67.81 240.25 C 76.15 229.99 81.15 218.02 89.61 207.75 C 98.07 197.49 100.84 185.05 111.00 175.00
C 117.61 180.37 122.73 181.43 129.00 187.00
C 126.92 199.45 119.09 210.07 115.19 220.75 C 111.29 231.42 99.25 239.24 96.00 251.00
C 108.01 258.82 122.34 257.86 135.25 260.40 C 148.15 262.94 160.88 264.37 175.00 266.00
C 161.71 280.24 159.35 298.69 166.00 316.00
C 158.42 311.67 149.67 308.95 142.30 305.71 C 134.94 302.48 126.03 293.83 119.00 304.00
C 119.83 306.17 121.20 308.99 120.00 311.00
C 128.85 316.63 138.16 318.02 146.25 323.61 C 154.33 329.19 163.46 327.83 171.70 334.30 C 179.94 340.78 178.54 354.96 183.29 362.70 C 188.04 370.44 189.60 381.87 195.00 391.00
C 159.53 388.13 135.98 402.30 107.00 408.00
C 100.24 398.51 86.77 373.31 71.90 378.88 C 57.03 384.46 47.30 398.39 34.10 407.09 C 20.90 415.80 6.74 426.25 0.00 441.00
M 178.00 135.00 
C 168.66 138.19 163.77 142.54 155.00 147.00
C 153.87 134.32 150.48 121.61 137.00 119.00
C 138.17 108.40 137.22 98.53 135.80 89.75 C 134.39 80.98 130.65 73.03 135.00 65.00
C 147.68 73.48 151.57 85.62 158.71 97.30 C 165.86 108.99 171.82 121.70 178.00 135.00
M 138.00 135.00 
C 142.68 147.75 138.07 160.56 134.00 171.00
C 127.66 168.85 124.10 166.23 119.00 162.00
C 125.14 153.07 130.08 142.67 138.00 135.00
M 462.00 244.00 
C 476.64 241.07 488.47 251.38 494.19 264.25 C 499.91 277.13 494.24 292.24 484.81 303.25 C 475.38 314.26 460.96 320.46 448.75 309.20 C 436.55 297.94 430.99 285.22 434.26 270.25 C 437.53 255.28 448.09 246.78 462.00 244.00
M 372.00 379.00 
C 364.74 384.83 359.55 394.12 351.00 399.00
C 342.92 389.01 327.53 377.17 333.21 366.77 C 338.89 356.37 341.07 350.83 345.19 340.75 C 349.31 330.66 355.43 324.66 356.00 312.00
C 344.50 302.59 338.79 316.53 337.00 325.00
C 305.50 319.78 279.41 311.05 248.00 306.00
C 248.53 293.43 246.02 281.59 245.00 269.00
C 284.00 269.00 323.00 269.00 362.00 269.00
C 359.05 273.49 358.60 278.34 355.00 282.00
C 355.93 284.22 357.11 286.87 356.00 289.00
C 367.77 296.08 371.40 285.29 375.13 276.08 C 378.86 266.87 399.32 265.91 401.58 277.77 C 403.83 289.63 397.48 296.29 393.61 304.75 C 389.73 313.22 384.72 319.75 380.87 327.92 C 377.02 336.08 372.88 344.05 368.42 351.77 C 363.97 359.49 358.61 371.45 372.00 379.00
M 419.00 287.00 
C 420.09 294.63 422.28 299.36 426.00 306.00
C 420.33 306.00 414.67 306.00 409.00 306.00
C 414.42 299.60 413.96 292.27 419.00 287.00
M 382.00 391.00 
C 390.35 401.24 395.89 410.17 406.00 419.00
C 404.56 426.23 399.25 424.75 394.25 432.25 C 389.24 439.75 382.55 430.24 377.75 425.25 C 372.95 420.26 366.37 414.43 362.00 409.00
C 369.94 404.86 373.88 395.11 382.00 391.00
M 94.00 413.00 
C 83.80 417.17 68.89 421.32 68.00 436.00
C 49.06 433.79 33.75 450.12 15.00 445.00
C 21.37 432.86 34.80 426.08 44.30 417.30 C 53.79 408.51 66.53 403.59 75.00 393.00
C 83.83 396.65 85.34 407.70 94.00 413.00
M 127.00 418.00 
C 127.00 424.00 127.00 430.00 127.00 436.00
C 112.33 436.00 97.67 436.00 83.00 436.00
C 88.06 428.39 97.20 430.27 103.30 425.29 C 109.40 420.31 119.19 421.70 127.00 418.00
M 456.00 447.00 
C 438.00 447.00 420.00 447.00 402.00 447.00
C 412.52 426.11 447.07 427.86 456.00 447.00 Z"/>
</g>
<g fill="#000000" fill-opacity="0.04" stroke="None"><path d="
M 178.00 135.00 
C 171.82 121.70 165.86 108.99 158.71 97.30 C 151.57 85.62 147.68 73.48 135.00 65.00
C 130.65 73.03 134.39 80.98 135.80 89.75 C 137.22 98.53 138.17 108.40 137.00 119.00
C 150.48 121.61 153.87 134.32 155.00 147.00
C 163.77 142.54 168.66 138.19 178.00 135.00 Z"/>
</g>
<g fill="#000000" fill-opacity="0.07" stroke="None"><path d="
M 138.00 135.00 
C 130.08 142.67 125.14 153.07 119.00 162.00
C 124.10 166.23 127.66 168.85 134.00 171.00
C 138.07 160.56 142.68 147.75 138.00 135.00 Z"/>
</g>
<g fill="#000000" fill-opacity="0.02" stroke="None"><path d="
M 462.00 244.00 
C 448.09 246.78 437.53 255.28 434.26 270.25 C 430.99 285.22 436.55 297.94 448.75 309.20 C 460.96 320.46 475.38 314.26 484.81 303.25 C 494.24 292.24 499.91 277.13 494.19 264.25 C 488.47 251.38 476.64 241.07 462.00 244.00 Z"/>
</g>
<g fill="#000000" fill-opacity="0.01" stroke="None"><path d="
M 0.00 446.00 
L 0.00 512.00
L 512.00 512.00
L 512.00 282.00
C 510.32 293.59 504.52 301.65 497.71 310.70 C 490.91 319.74 484.65 326.00 475.30 328.29 C 465.95 330.58 454.35 332.66 445.92 325.13 C 437.49 317.60 415.33 320.20 401.00 320.00
C 400.26 328.77 391.06 335.60 389.39 343.25 C 387.73 350.89 376.11 359.43 381.30 367.70 C 386.49 375.96 397.33 384.23 403.20 392.75 C 409.07 401.27 417.01 408.76 422.00 418.00
C 431.19 415.96 441.52 418.10 447.30 420.36 C 453.07 422.62 462.98 428.32 467.61 435.25 C 472.23 442.17 472.10 448.94 466.92 455.92 C 461.74 462.90 445.72 463.84 435.00 462.00 C 424.28 460.16 404.98 466.17 396.75 460.39 C 388.52 454.62 385.24 451.32 377.77 446.23 C 370.30 441.14 363.98 430.19 355.75 424.25 C 347.52 418.30 342.71 408.51 334.25 401.75 C 325.79 394.99 320.70 388.12 318.58 380.77 C 316.45 373.42 317.98 364.08 321.81 358.25 C 325.63 352.42 326.10 344.78 330.00 338.00
C 302.05 335.17 277.31 326.28 250.00 321.00
C 250.49 332.88 257.26 350.21 247.00 356.00
C 233.54 354.32 238.53 339.12 236.77 329.23 C 235.01 319.34 233.87 309.26 232.93 299.08 C 232.00 288.91 230.90 278.39 230.00 268.00
C 216.47 267.34 198.89 267.23 190.75 273.61 C 182.62 279.98 176.31 286.48 177.02 296.97 C 177.73 307.47 181.02 314.25 184.24 322.75 C 187.47 331.26 190.14 338.20 193.29 346.70 C 196.43 355.19 198.85 361.34 202.42 370.23 C 206.00 379.12 206.72 384.47 211.42 394.23 C 216.13 403.99 208.23 411.69 197.75 406.39 C 187.27 401.10 176.47 407.50 167.25 407.80 C 158.02 408.10 151.35 412.27 142.00 413.00
C 142.00 420.67 142.00 428.33 142.00 436.00
C 157.55 434.88 179.77 434.90 194.93 435.07 C 210.09 435.25 230.23 439.50 240.75 432.75 C 251.26 425.99 242.41 412.90 243.60 403.75 C 244.80 394.60 237.38 382.61 245.00 375.00
C 247.74 376.28 250.20 375.25 253.00 375.00
C 259.12 384.84 257.19 393.71 258.23 405.77 C 259.26 417.83 264.22 427.58 255.57 438.23 C 246.92 448.88 237.40 450.99 220.00 450.00 C 202.60 449.01 180.01 451.84 162.00 450.00 C 143.99 448.16 120.79 451.59 103.00 451.00 C 85.21 450.41 72.24 449.36 59.25 451.24 C 46.25 453.13 40.07 459.05 28.25 461.80 C 16.42 464.55 2.67 457.99 0.00 446.00 Z"/>
</g>
<g fill="#000000" fill-opacity="0.02" stroke="None"><path d="
M 372.00 379.00 
C 358.61 371.45 363.97 359.49 368.42 351.77 C 372.88 344.05 377.02 336.08 380.87 327.92 C 384.72 319.75 389.73 313.22 393.61 304.75 C 397.48 296.29 403.83 289.63 401.58 277.77 C 399.32 265.91 378.86 266.87 375.13 276.08 C 371.40 285.29 367.77 296.08 356.00 289.00
C 357.11 286.87 355.93 284.22 355.00 282.00
C 358.60 278.34 359.05 273.49 362.00 269.00
C 323.00 269.00 284.00 269.00 245.00 269.00
C 246.02 281.59 248.53 293.43 248.00 306.00
C 279.41 311.05 305.50 319.78 337.00 325.00
C 338.79 316.53 344.50 302.59 356.00 312.00
C 355.43 324.66 349.31 330.66 345.19 340.75 C 341.07 350.83 338.89 356.37 333.21 366.77 C 327.53 377.17 342.92 389.01 351.00 399.00
C 359.55 394.12 364.74 384.83 372.00 379.00 Z"/>
</g>
<g fill="#000000" fill-opacity="0.10" stroke="None"><path d="
M 419.00 287.00 
C 413.96 292.27 414.42 299.60 409.00 306.00
C 414.67 306.00 420.33 306.00 426.00 306.00
C 422.28 299.36 420.09 294.63 419.00 287.00 Z"/>
</g>
<g fill="#000000" fill-opacity="0.05" stroke="None"><path d="
M 382.00 391.00 
C 373.88 395.11 369.94 404.86 362.00 409.00
C 366.37 414.43 372.95 420.26 377.75 425.25 C 382.55 430.24 389.24 439.75 394.25 432.25 C 399.25 424.75 404.56 426.23 406.00 419.00
C 395.89 410.17 390.35 401.24 382.00 391.00 Z"/>
</g>
<g fill="#000000" fill-opacity="0.04" stroke="None"><path d="
M 94.00 413.00 
C 85.34 407.70 83.83 396.65 75.00 393.00
C 66.53 403.59 53.79 408.51 44.30 417.30 C 34.80 426.08 21.37 432.86 15.00 445.00
C 33.75 450.12 49.06 433.79 68.00 436.00
C 68.89 421.32 83.80 417.17 94.00 413.00 Z"/>
</g>
<g fill="#000000" fill-opacity="0.04" stroke="None"><path d="
M 127.00 418.00 
C 119.19 421.70 109.40 420.31 103.30 425.29 C 97.20 430.27 88.06 428.39 83.00 436.00
C 97.67 436.00 112.33 436.00 127.00 436.00
C 127.00 430.00 127.00 424.00 127.00 418.00 Z"/>
</g>
<g fill="#000000" fill-opacity="0.02" stroke="None"><path d="
M 456.00 447.00 
C 447.07 427.86 412.52 426.11 402.00 447.00
C 420.00 447.00 438.00 447.00 456.00 447.00 Z"/>
</g>
</svg>